<ttFont>
    <TTGlyph name="A" xMin="26" yMin="0" xMax="527" yMax="700">
      <contour>
        <pt x="386" y="279" on="1"/>
        <pt x="293" y="635" on="1"/>
        <pt x="261" y="635" on="1"/>
        <pt x="167" y="279" on="1"/>
      </contour>
      <contour>
        <pt x="151" y="215" on="1"/>
        <pt x="95" y="0" on="1"/>
        <pt x="26" y="0" on="1"/>
        <pt x="209" y="700" on="1"/>
        <pt x="344" y="700" on="1"/>
        <pt x="527" y="0" on="1"/>
        <pt x="458" y="0" on="1"/>
        <pt x="401" y="215" on="1"/>
      </contour>
    </TTGlyph>
    <TTGlyph name="AE" xMin="26" yMin="0" xMax="743" yMax="700">
      <contour>
        <pt x="209" y="700" on="1"/>
        <pt x="723" y="700" on="1"/>
        <pt x="723" y="635" on="1"/>
        <pt x="444" y="635" on="1"/>
        <pt x="444" y="399" on="1"/>
        <pt x="673" y="399" on="1"/>
        <pt x="673" y="334" on="1"/>
        <pt x="444" y="334" on="1"/>
        <pt x="444" y="64" on="1"/>
        <pt x="743" y="64" on="1"/>
        <pt x="743" y="0" on="1"/>
        <pt x="374" y="0" on="1"/>
        <pt x="374" y="215" on="1"/>
        <pt x="151" y="215" on="1"/>
        <pt x="95" y="0" on="1"/>
        <pt x="26" y="0" on="1"/>
      </contour>
      <contour>
        <pt x="261" y="635" on="1"/>
        <pt x="167" y="279" on="1"/>
        <pt x="374" y="279" on="1"/>
        <pt x="374" y="635" on="1"/>
      </contour>
    </TTGlyph>
    <TTGlyph name="Aacute" xMin="26" yMin="0" xMax="527" yMax="875">
      <component glyphName="A" x="0" y="0" flags="0x204"/>
      <component glyphName="acute.case" x="187" y="-21" flags="0x4"/>
    </TTGlyph>
    <TTGlyph name="Acircumflex" xMin="26" yMin="0" xMax="527" yMax="904">
      <component glyphName="A" x="0" y="0" flags="0x204"/>
      <component glyphName="circumflex" x="59" y="-21" flags="0x4"/>
    </TTGlyph>
    <TTGlyph name="Adieresis" xMin="26" yMin="0" xMax="527" yMax="883">
      <component glyphName="A" x="0" y="0" flags="0x204"/>
      <component glyphName="dieresis" x="75" y="-21" flags="0x4"/>
    </TTGlyph>
    <TTGlyph name="Agrave" xMin="26" yMin="0" xMax="527" yMax="875">
      <component glyphName="A" x="0" y="0" flags="0x204"/>
      <component glyphName="grave.case" x="84" y="-21" flags="0x4"/>
    </TTGlyph>
    <TTGlyph name="Aring" xMin="26" yMin="0" xMax="527" yMax="923">
      <component glyphName="A" x="0" y="0" flags="0x204"/>
      <component glyphName="ring" x="79" y="-21" flags="0x4"/>
    </TTGlyph>
    <TTGlyph name="Atilde" xMin="26" yMin="0" xMax="527" yMax="894">
      <component glyphName="A" x="0" y="0" flags="0x204"/>
      <component glyphName="tilde" x="34" y="-21" flags="0x4"/>
    </TTGlyph>
    <TTGlyph name="B" xMin="81" yMin="0" xMax="494" yMax="700">
      <contour>
        <pt x="151" y="64" on="1"/>
        <pt x="372" y="64" on="1"/>
        <pt x="424" y="64" on="0"/>
        <pt x="424" y="118" on="1"/>
        <pt x="424" y="261" on="1"/>
        <pt x="424" y="292" on="0"/>
        <pt x="390" y="325" on="0"/>
        <pt x="361" y="325" on="1"/>
        <pt x="151" y="325" on="1"/>
      </contour>
      <contour>
        <pt x="349" y="635" on="1"/>
        <pt x="151" y="635" on="1"/>
        <pt x="151" y="389" on="1"/>
        <pt x="339" y="389" on="1"/>
        <pt x="367" y="389" on="0"/>
        <pt x="401" y="423" on="0"/>
        <pt x="401" y="453" on="1"/>
        <pt x="401" y="581" on="1"/>
        <pt x="401" y="635" on="0"/>
      </contour>
      <contour>
        <pt x="374" y="0" on="1"/>
        <pt x="81" y="0" on="1"/>
        <pt x="81" y="700" on="1"/>
        <pt x="351" y="700" on="1"/>
        <pt x="409" y="700" on="0"/>
        <pt x="471" y="637" on="0"/>
        <pt x="471" y="580" on="1"/>
        <pt x="471" y="466" on="1"/>
        <pt x="471" y="394" on="0"/>
        <pt x="420" y="369" on="1"/>
        <pt x="408" y="369" on="1"/>
        <pt x="408" y="365" on="1"/>
        <pt x="420" y="365" on="1"/>
        <pt x="494" y="341" on="0"/>
        <pt x="494" y="253" on="1"/>
        <pt x="494" y="120" on="1"/>
        <pt x="494" y="62" on="0"/>
        <pt x="433" y="0" on="0"/>
      </contour>
    </TTGlyph>
    <TTGlyph name="C" xMin="71" yMin="0" xMax="469" yMax="700">
      <contour>
        <pt x="191" y="700" on="1"/>
        <pt x="358" y="700" on="1"/>
        <pt x="458" y="672" on="1"/>
        <pt x="440" y="611" on="1"/>
        <pt x="358" y="635" on="1"/>
        <pt x="193" y="635" on="1"/>
        <pt x="141" y="635" on="0"/>
        <pt x="141" y="581" on="1"/>
        <pt x="141" y="118" on="1"/>
        <pt x="141" y="64" on="0"/>
        <pt x="193" y="64" on="1"/>
        <pt x="370" y="64" on="1"/>
        <pt x="452" y="88" on="1"/>
        <pt x="469" y="27" on="1"/>
        <pt x="370" y="0" on="1"/>
        <pt x="191" y="0" on="1"/>
        <pt x="132" y="0" on="0"/>
        <pt x="71" y="62" on="0"/>
        <pt x="71" y="120" on="1"/>
        <pt x="71" y="580" on="1"/>
        <pt x="71" y="637" on="0"/>
        <pt x="132" y="700" on="0"/>
      </contour>
    </TTGlyph>
    <TTGlyph name="Ccedilla" xMin="71" yMin="-224" xMax="469" yMax="700">
      <contour>
        <pt x="191" y="-158" on="1"/>
        <pt x="241" y="-170" on="1"/>
        <pt x="326" y="-170" on="1"/>
        <pt x="348" y="-170" on="0"/>
        <pt x="348" y="-145" on="1"/>
        <pt x="348" y="-121" on="1"/>
        <pt x="348" y="-95" on="0"/>
        <pt x="326" y="-95" on="1"/>
        <pt x="297" y="-95" on="1"/>
        <pt x="269" y="-95" on="0"/>
        <pt x="254" y="-108" on="1"/>
        <pt x="203" y="-96" on="1"/>
        <pt x="235" y="0" on="1"/>
        <pt x="191" y="0" on="1"/>
        <pt x="132" y="0" on="0"/>
        <pt x="71" y="62" on="0"/>
        <pt x="71" y="120" on="1"/>
        <pt x="71" y="580" on="1"/>
        <pt x="71" y="637" on="0"/>
        <pt x="132" y="700" on="0"/>
        <pt x="191" y="700" on="1"/>
        <pt x="358" y="700" on="1"/>
        <pt x="458" y="672" on="1"/>
        <pt x="440" y="611" on="1"/>
        <pt x="358" y="635" on="1"/>
        <pt x="193" y="635" on="1"/>
        <pt x="141" y="635" on="0"/>
        <pt x="141" y="581" on="1"/>
        <pt x="141" y="118" on="1"/>
        <pt x="141" y="64" on="0"/>
        <pt x="193" y="64" on="1"/>
        <pt x="370" y="64" on="1"/>
        <pt x="452" y="88" on="1"/>
        <pt x="469" y="27" on="1"/>
        <pt x="370" y="0" on="1"/>
        <pt x="292" y="0" on="1"/>
        <pt x="284" y="-23" on="1"/>
        <pt x="261" y="-50" on="1"/>
        <pt x="264" y="-53" on="1"/>
        <pt x="281" y="-42" on="0"/>
        <pt x="298" y="-42" on="1"/>
        <pt x="319" y="-42" on="1"/>
        <pt x="405" y="-42" on="0"/>
        <pt x="405" y="-121" on="1"/>
        <pt x="405" y="-135" on="1"/>
        <pt x="405" y="-182" on="0"/>
        <pt x="366" y="-224" on="0"/>
        <pt x="318" y="-224" on="1"/>
        <pt x="241" y="-224" on="1"/>
        <pt x="180" y="-210" on="1"/>
      </contour>
    </TTGlyph>
    <TTGlyph name="D" xMin="81" yMin="0" xMax="496" yMax="700">
      <contour>
        <pt x="81" y="700" on="1"/>
        <pt x="376" y="700" on="1"/>
        <pt x="435" y="700" on="0"/>
        <pt x="496" y="637" on="0"/>
        <pt x="496" y="580" on="1"/>
        <pt x="496" y="120" on="1"/>
        <pt x="496" y="62" on="0"/>
        <pt x="435" y="0" on="0"/>
        <pt x="376" y="0" on="1"/>
        <pt x="81" y="0" on="1"/>
      </contour>
      <contour>
        <pt x="374" y="635" on="1"/>
        <pt x="151" y="635" on="1"/>
        <pt x="151" y="64" on="1"/>
        <pt x="374" y="64" on="1"/>
        <pt x="426" y="64" on="0"/>
        <pt x="426" y="118" on="1"/>
        <pt x="426" y="581" on="1"/>
        <pt x="426" y="635" on="0"/>
      </contour>
    </TTGlyph>
    <TTGlyph name="E" xMin="81" yMin="0" xMax="450" yMax="700">
      <contour>
        <pt x="81" y="700" on="1"/>
        <pt x="430" y="700" on="1"/>
        <pt x="430" y="635" on="1"/>
        <pt x="151" y="635" on="1"/>
        <pt x="151" y="399" on="1"/>
        <pt x="380" y="399" on="1"/>
        <pt x="380" y="334" on="1"/>
        <pt x="151" y="334" on="1"/>
        <pt x="151" y="64" on="1"/>
        <pt x="450" y="64" on="1"/>
        <pt x="450" y="0" on="1"/>
        <pt x="81" y="0" on="1"/>
      </contour>
    </TTGlyph>
    <TTGlyph name="Eacute" xMin="81" yMin="0" xMax="450" yMax="875">
      <component glyphName="E" x="0" y="0" flags="0x204"/>
      <component glyphName="acute.case" x="165" y="-21" flags="0x4"/>
    </TTGlyph>
    <TTGlyph name="Ecircumflex" xMin="81" yMin="0" xMax="450" yMax="904">
      <component glyphName="E" x="0" y="0" flags="0x204"/>
      <component glyphName="circumflex" x="37" y="-21" flags="0x4"/>
    </TTGlyph>
    <TTGlyph name="Edieresis" xMin="81" yMin="0" xMax="450" yMax="883">
      <component glyphName="E" x="0" y="0" flags="0x204"/>
      <component glyphName="dieresis" x="53" y="-21" flags="0x4"/>
    </TTGlyph>
    <TTGlyph name="Egrave" xMin="81" yMin="0" xMax="450" yMax="875">
      <component glyphName="E" x="0" y="0" flags="0x204"/>
      <component glyphName="grave.case" x="62" y="-21" flags="0x4"/>
    </TTGlyph>
    <TTGlyph name="Eth" xMin="21" yMin="0" xMax="496" yMax="700">
      <contour>
        <pt x="81" y="700" on="1"/>
        <pt x="376" y="700" on="1"/>
        <pt x="435" y="700" on="0"/>
        <pt x="496" y="637" on="0"/>
        <pt x="496" y="580" on="1"/>
        <pt x="496" y="120" on="1"/>
        <pt x="496" y="62" on="0"/>
        <pt x="435" y="0" on="0"/>
        <pt x="376" y="0" on="1"/>
        <pt x="81" y="0" on="1"/>
        <pt x="81" y="326" on="1"/>
        <pt x="21" y="326" on="1"/>
        <pt x="21" y="390" on="1"/>
        <pt x="81" y="390" on="1"/>
      </contour>
      <contour>
        <pt x="299" y="390" on="1"/>
        <pt x="299" y="326" on="1"/>
        <pt x="151" y="326" on="1"/>
        <pt x="151" y="64" on="1"/>
        <pt x="374" y="64" on="1"/>
        <pt x="426" y="64" on="0"/>
        <pt x="426" y="118" on="1"/>
        <pt x="426" y="581" on="1"/>
        <pt x="426" y="635" on="0"/>
        <pt x="374" y="635" on="1"/>
        <pt x="151" y="635" on="1"/>
        <pt x="151" y="390" on="1"/>
      </contour>
    </TTGlyph>
    <TTGlyph name="Euro" xMin="6" yMin="0" xMax="464" yMax="700">
      <contour>
        <pt x="6" y="278" on="1"/>
        <pt x="10" y="334" on="1"/>
        <pt x="66" y="334" on="1"/>
        <pt x="66" y="389" on="1"/>
        <pt x="6" y="389" on="1"/>
        <pt x="10" y="445" on="1"/>
        <pt x="66" y="445" on="1"/>
        <pt x="66" y="580" on="1"/>
        <pt x="66" y="637" on="0"/>
        <pt x="127" y="700" on="0"/>
        <pt x="186" y="700" on="1"/>
        <pt x="353" y="700" on="1"/>
        <pt x="453" y="672" on="1"/>
        <pt x="435" y="611" on="1"/>
        <pt x="353" y="635" on="1"/>
        <pt x="188" y="635" on="1"/>
        <pt x="136" y="635" on="0"/>
        <pt x="136" y="581" on="1"/>
        <pt x="136" y="445" on="1"/>
        <pt x="372" y="445" on="1"/>
        <pt x="368" y="389" on="1"/>
        <pt x="136" y="389" on="1"/>
        <pt x="136" y="334" on="1"/>
        <pt x="340" y="334" on="1"/>
        <pt x="336" y="278" on="1"/>
        <pt x="136" y="278" on="1"/>
        <pt x="136" y="118" on="1"/>
        <pt x="136" y="64" on="0"/>
        <pt x="188" y="64" on="1"/>
        <pt x="365" y="64" on="1"/>
        <pt x="447" y="88" on="1"/>
        <pt x="464" y="27" on="1"/>
        <pt x="365" y="0" on="1"/>
        <pt x="186" y="0" on="1"/>
        <pt x="127" y="0" on="0"/>
        <pt x="66" y="62" on="0"/>
        <pt x="66" y="120" on="1"/>
        <pt x="66" y="278" on="1"/>
      </contour>
    </TTGlyph>
    <TTGlyph name="F" xMin="81" yMin="0" xMax="420" yMax="700">
      <contour>
        <pt x="81" y="700" on="1"/>
        <pt x="420" y="700" on="1"/>
        <pt x="420" y="635" on="1"/>
        <pt x="151" y="635" on="1"/>
        <pt x="151" y="399" on="1"/>
        <pt x="370" y="399" on="1"/>
        <pt x="370" y="334" on="1"/>
        <pt x="151" y="334" on="1"/>
        <pt x="151" y="0" on="1"/>
        <pt x="81" y="0" on="1"/>
      </contour>
    </TTGlyph>
    <TTGlyph name="G" xMin="76" yMin="0" xMax="480" yMax="700">
      <contour>
        <pt x="196" y="700" on="1"/>
        <pt x="367" y="700" on="1"/>
        <pt x="466" y="672" on="1"/>
        <pt x="449" y="611" on="1"/>
        <pt x="367" y="635" on="1"/>
        <pt x="198" y="635" on="1"/>
        <pt x="146" y="635" on="0"/>
        <pt x="146" y="581" on="1"/>
        <pt x="146" y="118" on="1"/>
        <pt x="146" y="64" on="0"/>
        <pt x="198" y="64" on="1"/>
        <pt x="382" y="64" on="1"/>
        <pt x="410" y="72" on="1"/>
        <pt x="410" y="294" on="1"/>
        <pt x="297" y="294" on="1"/>
        <pt x="297" y="360" on="1"/>
        <pt x="480" y="360" on="1"/>
        <pt x="480" y="24" on="1"/>
        <pt x="396" y="0" on="1"/>
        <pt x="196" y="0" on="1"/>
        <pt x="137" y="0" on="0"/>
        <pt x="76" y="62" on="0"/>
        <pt x="76" y="120" on="1"/>
        <pt x="76" y="580" on="1"/>
        <pt x="76" y="637" on="0"/>
        <pt x="137" y="700" on="0"/>
      </contour>
    </TTGlyph>
    <TTGlyph name="H" xMin="81" yMin="0" xMax="499" yMax="700">
      <contour>
        <pt x="499" y="700" on="1"/>
        <pt x="499" y="0" on="1"/>
        <pt x="429" y="0" on="1"/>
        <pt x="429" y="326" on="1"/>
        <pt x="151" y="326" on="1"/>
        <pt x="151" y="0" on="1"/>
        <pt x="81" y="0" on="1"/>
        <pt x="81" y="700" on="1"/>
        <pt x="151" y="700" on="1"/>
        <pt x="151" y="390" on="1"/>
        <pt x="429" y="390" on="1"/>
        <pt x="429" y="700" on="1"/>
      </contour>
    </TTGlyph>
    <TTGlyph name="I" xMin="81" yMin="0" xMax="151" yMax="700">
      <contour>
        <pt x="151" y="0" on="1"/>
        <pt x="81" y="0" on="1"/>
        <pt x="81" y="700" on="1"/>
        <pt x="151" y="700" on="1"/>
      </contour>
    </TTGlyph>
    <TTGlyph name="Iacute" xMin="69" yMin="0" xMax="267" yMax="875">
      <component glyphName="I" x="0" y="0" flags="0x204"/>
      <component glyphName="acute.case" x="25" y="-21" flags="0x4"/>
    </TTGlyph>
    <TTGlyph name="Icircumflex" xMin="-24" yMin="0" xMax="258" yMax="904">
      <component glyphName="I" x="0" y="0" flags="0x204"/>
      <component glyphName="circumflex" x="-102" y="-21" flags="0x4"/>
    </TTGlyph>
    <TTGlyph name="Idieresis" xMin="-11" yMin="0" xMax="245" yMax="883">
      <component glyphName="I" x="0" y="0" flags="0x204"/>
      <component glyphName="dieresis" x="-86" y="-21" flags="0x4"/>
    </TTGlyph>
    <TTGlyph name="Igrave" xMin="-33" yMin="0" xMax="165" yMax="875">
      <component glyphName="I" x="0" y="0" flags="0x204"/>
      <component glyphName="grave.case" x="-77" y="-21" flags="0x4"/>
    </TTGlyph>
    <TTGlyph name="J" xMin="21" yMin="0" xMax="286" yMax="700">
      <contour>
        <pt x="144" y="0" on="1"/>
        <pt x="112" y="0" on="1"/>
        <pt x="21" y="25" on="1"/>
        <pt x="38" y="86" on="1"/>
        <pt x="112" y="64" on="1"/>
        <pt x="151" y="64" on="1"/>
        <pt x="216" y="64" on="0"/>
        <pt x="216" y="140" on="1"/>
        <pt x="216" y="700" on="1"/>
        <pt x="286" y="700" on="1"/>
        <pt x="286" y="140" on="1"/>
        <pt x="286" y="72" on="0"/>
        <pt x="213" y="0" on="0"/>
      </contour>
    </TTGlyph>
    <TTGlyph name="K" xMin="81" yMin="0" xMax="511" yMax="708">
      <contour>
        <pt x="382" y="631" on="1"/>
        <pt x="425" y="708" on="1"/>
        <pt x="500" y="698" on="1"/>
        <pt x="452" y="619" on="1"/>
        <pt x="269" y="369" on="1"/>
        <pt x="511" y="0" on="1"/>
        <pt x="430" y="0" on="1"/>
        <pt x="206" y="341" on="1"/>
        <pt x="151" y="326" on="1"/>
        <pt x="151" y="0" on="1"/>
        <pt x="81" y="0" on="1"/>
        <pt x="81" y="700" on="1"/>
        <pt x="151" y="700" on="1"/>
        <pt x="151" y="397" on="1"/>
        <pt x="227" y="417" on="1"/>
      </contour>
    </TTGlyph>
    <TTGlyph name="L" xMin="81" yMin="0" xMax="430" yMax="700">
      <contour>
        <pt x="151" y="64" on="1"/>
        <pt x="430" y="64" on="1"/>
        <pt x="430" y="0" on="1"/>
        <pt x="81" y="0" on="1"/>
        <pt x="81" y="700" on="1"/>
        <pt x="151" y="700" on="1"/>
      </contour>
    </TTGlyph>
    <TTGlyph name="M" xMin="81" yMin="0" xMax="621" yMax="700">
      <contour>
        <pt x="559" y="588" on="1"/>
        <pt x="519" y="468" on="1"/>
        <pt x="381" y="149" on="1"/>
        <pt x="321" y="149" on="1"/>
        <pt x="183" y="468" on="1"/>
        <pt x="143" y="588" on="1"/>
        <pt x="139" y="588" on="1"/>
        <pt x="151" y="401" on="1"/>
        <pt x="151" y="0" on="1"/>
        <pt x="81" y="0" on="1"/>
        <pt x="81" y="700" on="1"/>
        <pt x="151" y="700" on="1"/>
        <pt x="351" y="232" on="1"/>
        <pt x="551" y="700" on="1"/>
        <pt x="621" y="700" on="1"/>
        <pt x="621" y="0" on="1"/>
        <pt x="551" y="0" on="1"/>
        <pt x="551" y="401" on="1"/>
        <pt x="563" y="588" on="1"/>
      </contour>
    </TTGlyph>
    <TTGlyph name="N" xMin="81" yMin="0" xMax="499" yMax="700">
      <contour>
        <pt x="429" y="0" on="1"/>
        <pt x="185" y="488" on="1"/>
        <pt x="143" y="588" on="1"/>
        <pt x="139" y="588" on="1"/>
        <pt x="151" y="401" on="1"/>
        <pt x="151" y="0" on="1"/>
        <pt x="81" y="0" on="1"/>
        <pt x="81" y="700" on="1"/>
        <pt x="151" y="700" on="1"/>
        <pt x="394" y="211" on="1"/>
        <pt x="436" y="111" on="1"/>
        <pt x="440" y="111" on="1"/>
        <pt x="429" y="298" on="1"/>
        <pt x="429" y="700" on="1"/>
        <pt x="499" y="700" on="1"/>
        <pt x="499" y="0" on="1"/>
      </contour>
    </TTGlyph>
    <TTGlyph name="Ntilde" xMin="81" yMin="0" xMax="499" yMax="894">
      <component glyphName="N" x="0" y="0" flags="0x204"/>
      <component glyphName="tilde" x="47" y="-21" flags="0x4"/>
    </TTGlyph>
    <TTGlyph name="O" xMin="71" yMin="0" xMax="489" yMax="700">
      <contour>
        <pt x="367" y="635" on="1"/>
        <pt x="193" y="635" on="1"/>
        <pt x="141" y="635" on="0"/>
        <pt x="141" y="581" on="1"/>
        <pt x="141" y="118" on="1"/>
        <pt x="141" y="64" on="0"/>
        <pt x="193" y="64" on="1"/>
        <pt x="367" y="64" on="1"/>
        <pt x="419" y="64" on="0"/>
        <pt x="419" y="118" on="1"/>
        <pt x="419" y="581" on="1"/>
        <pt x="419" y="635" on="0"/>
      </contour>
      <contour>
        <pt x="369" y="0" on="1"/>
        <pt x="191" y="0" on="1"/>
        <pt x="132" y="0" on="0"/>
        <pt x="71" y="62" on="0"/>
        <pt x="71" y="120" on="1"/>
        <pt x="71" y="580" on="1"/>
        <pt x="71" y="637" on="0"/>
        <pt x="132" y="700" on="0"/>
        <pt x="191" y="700" on="1"/>
        <pt x="369" y="700" on="1"/>
        <pt x="427" y="700" on="0"/>
        <pt x="489" y="637" on="0"/>
        <pt x="489" y="580" on="1"/>
        <pt x="489" y="120" on="1"/>
        <pt x="489" y="63" on="0"/>
        <pt x="427" y="0" on="0"/>
      </contour>
    </TTGlyph>
    <TTGlyph name="OE" xMin="71" yMin="0" xMax="778" yMax="700">
      <contour>
        <pt x="191" y="700" on="1"/>
        <pt x="758" y="700" on="1"/>
        <pt x="758" y="635" on="1"/>
        <pt x="479" y="635" on="1"/>
        <pt x="479" y="399" on="1"/>
        <pt x="708" y="399" on="1"/>
        <pt x="708" y="334" on="1"/>
        <pt x="479" y="334" on="1"/>
        <pt x="479" y="64" on="1"/>
        <pt x="778" y="64" on="1"/>
        <pt x="778" y="0" on="1"/>
        <pt x="191" y="0" on="1"/>
        <pt x="132" y="0" on="0"/>
        <pt x="71" y="62" on="0"/>
        <pt x="71" y="120" on="1"/>
        <pt x="71" y="580" on="1"/>
        <pt x="71" y="637" on="0"/>
        <pt x="132" y="700" on="0"/>
      </contour>
      <contour>
        <pt x="141" y="581" on="1"/>
        <pt x="141" y="118" on="1"/>
        <pt x="141" y="64" on="0"/>
        <pt x="193" y="64" on="1"/>
        <pt x="409" y="64" on="1"/>
        <pt x="409" y="635" on="1"/>
        <pt x="193" y="635" on="1"/>
        <pt x="141" y="635" on="0"/>
      </contour>
    </TTGlyph>
    <TTGlyph name="Oacute" xMin="71" yMin="0" xMax="489" yMax="875">
      <component glyphName="O" x="0" y="0" flags="0x204"/>
      <component glyphName="acute.case" x="189" y="-21" flags="0x4"/>
    </TTGlyph>
    <TTGlyph name="Ocircumflex" xMin="71" yMin="0" xMax="489" yMax="904">
      <component glyphName="O" x="0" y="0" flags="0x204"/>
      <component glyphName="circumflex" x="61" y="-21" flags="0x4"/>
    </TTGlyph>
    <TTGlyph name="Odieresis" xMin="71" yMin="0" xMax="489" yMax="883">
      <component glyphName="O" x="0" y="0" flags="0x204"/>
      <component glyphName="dieresis" x="77" y="-21" flags="0x4"/>
    </TTGlyph>
    <TTGlyph name="Ograve" xMin="71" yMin="0" xMax="489" yMax="875">
      <component glyphName="O" x="0" y="0" flags="0x204"/>
      <component glyphName="grave.case" x="86" y="-21" flags="0x4"/>
    </TTGlyph>
    <TTGlyph name="Oslash" xMin="57" yMin="-78" xMax="490" yMax="743">
      <contour>
        <pt x="490" y="720" on="1"/>
        <pt x="463" y="662" on="1"/>
        <pt x="489" y="631" on="0"/>
        <pt x="489" y="580" on="1"/>
        <pt x="489" y="120" on="1"/>
        <pt x="489" y="63" on="0"/>
        <pt x="427" y="0" on="0"/>
        <pt x="369" y="0" on="1"/>
        <pt x="191" y="0" on="1"/>
        <pt x="162" y="0" on="0"/>
        <pt x="142" y="7" on="1"/>
        <pt x="102" y="-78" on="1"/>
        <pt x="57" y="-54" on="1"/>
        <pt x="99" y="33" on="1"/>
        <pt x="71" y="64" on="0"/>
        <pt x="71" y="120" on="1"/>
        <pt x="71" y="580" on="1"/>
        <pt x="71" y="637" on="0"/>
        <pt x="132" y="700" on="0"/>
        <pt x="191" y="700" on="1"/>
        <pt x="369" y="700" on="1"/>
        <pt x="397" y="700" on="0"/>
        <pt x="421" y="692" on="1"/>
        <pt x="445" y="743" on="1"/>
      </contour>
      <contour>
        <pt x="367" y="635" on="1"/>
        <pt x="193" y="635" on="1"/>
        <pt x="141" y="635" on="0"/>
        <pt x="141" y="581" on="1"/>
        <pt x="141" y="118" on="1"/>
        <pt x="141" y="107" on="0"/>
        <pt x="142" y="102" on="1"/>
        <pt x="383" y="633" on="1"/>
        <pt x="373" y="635" on="0"/>
      </contour>
      <contour>
        <pt x="419" y="581" on="1"/>
        <pt x="419" y="589" on="1"/>
        <pt x="179" y="65" on="1"/>
        <pt x="183" y="64" on="0"/>
        <pt x="193" y="64" on="1"/>
        <pt x="367" y="64" on="1"/>
        <pt x="419" y="64" on="0"/>
        <pt x="419" y="118" on="1"/>
      </contour>
    </TTGlyph>
    <TTGlyph name="Otilde" xMin="71" yMin="0" xMax="489" yMax="894">
      <component glyphName="O" x="0" y="0" flags="0x204"/>
      <component glyphName="tilde" x="36" y="-21" flags="0x4"/>
    </TTGlyph>
    <TTGlyph name="P" xMin="81" yMin="0" xMax="489" yMax="700">
      <contour>
        <pt x="81" y="700" on="1"/>
        <pt x="369" y="700" on="1"/>
        <pt x="427" y="700" on="0"/>
        <pt x="489" y="637" on="0"/>
        <pt x="489" y="580" on="1"/>
        <pt x="489" y="395" on="1"/>
        <pt x="489" y="338" on="0"/>
        <pt x="427" y="275" on="0"/>
        <pt x="369" y="275" on="1"/>
        <pt x="151" y="275" on="1"/>
        <pt x="151" y="0" on="1"/>
        <pt x="81" y="0" on="1"/>
      </contour>
      <contour>
        <pt x="151" y="635" on="1"/>
        <pt x="151" y="339" on="1"/>
        <pt x="367" y="339" on="1"/>
        <pt x="419" y="339" on="0"/>
        <pt x="419" y="393" on="1"/>
        <pt x="419" y="581" on="1"/>
        <pt x="419" y="635" on="0"/>
        <pt x="367" y="635" on="1"/>
      </contour>
    </TTGlyph>
    <TTGlyph name="Q" xMin="71" yMin="-173" xMax="489" yMax="700">
      <contour>
        <pt x="408" y="-173" on="1"/>
        <pt x="296" y="-61" on="1"/>
        <pt x="260" y="0" on="1"/>
        <pt x="191" y="0" on="1"/>
        <pt x="132" y="0" on="0"/>
        <pt x="71" y="62" on="0"/>
        <pt x="71" y="120" on="1"/>
        <pt x="71" y="580" on="1"/>
        <pt x="71" y="637" on="0"/>
        <pt x="132" y="700" on="0"/>
        <pt x="191" y="700" on="1"/>
        <pt x="369" y="700" on="1"/>
        <pt x="427" y="700" on="0"/>
        <pt x="489" y="637" on="0"/>
        <pt x="489" y="580" on="1"/>
        <pt x="489" y="120" on="1"/>
        <pt x="489" y="63" on="0"/>
        <pt x="427" y="0" on="0"/>
        <pt x="369" y="0" on="1"/>
        <pt x="334" y="0" on="1"/>
        <pt x="349" y="-26" on="1"/>
        <pt x="448" y="-124" on="1"/>
      </contour>
      <contour>
        <pt x="367" y="635" on="1"/>
        <pt x="193" y="635" on="1"/>
        <pt x="141" y="635" on="0"/>
        <pt x="141" y="581" on="1"/>
        <pt x="141" y="118" on="1"/>
        <pt x="141" y="64" on="0"/>
        <pt x="193" y="64" on="1"/>
        <pt x="367" y="64" on="1"/>
        <pt x="419" y="64" on="0"/>
        <pt x="419" y="118" on="1"/>
        <pt x="419" y="581" on="1"/>
        <pt x="419" y="635" on="0"/>
      </contour>
    </TTGlyph>
    <TTGlyph name="R" xMin="81" yMin="0" xMax="516" yMax="700">
      <contour>
        <pt x="81" y="700" on="1"/>
        <pt x="364" y="700" on="1"/>
        <pt x="422" y="700" on="0"/>
        <pt x="484" y="637" on="0"/>
        <pt x="484" y="580" on="1"/>
        <pt x="484" y="415" on="1"/>
        <pt x="484" y="358" on="0"/>
        <pt x="422" y="295" on="0"/>
        <pt x="364" y="295" on="1"/>
        <pt x="311" y="295" on="1"/>
        <pt x="516" y="0" on="1"/>
        <pt x="432" y="0" on="1"/>
        <pt x="232" y="295" on="1"/>
        <pt x="151" y="295" on="1"/>
        <pt x="151" y="0" on="1"/>
        <pt x="81" y="0" on="1"/>
      </contour>
      <contour>
        <pt x="151" y="635" on="1"/>
        <pt x="151" y="359" on="1"/>
        <pt x="362" y="359" on="1"/>
        <pt x="414" y="359" on="0"/>
        <pt x="414" y="413" on="1"/>
        <pt x="414" y="581" on="1"/>
        <pt x="414" y="635" on="0"/>
        <pt x="362" y="635" on="1"/>
      </contour>
    </TTGlyph>
    <TTGlyph name="S" xMin="39" yMin="0" xMax="447" yMax="700">
      <contour>
        <pt x="138" y="0" on="1"/>
        <pt x="39" y="27" on="1"/>
        <pt x="56" y="88" on="1"/>
        <pt x="138" y="64" on="1"/>
        <pt x="320" y="64" on="1"/>
        <pt x="346" y="64" on="0"/>
        <pt x="377" y="95" on="0"/>
        <pt x="377" y="123" on="1"/>
        <pt x="377" y="178" on="1"/>
        <pt x="377" y="206" on="0"/>
        <pt x="367" y="228" on="0"/>
        <pt x="344" y="244" on="1"/>
        <pt x="105" y="411" on="1"/>
        <pt x="47" y="452" on="0"/>
        <pt x="47" y="518" on="1"/>
        <pt x="47" y="575" on="1"/>
        <pt x="47" y="632" on="0"/>
        <pt x="114" y="700" on="0"/>
        <pt x="172" y="700" on="1"/>
        <pt x="330" y="700" on="1"/>
        <pt x="429" y="672" on="1"/>
        <pt x="412" y="611" on="1"/>
        <pt x="330" y="635" on="1"/>
        <pt x="174" y="635" on="1"/>
        <pt x="148" y="635" on="0"/>
        <pt x="117" y="605" on="0"/>
        <pt x="117" y="576" on="1"/>
        <pt x="117" y="526" on="1"/>
        <pt x="117" y="500" on="0"/>
        <pt x="129" y="476" on="0"/>
        <pt x="150" y="461" on="1"/>
        <pt x="392" y="292" on="1"/>
        <pt x="447" y="254" on="0"/>
        <pt x="447" y="187" on="1"/>
        <pt x="447" y="125" on="1"/>
        <pt x="447" y="67" on="0"/>
        <pt x="381" y="0" on="0"/>
        <pt x="322" y="0" on="1"/>
      </contour>
    </TTGlyph>
    <TTGlyph name="T" xMin="21" yMin="0" xMax="421" yMax="700">
      <contour>
        <pt x="21" y="700" on="1"/>
        <pt x="421" y="700" on="1"/>
        <pt x="421" y="635" on="1"/>
        <pt x="256" y="635" on="1"/>
        <pt x="256" y="0" on="1"/>
        <pt x="186" y="0" on="1"/>
        <pt x="186" y="635" on="1"/>
        <pt x="21" y="635" on="1"/>
      </contour>
    </TTGlyph>
    <TTGlyph name="Thorn" xMin="81" yMin="0" xMax="479" yMax="700">
      <contour>
        <pt x="81" y="700" on="1"/>
        <pt x="151" y="700" on="1"/>
        <pt x="151" y="610" on="1"/>
        <pt x="359" y="610" on="1"/>
        <pt x="417" y="610" on="0"/>
        <pt x="479" y="547" on="0"/>
        <pt x="479" y="490" on="1"/>
        <pt x="479" y="305" on="1"/>
        <pt x="479" y="248" on="0"/>
        <pt x="417" y="185" on="0"/>
        <pt x="359" y="185" on="1"/>
        <pt x="151" y="185" on="1"/>
        <pt x="151" y="0" on="1"/>
        <pt x="81" y="0" on="1"/>
      </contour>
      <contour>
        <pt x="151" y="545" on="1"/>
        <pt x="151" y="249" on="1"/>
        <pt x="357" y="249" on="1"/>
        <pt x="409" y="249" on="0"/>
        <pt x="409" y="303" on="1"/>
        <pt x="409" y="491" on="1"/>
        <pt x="409" y="545" on="0"/>
        <pt x="357" y="545" on="1"/>
      </contour>
    </TTGlyph>
    <TTGlyph name="U" xMin="81" yMin="0" xMax="502" yMax="700">
      <contour>
        <pt x="432" y="700" on="1"/>
        <pt x="502" y="700" on="1"/>
        <pt x="502" y="120" on="1"/>
        <pt x="502" y="62" on="0"/>
        <pt x="441" y="0" on="0"/>
        <pt x="382" y="0" on="1"/>
        <pt x="201" y="0" on="1"/>
        <pt x="142" y="0" on="0"/>
        <pt x="81" y="62" on="0"/>
        <pt x="81" y="120" on="1"/>
        <pt x="81" y="700" on="1"/>
        <pt x="151" y="700" on="1"/>
        <pt x="151" y="118" on="1"/>
        <pt x="151" y="64" on="0"/>
        <pt x="203" y="64" on="1"/>
        <pt x="380" y="64" on="1"/>
        <pt x="432" y="64" on="0"/>
        <pt x="432" y="118" on="1"/>
      </contour>
    </TTGlyph>
    <TTGlyph name="Uacute" xMin="81" yMin="0" xMax="502" yMax="875">
      <component glyphName="U" x="0" y="0" flags="0x204"/>
      <component glyphName="acute.case" x="200" y="-21" flags="0x4"/>
    </TTGlyph>
    <TTGlyph name="Ucircumflex" xMin="81" yMin="0" xMax="502" yMax="904">
      <component glyphName="U" x="0" y="0" flags="0x204"/>
      <component glyphName="circumflex" x="72" y="-21" flags="0x4"/>
    </TTGlyph>
    <TTGlyph name="Udieresis" xMin="81" yMin="0" xMax="502" yMax="883">
      <component glyphName="U" x="0" y="0" flags="0x204"/>
      <component glyphName="dieresis" x="88" y="-21" flags="0x4"/>
    </TTGlyph>
    <TTGlyph name="Ugrave" xMin="81" yMin="0" xMax="502" yMax="875">
      <component glyphName="U" x="0" y="0" flags="0x204"/>
      <component glyphName="grave.case" x="97" y="-21" flags="0x4"/>
    </TTGlyph>
    <TTGlyph name="V" xMin="21" yMin="0" xMax="491" yMax="707">
      <contour>
        <pt x="414" y="627" on="1"/>
        <pt x="424" y="707" on="1"/>
        <pt x="491" y="698" on="1"/>
        <pt x="481" y="619" on="1"/>
        <pt x="301" y="0" on="1"/>
        <pt x="225" y="0" on="1"/>
        <pt x="21" y="700" on="1"/>
        <pt x="91" y="700" on="1"/>
        <pt x="242" y="176" on="1"/>
        <pt x="261" y="80" on="1"/>
        <pt x="264" y="80" on="1"/>
        <pt x="284" y="176" on="1"/>
      </contour>
    </TTGlyph>
    <TTGlyph name="W" xMin="21" yMin="0" xMax="815" yMax="707">
      <contour>
        <pt x="738" y="627" on="1"/>
        <pt x="748" y="707" on="1"/>
        <pt x="815" y="698" on="1"/>
        <pt x="805" y="619" on="1"/>
        <pt x="645" y="0" on="1"/>
        <pt x="564" y="0" on="1"/>
        <pt x="455" y="438" on="1"/>
        <pt x="427" y="605" on="1"/>
        <pt x="423" y="605" on="1"/>
        <pt x="395" y="438" on="1"/>
        <pt x="286" y="0" on="1"/>
        <pt x="205" y="0" on="1"/>
        <pt x="21" y="700" on="1"/>
        <pt x="91" y="700" on="1"/>
        <pt x="222" y="198" on="1"/>
        <pt x="246" y="82" on="1"/>
        <pt x="249" y="82" on="1"/>
        <pt x="267" y="198" on="1"/>
        <pt x="390" y="700" on="1"/>
        <pt x="460" y="700" on="1"/>
        <pt x="583" y="198" on="1"/>
        <pt x="606" y="82" on="1"/>
        <pt x="609" y="82" on="1"/>
        <pt x="633" y="198" on="1"/>
      </contour>
    </TTGlyph>
    <TTGlyph name="X" xMin="21" yMin="0" xMax="486" yMax="707">
      <contour>
        <pt x="426" y="619" on="1"/>
        <pt x="304" y="369" on="1"/>
        <pt x="486" y="0" on="1"/>
        <pt x="412" y="0" on="1"/>
        <pt x="255" y="318" on="1"/>
        <pt x="251" y="318" on="1"/>
        <pt x="95" y="0" on="1"/>
        <pt x="21" y="0" on="1"/>
        <pt x="203" y="369" on="1"/>
        <pt x="41" y="700" on="1"/>
        <pt x="116" y="700" on="1"/>
        <pt x="252" y="421" on="1"/>
        <pt x="256" y="421" on="1"/>
        <pt x="362" y="642" on="1"/>
        <pt x="380" y="707" on="1"/>
        <pt x="453" y="698" on="1"/>
      </contour>
    </TTGlyph>
    <TTGlyph name="Y" xMin="23" yMin="0" xMax="463" yMax="707">
      <contour>
        <pt x="436" y="619" on="1"/>
        <pt x="283" y="288" on="1"/>
        <pt x="283" y="0" on="1"/>
        <pt x="213" y="0" on="1"/>
        <pt x="213" y="288" on="1"/>
        <pt x="23" y="700" on="1"/>
        <pt x="94" y="700" on="1"/>
        <pt x="247" y="355" on="1"/>
        <pt x="251" y="355" on="1"/>
        <pt x="372" y="631" on="1"/>
        <pt x="392" y="707" on="1"/>
        <pt x="463" y="698" on="1"/>
      </contour>
    </TTGlyph>
    <TTGlyph name="Yacute" xMin="23" yMin="0" xMax="463" yMax="875">
      <component glyphName="Y" x="0" y="0" flags="0x204"/>
      <component glyphName="acute.case" x="157" y="-21" flags="0x4"/>
    </TTGlyph>
    <TTGlyph name="Z" xMin="36" yMin="0" xMax="449" yMax="700">
      <contour>
        <pt x="364" y="635" on="1"/>
        <pt x="46" y="635" on="1"/>
        <pt x="46" y="700" on="1"/>
        <pt x="443" y="700" on="1"/>
        <pt x="443" y="635" on="1"/>
        <pt x="115" y="64" on="1"/>
        <pt x="449" y="64" on="1"/>
        <pt x="449" y="0" on="1"/>
        <pt x="36" y="0" on="1"/>
        <pt x="36" y="64" on="1"/>
      </contour>
    </TTGlyph>
    <TTGlyph name="a" xMin="49" yMin="-8" xMax="410" yMax="500">
      <contour>
        <pt x="65" y="472" on="1"/>
        <pt x="165" y="500" on="1"/>
        <pt x="279" y="500" on="1"/>
        <pt x="338" y="500" on="0"/>
        <pt x="399" y="437" on="0"/>
        <pt x="399" y="380" on="1"/>
        <pt x="399" y="79" on="1"/>
        <pt x="410" y="0" on="1"/>
        <pt x="341" y="-8" on="1"/>
        <pt x="330" y="81" on="1"/>
        <pt x="218" y="0" on="1"/>
        <pt x="169" y="0" on="1"/>
        <pt x="111" y="0" on="0"/>
        <pt x="49" y="63" on="0"/>
        <pt x="49" y="120" on="1"/>
        <pt x="49" y="181" on="1"/>
        <pt x="49" y="238" on="0"/>
        <pt x="111" y="301" on="0"/>
        <pt x="169" y="301" on="1"/>
        <pt x="329" y="301" on="1"/>
        <pt x="329" y="381" on="1"/>
        <pt x="329" y="435" on="0"/>
        <pt x="277" y="435" on="1"/>
        <pt x="165" y="435" on="1"/>
        <pt x="83" y="411" on="1"/>
      </contour>
      <contour>
        <pt x="171" y="64" on="1"/>
        <pt x="200" y="64" on="1"/>
        <pt x="329" y="158" on="1"/>
        <pt x="329" y="239" on="1"/>
        <pt x="171" y="239" on="1"/>
        <pt x="119" y="239" on="0"/>
        <pt x="119" y="185" on="1"/>
        <pt x="119" y="118" on="1"/>
        <pt x="119" y="64" on="0"/>
      </contour>
    </TTGlyph>
    <TTGlyph name="aacute" xMin="49" yMin="-8" xMax="410" yMax="714">
      <component glyphName="a" x="0" y="0" flags="0x204"/>
      <component glyphName="acute" x="145" y="-201" flags="0x4"/>
    </TTGlyph>
    <TTGlyph name="acircumflex" xMin="49" yMin="-8" xMax="410" yMax="724">
      <component glyphName="a" x="0" y="0" flags="0x204"/>
      <component glyphName="circumflex" x="17" y="-201" flags="0x4"/>
    </TTGlyph>
    <TTGlyph name="acute" xMin="51" yMin="750" xMax="226" yMax="915">
      <contour>
        <pt x="51" y="778" on="1"/>
        <pt x="180" y="915" on="1"/>
        <pt x="221" y="900" on="0"/>
        <pt x="226" y="861" on="1"/>
        <pt x="79" y="750" on="1"/>
      </contour>
    </TTGlyph>
    <TTGlyph name="acute.case" xMin="44" yMin="782" xMax="242" yMax="896">
      <contour>
        <pt x="216" y="896" on="1"/>
        <pt x="242" y="875" on="0"/>
        <pt x="242" y="846" on="1"/>
        <pt x="242" y="837" on="0"/>
        <pt x="239" y="827" on="1"/>
        <pt x="60" y="782" on="1"/>
        <pt x="44" y="820" on="1"/>
      </contour>
    </TTGlyph>
    <TTGlyph name="adieresis" xMin="49" yMin="-8" xMax="410" yMax="703">
      <component glyphName="a" x="0" y="0" flags="0x204"/>
      <component glyphName="dieresis" x="33" y="-201" flags="0x4"/>
    </TTGlyph>
    <TTGlyph name="ae" xMin="49" yMin="0" xMax="665" yMax="500">
      <contour>
        <pt x="65" y="472" on="1"/>
        <pt x="165" y="500" on="1"/>
        <pt x="279" y="500" on="1"/>
        <pt x="340" y="500" on="0"/>
        <pt x="362" y="462" on="1"/>
        <pt x="366" y="462" on="1"/>
        <pt x="384" y="500" on="0"/>
        <pt x="449" y="500" on="1"/>
        <pt x="545" y="500" on="1"/>
        <pt x="603" y="500" on="0"/>
        <pt x="665" y="437" on="0"/>
        <pt x="665" y="380" on="1"/>
        <pt x="665" y="276" on="1"/>
        <pt x="609" y="227" on="1"/>
        <pt x="399" y="227" on="1"/>
        <pt x="399" y="118" on="1"/>
        <pt x="399" y="64" on="0"/>
        <pt x="451" y="64" on="1"/>
        <pt x="556" y="64" on="1"/>
        <pt x="638" y="88" on="1"/>
        <pt x="655" y="27" on="1"/>
        <pt x="557" y="0" on="1"/>
        <pt x="449" y="0" on="1"/>
        <pt x="352" y="0" on="0"/>
        <pt x="333" y="82" on="1"/>
        <pt x="218" y="0" on="1"/>
        <pt x="169" y="0" on="1"/>
        <pt x="111" y="0" on="0"/>
        <pt x="49" y="63" on="0"/>
        <pt x="49" y="120" on="1"/>
        <pt x="49" y="181" on="1"/>
        <pt x="49" y="301" on="0"/>
        <pt x="187" y="301" on="1"/>
        <pt x="329" y="301" on="1"/>
        <pt x="329" y="381" on="1"/>
        <pt x="329" y="435" on="0"/>
        <pt x="277" y="435" on="1"/>
        <pt x="165" y="435" on="1"/>
        <pt x="83" y="411" on="1"/>
      </contour>
      <contour>
        <pt x="171" y="64" on="1"/>
        <pt x="200" y="64" on="1"/>
        <pt x="329" y="158" on="1"/>
        <pt x="329" y="239" on="1"/>
        <pt x="181" y="239" on="1"/>
        <pt x="149" y="239" on="0"/>
        <pt x="119" y="216" on="0"/>
        <pt x="119" y="185" on="1"/>
        <pt x="119" y="118" on="1"/>
        <pt x="119" y="64" on="0"/>
      </contour>
      <contour>
        <pt x="399" y="384" on="1"/>
        <pt x="399" y="291" on="1"/>
        <pt x="581" y="291" on="1"/>
        <pt x="595" y="302" on="1"/>
        <pt x="595" y="381" on="1"/>
        <pt x="595" y="412" on="0"/>
        <pt x="565" y="435" on="0"/>
        <pt x="533" y="435" on="1"/>
        <pt x="461" y="435" on="1"/>
        <pt x="429" y="435" on="0"/>
        <pt x="399" y="413" on="0"/>
      </contour>
    </TTGlyph>
    <TTGlyph name="agrave" xMin="49" yMin="-8" xMax="410" yMax="714">
      <component glyphName="a" x="0" y="0" flags="0x204"/>
      <component glyphName="grave" x="42" y="-201" flags="0x4"/>
    </TTGlyph>
    <TTGlyph name="ampersand" xMin="31" yMin="0" xMax="486" yMax="700">
      <contour>
        <pt x="341" y="372" on="1"/>
        <pt x="262" y="372" on="1"/>
        <pt x="262" y="437" on="1"/>
        <pt x="486" y="437" on="1"/>
        <pt x="486" y="372" on="1"/>
        <pt x="411" y="372" on="1"/>
        <pt x="411" y="26" on="1"/>
        <pt x="328" y="4" on="1"/>
        <pt x="322" y="2" on="0"/>
        <pt x="314" y="0" on="1"/>
        <pt x="151" y="0" on="1"/>
        <pt x="92" y="0" on="0"/>
        <pt x="31" y="62" on="0"/>
        <pt x="31" y="120" on="1"/>
        <pt x="31" y="300" on="1"/>
        <pt x="31" y="390" on="0"/>
        <pt x="105" y="412" on="1"/>
        <pt x="117" y="412" on="1"/>
        <pt x="117" y="416" on="1"/>
        <pt x="105" y="416" on="1"/>
        <pt x="54" y="442" on="0"/>
        <pt x="54" y="513" on="1"/>
        <pt x="54" y="580" on="1"/>
        <pt x="54" y="637" on="0"/>
        <pt x="116" y="700" on="0"/>
        <pt x="174" y="700" on="1"/>
        <pt x="310" y="700" on="1"/>
        <pt x="410" y="672" on="1"/>
        <pt x="392" y="611" on="1"/>
        <pt x="310" y="635" on="1"/>
        <pt x="176" y="635" on="1"/>
        <pt x="124" y="635" on="0"/>
        <pt x="124" y="581" on="1"/>
        <pt x="124" y="514" on="1"/>
        <pt x="124" y="437" on="0"/>
        <pt x="186" y="437" on="1"/>
        <pt x="243" y="437" on="1"/>
        <pt x="243" y="372" on="1"/>
        <pt x="180" y="372" on="1"/>
        <pt x="101" y="372" on="0"/>
        <pt x="101" y="308" on="1"/>
        <pt x="101" y="118" on="1"/>
        <pt x="101" y="64" on="0"/>
        <pt x="153" y="64" on="1"/>
        <pt x="314" y="64" on="1"/>
        <pt x="341" y="72" on="1"/>
      </contour>
    </TTGlyph>
    <TTGlyph name="aring" xMin="49" yMin="-8" xMax="410" yMax="743">
      <component glyphName="a" x="0" y="0" flags="0x204"/>
      <component glyphName="ring" x="37" y="-201" flags="0x4"/>
    </TTGlyph>
    <TTGlyph name="asciicircum" xMin="2" yMin="449" xMax="338" yMax="700">
      <contour>
        <pt x="169" y="619" on="1"/>
        <pt x="69" y="449" on="1"/>
        <pt x="2" y="449" on="1"/>
        <pt x="150" y="700" on="1"/>
        <pt x="190" y="700" on="1"/>
        <pt x="338" y="449" on="1"/>
        <pt x="270" y="449" on="1"/>
      </contour>
    </TTGlyph>
    <TTGlyph name="asciitilde" xMin="44" yMin="304" xMax="406" yMax="448">
      <contour>
        <pt x="55" y="363" on="1"/>
        <pt x="55" y="373" on="1"/>
        <pt x="55" y="401" on="0"/>
        <pt x="94" y="440" on="0"/>
        <pt x="121" y="440" on="1"/>
        <pt x="149" y="440" on="1"/>
        <pt x="175" y="440" on="0"/>
        <pt x="201" y="423" on="1"/>
        <pt x="282" y="375" on="1"/>
        <pt x="290" y="371" on="0"/>
        <pt x="295" y="371" on="1"/>
        <pt x="320" y="371" on="1"/>
        <pt x="338" y="371" on="0"/>
        <pt x="338" y="388" on="1"/>
        <pt x="338" y="395" on="1"/>
        <pt x="352" y="448" on="1"/>
        <pt x="406" y="432" on="1"/>
        <pt x="395" y="388" on="1"/>
        <pt x="395" y="379" on="1"/>
        <pt x="395" y="350" on="0"/>
        <pt x="356" y="312" on="0"/>
        <pt x="329" y="312" on="1"/>
        <pt x="301" y="312" on="1"/>
        <pt x="275" y="312" on="0"/>
        <pt x="249" y="328" on="1"/>
        <pt x="168" y="376" on="1"/>
        <pt x="160" y="381" on="0"/>
        <pt x="154" y="381" on="1"/>
        <pt x="129" y="381" on="1"/>
        <pt x="112" y="381" on="0"/>
        <pt x="112" y="364" on="1"/>
        <pt x="112" y="357" on="1"/>
        <pt x="98" y="304" on="1"/>
        <pt x="44" y="319" on="1"/>
      </contour>
    </TTGlyph>
    <TTGlyph name="asterisk" xMin="58" yMin="391" xMax="391" yMax="710">
      <contour>
        <pt x="299" y="391" on="1"/>
        <pt x="224" y="502" on="1"/>
        <pt x="150" y="391" on="1"/>
        <pt x="103" y="422" on="1"/>
        <pt x="188" y="530" on="1"/>
        <pt x="58" y="567" on="1"/>
        <pt x="74" y="621" on="1"/>
        <pt x="202" y="574" on="1"/>
        <pt x="197" y="710" on="1"/>
        <pt x="252" y="710" on="1"/>
        <pt x="247" y="574" on="1"/>
        <pt x="374" y="621" on="1"/>
        <pt x="391" y="567" on="1"/>
        <pt x="261" y="530" on="1"/>
        <pt x="345" y="422" on="1"/>
      </contour>
    </TTGlyph>
    <TTGlyph name="at" xMin="61" yMin="-85" xMax="700" yMax="594">
      <contour>
        <pt x="422" y="529" on="1"/>
        <pt x="183" y="529" on="1"/>
        <pt x="131" y="529" on="0"/>
        <pt x="131" y="475" on="1"/>
        <pt x="131" y="33" on="1"/>
        <pt x="131" y="-21" on="0"/>
        <pt x="183" y="-21" on="1"/>
        <pt x="578" y="-21" on="1"/>
        <pt x="630" y="-21" on="0"/>
        <pt x="630" y="33" on="1"/>
        <pt x="630" y="390" on="1"/>
        <pt x="700" y="390" on="1"/>
        <pt x="700" y="35" on="1"/>
        <pt x="700" y="-22" on="0"/>
        <pt x="638" y="-85" on="0"/>
        <pt x="580" y="-85" on="1"/>
        <pt x="181" y="-85" on="1"/>
        <pt x="122" y="-85" on="0"/>
        <pt x="61" y="-23" on="0"/>
        <pt x="61" y="35" on="1"/>
        <pt x="61" y="474" on="1"/>
        <pt x="61" y="531" on="0"/>
        <pt x="122" y="594" on="0"/>
        <pt x="181" y="594" on="1"/>
        <pt x="424" y="594" on="1"/>
        <pt x="482" y="594" on="0"/>
        <pt x="544" y="531" on="0"/>
        <pt x="544" y="474" on="1"/>
        <pt x="544" y="173" on="1"/>
        <pt x="554" y="94" on="1"/>
        <pt x="486" y="86" on="1"/>
        <pt x="475" y="175" on="1"/>
        <pt x="363" y="94" on="1"/>
        <pt x="314" y="94" on="1"/>
        <pt x="255" y="94" on="0"/>
        <pt x="194" y="156" on="0"/>
        <pt x="194" y="214" on="1"/>
        <pt x="194" y="275" on="1"/>
        <pt x="194" y="332" on="0"/>
        <pt x="255" y="395" on="0"/>
        <pt x="314" y="395" on="1"/>
        <pt x="474" y="395" on="1"/>
        <pt x="474" y="475" on="1"/>
        <pt x="474" y="529" on="0"/>
      </contour>
      <contour>
        <pt x="316" y="158" on="1"/>
        <pt x="345" y="158" on="1"/>
        <pt x="474" y="252" on="1"/>
        <pt x="474" y="333" on="1"/>
        <pt x="316" y="333" on="1"/>
        <pt x="264" y="333" on="0"/>
        <pt x="264" y="279" on="1"/>
        <pt x="264" y="212" on="1"/>
        <pt x="264" y="158" on="0"/>
      </contour>
    </TTGlyph>
    <TTGlyph name="atilde" xMin="49" yMin="-8" xMax="410" yMax="714">
      <component glyphName="a" x="0" y="0" flags="0x204"/>
      <component glyphName="tilde" x="-7" y="-201" flags="0x4"/>
    </TTGlyph>
    <TTGlyph name="b" xMin="60" yMin="-10" xMax="421" yMax="750">
      <contour>
        <pt x="301" y="-10" on="1"/>
        <pt x="71" y="11" on="1"/>
        <pt x="71" y="659" on="1"/>
        <pt x="60" y="741" on="1"/>
        <pt x="129" y="750" on="1"/>
        <pt x="141" y="658" on="1"/>
        <pt x="141" y="456" on="1"/>
        <pt x="253" y="500" on="1"/>
        <pt x="301" y="500" on="1"/>
        <pt x="359" y="500" on="0"/>
        <pt x="421" y="437" on="0"/>
        <pt x="421" y="380" on="1"/>
        <pt x="421" y="110" on="1"/>
        <pt x="421" y="53" on="0"/>
        <pt x="359" y="-10" on="0"/>
      </contour>
      <contour>
        <pt x="258" y="435" on="1"/>
        <pt x="141" y="389" on="1"/>
        <pt x="141" y="68" on="1"/>
        <pt x="299" y="54" on="1"/>
        <pt x="351" y="54" on="0"/>
        <pt x="351" y="108" on="1"/>
        <pt x="351" y="381" on="1"/>
        <pt x="351" y="435" on="0"/>
        <pt x="299" y="435" on="1"/>
      </contour>
    </TTGlyph>
    <TTGlyph name="backslash" xMin="-7" yMin="-249" xMax="415" yMax="719">
      <contour>
        <pt x="415" y="-225" on="1"/>
        <pt x="355" y="-249" on="1"/>
        <pt x="-7" y="695" on="1"/>
        <pt x="53" y="719" on="1"/>
      </contour>
    </TTGlyph>
    <TTGlyph name="bar" xMin="82" yMin="-230" xMax="142" yMax="786">
      <contour>
        <pt x="82" y="-230" on="1"/>
        <pt x="82" y="786" on="1"/>
        <pt x="142" y="786" on="1"/>
        <pt x="142" y="-230" on="1"/>
      </contour>
    </TTGlyph>
    <TTGlyph name="braceleft" xMin="21" yMin="-230" xMax="290" yMax="786">
      <contour>
        <pt x="21" y="273" on="1"/>
        <pt x="21" y="333" on="1"/>
        <pt x="96" y="333" on="0"/>
        <pt x="96" y="407" on="1"/>
        <pt x="96" y="666" on="1"/>
        <pt x="96" y="723" on="0"/>
        <pt x="157" y="786" on="0"/>
        <pt x="216" y="786" on="1"/>
        <pt x="290" y="786" on="1"/>
        <pt x="290" y="726" on="1"/>
        <pt x="234" y="726" on="1"/>
        <pt x="195" y="726" on="0"/>
        <pt x="158" y="702" on="0"/>
        <pt x="158" y="667" on="1"/>
        <pt x="158" y="392" on="1"/>
        <pt x="158" y="363" on="0"/>
        <pt x="135" y="312" on="0"/>
        <pt x="112" y="305" on="1"/>
        <pt x="100" y="305" on="1"/>
        <pt x="100" y="301" on="1"/>
        <pt x="112" y="301" on="1"/>
        <pt x="135" y="294" on="0"/>
        <pt x="158" y="244" on="0"/>
        <pt x="158" y="214" on="1"/>
        <pt x="158" y="-112" on="1"/>
        <pt x="158" y="-147" on="0"/>
        <pt x="195" y="-171" on="0"/>
        <pt x="234" y="-171" on="1"/>
        <pt x="290" y="-171" on="1"/>
        <pt x="290" y="-230" on="1"/>
        <pt x="232" y="-230" on="1"/>
        <pt x="159" y="-230" on="0"/>
        <pt x="96" y="-165" on="0"/>
        <pt x="96" y="-91" on="1"/>
        <pt x="96" y="180" on="1"/>
        <pt x="96" y="231" on="0"/>
        <pt x="65" y="273" on="0"/>
      </contour>
    </TTGlyph>
    <TTGlyph name="braceright" xMin="26" yMin="-230" xMax="295" yMax="786">
      <contour>
        <pt x="295" y="333" on="1"/>
        <pt x="295" y="273" on="1"/>
        <pt x="257" y="273" on="0"/>
        <pt x="220" y="238" on="0"/>
        <pt x="220" y="199" on="1"/>
        <pt x="220" y="-110" on="1"/>
        <pt x="220" y="-167" on="0"/>
        <pt x="158" y="-230" on="0"/>
        <pt x="100" y="-230" on="1"/>
        <pt x="26" y="-230" on="1"/>
        <pt x="26" y="-171" on="1"/>
        <pt x="82" y="-171" on="1"/>
        <pt x="121" y="-171" on="0"/>
        <pt x="157" y="-147" on="0"/>
        <pt x="157" y="-112" on="1"/>
        <pt x="157" y="214" on="1"/>
        <pt x="157" y="243" on="0"/>
        <pt x="180" y="294" on="0"/>
        <pt x="204" y="301" on="1"/>
        <pt x="216" y="301" on="1"/>
        <pt x="216" y="305" on="1"/>
        <pt x="204" y="305" on="1"/>
        <pt x="181" y="312" on="0"/>
        <pt x="157" y="363" on="0"/>
        <pt x="157" y="392" on="1"/>
        <pt x="157" y="667" on="1"/>
        <pt x="157" y="702" on="0"/>
        <pt x="121" y="726" on="0"/>
        <pt x="82" y="726" on="1"/>
        <pt x="26" y="726" on="1"/>
        <pt x="26" y="786" on="1"/>
        <pt x="83" y="786" on="1"/>
        <pt x="151" y="786" on="0"/>
        <pt x="220" y="729" on="0"/>
        <pt x="220" y="666" on="1"/>
        <pt x="220" y="407" on="1"/>
        <pt x="220" y="333" on="0"/>
      </contour>
    </TTGlyph>
    <TTGlyph name="bracketleft" xMin="86" yMin="-230" xMax="246" yMax="786">
      <contour>
        <pt x="86" y="786" on="1"/>
        <pt x="246" y="786" on="1"/>
        <pt x="246" y="729" on="1"/>
        <pt x="148" y="729" on="1"/>
        <pt x="148" y="-173" on="1"/>
        <pt x="246" y="-173" on="1"/>
        <pt x="246" y="-230" on="1"/>
        <pt x="86" y="-230" on="1"/>
      </contour>
    </TTGlyph>
    <TTGlyph name="bracketright" xMin="25" yMin="-230" xMax="185" yMax="786">
      <contour>
        <pt x="123" y="729" on="1"/>
        <pt x="25" y="729" on="1"/>
        <pt x="25" y="786" on="1"/>
        <pt x="185" y="786" on="1"/>
        <pt x="185" y="-230" on="1"/>
        <pt x="25" y="-230" on="1"/>
        <pt x="25" y="-173" on="1"/>
        <pt x="123" y="-173" on="1"/>
      </contour>
    </TTGlyph>
    <TTGlyph name="brokenbar" xMin="82" yMin="-230" xMax="142" yMax="700">
      <contour>
        <pt x="82" y="310" on="1"/>
        <pt x="82" y="700" on="1"/>
        <pt x="142" y="700" on="1"/>
        <pt x="142" y="310" on="1"/>
      </contour>
      <contour>
        <pt x="82" y="-230" on="1"/>
        <pt x="82" y="160" on="1"/>
        <pt x="142" y="160" on="1"/>
        <pt x="142" y="-230" on="1"/>
      </contour>
    </TTGlyph>
    <TTGlyph name="bullet" xMin="66" yMin="283" xMax="213" yMax="430">
      <contour>
        <pt x="154" y="283" on="1"/>
        <pt x="125" y="283" on="1"/>
        <pt x="100" y="283" on="0"/>
        <pt x="66" y="317" on="0"/>
        <pt x="66" y="342" on="1"/>
        <pt x="66" y="371" on="1"/>
        <pt x="66" y="396" on="0"/>
        <pt x="100" y="430" on="0"/>
        <pt x="125" y="430" on="1"/>
        <pt x="154" y="430" on="1"/>
        <pt x="179" y="430" on="0"/>
        <pt x="213" y="396" on="0"/>
        <pt x="213" y="371" on="1"/>
        <pt x="213" y="342" on="1"/>
        <pt x="213" y="317" on="0"/>
        <pt x="179" y="283" on="0"/>
      </contour>
    </TTGlyph>
    <TTGlyph name="c" xMin="61" yMin="0" xMax="395" yMax="500">
      <contour>
        <pt x="181" y="500" on="1"/>
        <pt x="291" y="500" on="1"/>
        <pt x="390" y="472" on="1"/>
        <pt x="373" y="411" on="1"/>
        <pt x="291" y="435" on="1"/>
        <pt x="183" y="435" on="1"/>
        <pt x="131" y="435" on="0"/>
        <pt x="131" y="381" on="1"/>
        <pt x="131" y="118" on="1"/>
        <pt x="131" y="64" on="0"/>
        <pt x="183" y="64" on="1"/>
        <pt x="296" y="64" on="1"/>
        <pt x="378" y="88" on="1"/>
        <pt x="395" y="27" on="1"/>
        <pt x="296" y="0" on="1"/>
        <pt x="181" y="0" on="1"/>
        <pt x="122" y="0" on="0"/>
        <pt x="61" y="62" on="0"/>
        <pt x="61" y="120" on="1"/>
        <pt x="61" y="380" on="1"/>
        <pt x="61" y="437" on="0"/>
        <pt x="122" y="500" on="0"/>
      </contour>
    </TTGlyph>
    <TTGlyph name="caron" xMin="97" yMin="779" xMax="379" yMax="930">
      <contour>
        <pt x="97" y="906" on="1"/>
        <pt x="127" y="930" on="1"/>
        <pt x="236" y="845" on="1"/>
        <pt x="240" y="845" on="1"/>
        <pt x="349" y="930" on="1"/>
        <pt x="379" y="906" on="1"/>
        <pt x="267" y="784" on="1"/>
        <pt x="252" y="779" on="0"/>
        <pt x="223" y="780" on="0"/>
        <pt x="208" y="784" on="1"/>
      </contour>
    </TTGlyph>
    <TTGlyph name="ccedilla" xMin="61" yMin="-224" xMax="395" yMax="500">
      <contour>
        <pt x="156" y="-158" on="1"/>
        <pt x="206" y="-170" on="1"/>
        <pt x="291" y="-170" on="1"/>
        <pt x="313" y="-170" on="0"/>
        <pt x="313" y="-145" on="1"/>
        <pt x="313" y="-121" on="1"/>
        <pt x="313" y="-95" on="0"/>
        <pt x="291" y="-95" on="1"/>
        <pt x="262" y="-95" on="1"/>
        <pt x="234" y="-95" on="0"/>
        <pt x="219" y="-108" on="1"/>
        <pt x="168" y="-96" on="1"/>
        <pt x="200" y="0" on="1"/>
        <pt x="181" y="0" on="1"/>
        <pt x="122" y="0" on="0"/>
        <pt x="61" y="62" on="0"/>
        <pt x="61" y="120" on="1"/>
        <pt x="61" y="380" on="1"/>
        <pt x="61" y="437" on="0"/>
        <pt x="122" y="500" on="0"/>
        <pt x="181" y="500" on="1"/>
        <pt x="291" y="500" on="1"/>
        <pt x="390" y="472" on="1"/>
        <pt x="373" y="411" on="1"/>
        <pt x="291" y="435" on="1"/>
        <pt x="183" y="435" on="1"/>
        <pt x="131" y="435" on="0"/>
        <pt x="131" y="381" on="1"/>
        <pt x="131" y="118" on="1"/>
        <pt x="131" y="64" on="0"/>
        <pt x="183" y="64" on="1"/>
        <pt x="296" y="64" on="1"/>
        <pt x="378" y="88" on="1"/>
        <pt x="395" y="27" on="1"/>
        <pt x="296" y="0" on="1"/>
        <pt x="257" y="0" on="1"/>
        <pt x="249" y="-23" on="1"/>
        <pt x="226" y="-50" on="1"/>
        <pt x="229" y="-53" on="1"/>
        <pt x="246" y="-42" on="0"/>
        <pt x="263" y="-42" on="1"/>
        <pt x="284" y="-42" on="1"/>
        <pt x="370" y="-42" on="0"/>
        <pt x="370" y="-121" on="1"/>
        <pt x="370" y="-135" on="1"/>
        <pt x="370" y="-182" on="0"/>
        <pt x="331" y="-224" on="0"/>
        <pt x="283" y="-224" on="1"/>
        <pt x="206" y="-224" on="1"/>
        <pt x="145" y="-210" on="1"/>
      </contour>
    </TTGlyph>
    <TTGlyph name="cedilla" xMin="28" yMin="-224" xMax="253" yMax="0">
      <contour>
        <pt x="39" y="-158" on="1"/>
        <pt x="89" y="-170" on="1"/>
        <pt x="174" y="-170" on="1"/>
        <pt x="196" y="-170" on="0"/>
        <pt x="196" y="-145" on="1"/>
        <pt x="196" y="-121" on="1"/>
        <pt x="196" y="-95" on="0"/>
        <pt x="174" y="-95" on="1"/>
        <pt x="145" y="-95" on="1"/>
        <pt x="117" y="-95" on="0"/>
        <pt x="102" y="-108" on="1"/>
        <pt x="51" y="-96" on="1"/>
        <pt x="83" y="0" on="1"/>
        <pt x="140" y="0" on="1"/>
        <pt x="132" y="-23" on="1"/>
        <pt x="109" y="-50" on="1"/>
        <pt x="112" y="-53" on="1"/>
        <pt x="129" y="-42" on="0"/>
        <pt x="146" y="-42" on="1"/>
        <pt x="167" y="-42" on="1"/>
        <pt x="253" y="-42" on="0"/>
        <pt x="253" y="-121" on="1"/>
        <pt x="253" y="-135" on="1"/>
        <pt x="253" y="-182" on="0"/>
        <pt x="214" y="-224" on="0"/>
        <pt x="166" y="-224" on="1"/>
        <pt x="89" y="-224" on="1"/>
        <pt x="28" y="-210" on="1"/>
      </contour>
    </TTGlyph>
    <TTGlyph name="cent" xMin="61" yMin="-20" xMax="395" yMax="520">
      <contour>
        <pt x="181" y="460" on="1"/>
        <pt x="201" y="460" on="1"/>
        <pt x="201" y="520" on="1"/>
        <pt x="256" y="520" on="1"/>
        <pt x="256" y="460" on="1"/>
        <pt x="291" y="460" on="1"/>
        <pt x="390" y="432" on="1"/>
        <pt x="373" y="371" on="1"/>
        <pt x="291" y="395" on="1"/>
        <pt x="183" y="395" on="1"/>
        <pt x="131" y="395" on="0"/>
        <pt x="131" y="341" on="1"/>
        <pt x="131" y="158" on="1"/>
        <pt x="131" y="104" on="0"/>
        <pt x="183" y="104" on="1"/>
        <pt x="296" y="104" on="1"/>
        <pt x="378" y="128" on="1"/>
        <pt x="395" y="67" on="1"/>
        <pt x="296" y="40" on="1"/>
        <pt x="256" y="40" on="1"/>
        <pt x="256" y="-20" on="1"/>
        <pt x="201" y="-20" on="1"/>
        <pt x="201" y="40" on="1"/>
        <pt x="181" y="40" on="1"/>
        <pt x="122" y="40" on="0"/>
        <pt x="61" y="102" on="0"/>
        <pt x="61" y="160" on="1"/>
        <pt x="61" y="340" on="1"/>
        <pt x="61" y="397" on="0"/>
        <pt x="122" y="460" on="0"/>
      </contour>
    </TTGlyph>
    <TTGlyph name="circumflex" xMin="78" yMin="771" xMax="360" yMax="925">
      <contour>
        <pt x="249" y="917" on="1"/>
        <pt x="360" y="795" on="1"/>
        <pt x="330" y="771" on="1"/>
        <pt x="221" y="856" on="1"/>
        <pt x="217" y="856" on="1"/>
        <pt x="108" y="771" on="1"/>
        <pt x="78" y="795" on="1"/>
        <pt x="190" y="917" on="1"/>
        <pt x="217" y="925" on="0"/>
      </contour>
    </TTGlyph>
    <TTGlyph name="colon" xMin="76" yMin="-3" xMax="170" yMax="456">
      <contour>
        <pt x="132" y="-3" on="1"/>
        <pt x="114" y="-3" on="1"/>
        <pt x="98" y="-3" on="0"/>
        <pt x="76" y="18" on="0"/>
        <pt x="76" y="35" on="1"/>
        <pt x="76" y="53" on="1"/>
        <pt x="76" y="70" on="0"/>
        <pt x="97" y="91" on="0"/>
        <pt x="114" y="91" on="1"/>
        <pt x="132" y="91" on="1"/>
        <pt x="149" y="91" on="0"/>
        <pt x="170" y="70" on="0"/>
        <pt x="170" y="53" on="1"/>
        <pt x="170" y="35" on="1"/>
        <pt x="170" y="18" on="0"/>
        <pt x="149" y="-3" on="0"/>
      </contour>
      <contour>
        <pt x="132" y="362" on="1"/>
        <pt x="114" y="362" on="1"/>
        <pt x="97" y="362" on="0"/>
        <pt x="76" y="383" on="0"/>
        <pt x="76" y="400" on="1"/>
        <pt x="76" y="418" on="1"/>
        <pt x="76" y="434" on="0"/>
        <pt x="98" y="456" on="0"/>
        <pt x="114" y="456" on="1"/>
        <pt x="132" y="456" on="1"/>
        <pt x="149" y="456" on="0"/>
        <pt x="170" y="435" on="0"/>
        <pt x="170" y="418" on="1"/>
        <pt x="170" y="400" on="1"/>
        <pt x="170" y="383" on="0"/>
        <pt x="149" y="362" on="0"/>
      </contour>
    </TTGlyph>
    <TTGlyph name="comma" xMin="73" yMin="-114" xMax="167" yMax="89">
      <contour>
        <pt x="115" y="-5" on="1"/>
        <pt x="73" y="-5" on="0"/>
        <pt x="73" y="33" on="1"/>
        <pt x="73" y="51" on="1"/>
        <pt x="73" y="68" on="0"/>
        <pt x="94" y="89" on="0"/>
        <pt x="111" y="89" on="1"/>
        <pt x="129" y="89" on="1"/>
        <pt x="146" y="89" on="0"/>
        <pt x="167" y="68" on="0"/>
        <pt x="167" y="51" on="1"/>
        <pt x="167" y="0" on="1"/>
        <pt x="126" y="-114" on="1"/>
        <pt x="81" y="-98" on="1"/>
      </contour>
    </TTGlyph>
    <TTGlyph name="copyright" xMin="51" yMin="0" xMax="604" yMax="700">
      <contour>
        <pt x="482" y="635" on="1"/>
        <pt x="173" y="635" on="1"/>
        <pt x="121" y="635" on="0"/>
        <pt x="121" y="581" on="1"/>
        <pt x="121" y="118" on="1"/>
        <pt x="121" y="64" on="0"/>
        <pt x="173" y="64" on="1"/>
        <pt x="482" y="64" on="1"/>
        <pt x="534" y="64" on="0"/>
        <pt x="534" y="118" on="1"/>
        <pt x="534" y="581" on="1"/>
        <pt x="534" y="635" on="0"/>
      </contour>
      <contour>
        <pt x="484" y="0" on="1"/>
        <pt x="171" y="0" on="1"/>
        <pt x="112" y="0" on="0"/>
        <pt x="51" y="62" on="0"/>
        <pt x="51" y="120" on="1"/>
        <pt x="51" y="580" on="1"/>
        <pt x="51" y="637" on="0"/>
        <pt x="112" y="700" on="0"/>
        <pt x="171" y="700" on="1"/>
        <pt x="484" y="700" on="1"/>
        <pt x="542" y="700" on="0"/>
        <pt x="604" y="637" on="0"/>
        <pt x="604" y="580" on="1"/>
        <pt x="604" y="120" on="1"/>
        <pt x="604" y="63" on="0"/>
        <pt x="542" y="0" on="0"/>
      </contour>
      <contour>
        <pt x="288" y="584" on="1"/>
        <pt x="375" y="584" on="1"/>
        <pt x="474" y="557" on="1"/>
        <pt x="457" y="501" on="1"/>
        <pt x="375" y="525" on="1"/>
        <pt x="290" y="525" on="1"/>
        <pt x="233" y="525" on="0"/>
        <pt x="233" y="466" on="1"/>
        <pt x="233" y="233" on="1"/>
        <pt x="233" y="174" on="0"/>
        <pt x="290" y="174" on="1"/>
        <pt x="386" y="174" on="1"/>
        <pt x="468" y="198" on="1"/>
        <pt x="486" y="142" on="1"/>
        <pt x="386" y="114" on="1"/>
        <pt x="288" y="114" on="1"/>
        <pt x="230" y="114" on="0"/>
        <pt x="168" y="177" on="0"/>
        <pt x="168" y="234" on="1"/>
        <pt x="168" y="464" on="1"/>
        <pt x="168" y="521" on="0"/>
        <pt x="230" y="584" on="0"/>
      </contour>
    </TTGlyph>
    <TTGlyph name="currency" xMin="59" yMin="101" xMax="441" yMax="579">
      <contour>
        <pt x="105" y="101" on="1"/>
        <pt x="63" y="143" on="1"/>
        <pt x="101" y="181" on="1"/>
        <pt x="87" y="211" on="0"/>
        <pt x="87" y="250" on="1"/>
        <pt x="87" y="430" on="1"/>
        <pt x="87" y="470" on="0"/>
        <pt x="99" y="495" on="1"/>
        <pt x="59" y="536" on="1"/>
        <pt x="101" y="578" on="1"/>
        <pt x="141" y="538" on="1"/>
        <pt x="168" y="553" on="0"/>
        <pt x="209" y="553" on="1"/>
        <pt x="292" y="553" on="1"/>
        <pt x="332" y="553" on="0"/>
        <pt x="359" y="538" on="1"/>
        <pt x="399" y="579" on="1"/>
        <pt x="441" y="537" on="1"/>
        <pt x="400" y="495" on="1"/>
        <pt x="413" y="467" on="0"/>
        <pt x="413" y="430" on="1"/>
        <pt x="413" y="250" on="1"/>
        <pt x="413" y="210" on="0"/>
        <pt x="399" y="182" on="1"/>
        <pt x="438" y="143" on="1"/>
        <pt x="396" y="101" on="1"/>
        <pt x="357" y="139" on="1"/>
        <pt x="328" y="126" on="0"/>
        <pt x="292" y="126" on="1"/>
        <pt x="209" y="126" on="1"/>
        <pt x="172" y="126" on="0"/>
        <pt x="143" y="139" on="1"/>
      </contour>
      <contour>
        <pt x="292" y="498" on="1"/>
        <pt x="209" y="498" on="1"/>
        <pt x="147" y="498" on="0"/>
        <pt x="147" y="435" on="1"/>
        <pt x="147" y="245" on="1"/>
        <pt x="147" y="181" on="0"/>
        <pt x="209" y="181" on="1"/>
        <pt x="292" y="181" on="1"/>
        <pt x="353" y="181" on="0"/>
        <pt x="353" y="245" on="1"/>
        <pt x="353" y="435" on="1"/>
        <pt x="353" y="498" on="0"/>
      </contour>
    </TTGlyph>
    <TTGlyph name="d" xMin="55" yMin="-9" xMax="416" yMax="752">
      <contour>
        <pt x="209" y="64" on="1"/>
        <pt x="336" y="134" on="1"/>
        <pt x="336" y="413" on="1"/>
        <pt x="222" y="435" on="1"/>
        <pt x="177" y="435" on="1"/>
        <pt x="125" y="435" on="0"/>
        <pt x="125" y="381" on="1"/>
        <pt x="125" y="118" on="1"/>
        <pt x="125" y="64" on="0"/>
        <pt x="177" y="64" on="1"/>
      </contour>
      <contour>
        <pt x="336" y="660" on="1"/>
        <pt x="325" y="743" on="1"/>
        <pt x="394" y="752" on="1"/>
        <pt x="406" y="660" on="1"/>
        <pt x="406" y="78" on="1"/>
        <pt x="416" y="-1" on="1"/>
        <pt x="348" y="-9" on="1"/>
        <pt x="338" y="64" on="1"/>
        <pt x="225" y="0" on="1"/>
        <pt x="175" y="0" on="1"/>
        <pt x="117" y="0" on="0"/>
        <pt x="55" y="63" on="0"/>
        <pt x="55" y="120" on="1"/>
        <pt x="55" y="380" on="1"/>
        <pt x="55" y="437" on="0"/>
        <pt x="117" y="500" on="0"/>
        <pt x="175" y="500" on="1"/>
        <pt x="222" y="500" on="1"/>
        <pt x="336" y="478" on="1"/>
      </contour>
    </TTGlyph>
    <TTGlyph name="degree" xMin="61" yMin="437" xMax="311" yMax="724">
      <contour>
        <pt x="255" y="535" on="1"/>
        <pt x="255" y="607" on="1"/>
        <pt x="255" y="630" on="0"/>
        <pt x="251" y="653" on="0"/>
        <pt x="227" y="673" on="0"/>
        <pt x="204" y="673" on="1"/>
        <pt x="176" y="673" on="1"/>
        <pt x="117" y="673" on="0"/>
        <pt x="117" y="626" on="1"/>
        <pt x="117" y="553" on="1"/>
        <pt x="117" y="530" on="0"/>
        <pt x="121" y="507" on="0"/>
        <pt x="144" y="489" on="0"/>
        <pt x="167" y="489" on="1"/>
        <pt x="196" y="489" on="1"/>
        <pt x="255" y="489" on="0"/>
      </contour>
      <contour>
        <pt x="213" y="437" on="1"/>
        <pt x="173" y="437" on="1"/>
        <pt x="61" y="437" on="0"/>
        <pt x="61" y="535" on="1"/>
        <pt x="61" y="626" on="1"/>
        <pt x="61" y="673" on="0"/>
        <pt x="111" y="724" on="0"/>
        <pt x="159" y="724" on="1"/>
        <pt x="213" y="724" on="1"/>
        <pt x="261" y="724" on="0"/>
        <pt x="311" y="673" on="0"/>
        <pt x="311" y="626" on="1"/>
        <pt x="311" y="535" on="1"/>
        <pt x="311" y="489" on="0"/>
        <pt x="260" y="437" on="0"/>
      </contour>
    </TTGlyph>
    <TTGlyph name="dieresis" xMin="75" yMin="813" xMax="331" yMax="904">
      <contour>
        <pt x="129" y="813" on="1"/>
        <pt x="112" y="813" on="1"/>
        <pt x="96" y="813" on="0"/>
        <pt x="75" y="834" on="0"/>
        <pt x="75" y="850" on="1"/>
        <pt x="75" y="867" on="1"/>
        <pt x="75" y="884" on="0"/>
        <pt x="96" y="904" on="0"/>
        <pt x="112" y="904" on="1"/>
        <pt x="129" y="904" on="1"/>
        <pt x="146" y="904" on="0"/>
        <pt x="166" y="884" on="0"/>
        <pt x="166" y="867" on="1"/>
        <pt x="166" y="850" on="1"/>
        <pt x="166" y="834" on="0"/>
        <pt x="146" y="813" on="0"/>
      </contour>
      <contour>
        <pt x="294" y="813" on="1"/>
        <pt x="277" y="813" on="1"/>
        <pt x="260" y="813" on="0"/>
        <pt x="240" y="834" on="0"/>
        <pt x="240" y="850" on="1"/>
        <pt x="240" y="867" on="1"/>
        <pt x="240" y="884" on="0"/>
        <pt x="260" y="904" on="0"/>
        <pt x="277" y="904" on="1"/>
        <pt x="294" y="904" on="1"/>
        <pt x="310" y="904" on="0"/>
        <pt x="331" y="884" on="0"/>
        <pt x="331" y="867" on="1"/>
        <pt x="331" y="850" on="1"/>
        <pt x="331" y="834" on="0"/>
        <pt x="310" y="813" on="0"/>
      </contour>
    </TTGlyph>
    <TTGlyph name="divide" xMin="76" yMin="78" xMax="385" yMax="479">
      <contour>
        <pt x="385" y="242" on="1"/>
        <pt x="76" y="242" on="1"/>
        <pt x="76" y="303" on="1"/>
        <pt x="385" y="303" on="1"/>
      </contour>
      <contour>
        <pt x="240" y="78" on="1"/>
        <pt x="222" y="78" on="1"/>
        <pt x="206" y="78" on="0"/>
        <pt x="184" y="100" on="0"/>
        <pt x="184" y="116" on="1"/>
        <pt x="184" y="134" on="1"/>
        <pt x="184" y="151" on="0"/>
        <pt x="205" y="172" on="0"/>
        <pt x="222" y="172" on="1"/>
        <pt x="240" y="172" on="1"/>
        <pt x="257" y="172" on="0"/>
        <pt x="278" y="151" on="0"/>
        <pt x="278" y="134" on="1"/>
        <pt x="278" y="116" on="1"/>
        <pt x="278" y="99" on="0"/>
        <pt x="257" y="78" on="0"/>
      </contour>
      <contour>
        <pt x="240" y="385" on="1"/>
        <pt x="222" y="385" on="1"/>
        <pt x="205" y="385" on="0"/>
        <pt x="184" y="406" on="0"/>
        <pt x="184" y="423" on="1"/>
        <pt x="184" y="441" on="1"/>
        <pt x="184" y="458" on="0"/>
        <pt x="206" y="479" on="0"/>
        <pt x="222" y="479" on="1"/>
        <pt x="240" y="479" on="1"/>
        <pt x="257" y="479" on="0"/>
        <pt x="278" y="458" on="0"/>
        <pt x="278" y="441" on="1"/>
        <pt x="278" y="423" on="1"/>
        <pt x="278" y="406" on="0"/>
        <pt x="257" y="385" on="0"/>
      </contour>
    </TTGlyph>
    <TTGlyph name="dollar" xMin="43" yMin="-40" xMax="396" yMax="740">
      <contour>
        <pt x="251" y="650" on="1"/>
        <pt x="281" y="650" on="1"/>
        <pt x="381" y="622" on="1"/>
        <pt x="363" y="561" on="1"/>
        <pt x="281" y="585" on="1"/>
        <pt x="173" y="585" on="1"/>
        <pt x="147" y="585" on="0"/>
        <pt x="116" y="555" on="0"/>
        <pt x="116" y="526" on="1"/>
        <pt x="116" y="506" on="1"/>
        <pt x="116" y="478" on="0"/>
        <pt x="130" y="445" on="0"/>
        <pt x="152" y="431" on="1"/>
        <pt x="339" y="311" on="1"/>
        <pt x="374" y="289" on="0"/>
        <pt x="396" y="242" on="0"/>
        <pt x="396" y="207" on="1"/>
        <pt x="396" y="175" on="1"/>
        <pt x="396" y="117" on="0"/>
        <pt x="330" y="50" on="0"/>
        <pt x="271" y="50" on="1"/>
        <pt x="251" y="50" on="1"/>
        <pt x="251" y="-40" on="1"/>
        <pt x="191" y="-40" on="1"/>
        <pt x="191" y="50" on="1"/>
        <pt x="142" y="50" on="1"/>
        <pt x="43" y="77" on="1"/>
        <pt x="60" y="138" on="1"/>
        <pt x="142" y="114" on="1"/>
        <pt x="269" y="114" on="1"/>
        <pt x="295" y="114" on="0"/>
        <pt x="326" y="145" on="0"/>
        <pt x="326" y="173" on="1"/>
        <pt x="326" y="198" on="1"/>
        <pt x="326" y="227" on="0"/>
        <pt x="313" y="250" on="0"/>
        <pt x="287" y="267" on="1"/>
        <pt x="108" y="380" on="1"/>
        <pt x="46" y="419" on="0"/>
        <pt x="46" y="498" on="1"/>
        <pt x="46" y="525" on="1"/>
        <pt x="46" y="582" on="0"/>
        <pt x="113" y="650" on="0"/>
        <pt x="171" y="650" on="1"/>
        <pt x="191" y="650" on="1"/>
        <pt x="191" y="740" on="1"/>
        <pt x="251" y="740" on="1"/>
      </contour>
    </TTGlyph>
    <TTGlyph name="dotlessi" xMin="60" yMin="0" xMax="141" yMax="509">
      <contour>
        <pt x="71" y="0" on="1"/>
        <pt x="71" y="420" on="1"/>
        <pt x="60" y="500" on="1"/>
        <pt x="129" y="509" on="1"/>
        <pt x="141" y="419" on="1"/>
        <pt x="141" y="0" on="1"/>
      </contour>
    </TTGlyph>
    <TTGlyph name="e" xMin="61" yMin="0" xMax="396" yMax="500">
      <contour>
        <pt x="181" y="0" on="1"/>
        <pt x="122" y="0" on="0"/>
        <pt x="61" y="62" on="0"/>
        <pt x="61" y="120" on="1"/>
        <pt x="61" y="380" on="1"/>
        <pt x="61" y="437" on="0"/>
        <pt x="122" y="500" on="0"/>
        <pt x="181" y="500" on="1"/>
        <pt x="276" y="500" on="1"/>
        <pt x="335" y="500" on="0"/>
        <pt x="396" y="437" on="0"/>
        <pt x="396" y="380" on="1"/>
        <pt x="396" y="276" on="1"/>
        <pt x="341" y="227" on="1"/>
        <pt x="131" y="227" on="1"/>
        <pt x="131" y="118" on="1"/>
        <pt x="131" y="64" on="0"/>
        <pt x="183" y="64" on="1"/>
        <pt x="288" y="64" on="1"/>
        <pt x="369" y="88" on="1"/>
        <pt x="387" y="27" on="1"/>
        <pt x="288" y="0" on="1"/>
      </contour>
      <contour>
        <pt x="131" y="381" on="1"/>
        <pt x="131" y="291" on="1"/>
        <pt x="312" y="291" on="1"/>
        <pt x="326" y="302" on="1"/>
        <pt x="326" y="381" on="1"/>
        <pt x="326" y="435" on="0"/>
        <pt x="274" y="435" on="1"/>
        <pt x="183" y="435" on="1"/>
        <pt x="131" y="435" on="0"/>
      </contour>
    </TTGlyph>
    <TTGlyph name="eacute" xMin="61" yMin="0" xMax="396" yMax="714">
      <component glyphName="e" x="0" y="0" flags="0x204"/>
      <component glyphName="acute" x="135" y="-201" flags="0x4"/>
    </TTGlyph>
    <TTGlyph name="ecircumflex" xMin="61" yMin="0" xMax="396" yMax="724">
      <component glyphName="e" x="0" y="0" flags="0x204"/>
      <component glyphName="circumflex" x="7" y="-201" flags="0x4"/>
    </TTGlyph>
    <TTGlyph name="edieresis" xMin="61" yMin="0" xMax="396" yMax="703">
      <component glyphName="e" x="0" y="0" flags="0x204"/>
      <component glyphName="dieresis" x="23" y="-201" flags="0x4"/>
    </TTGlyph>
    <TTGlyph name="egrave" xMin="61" yMin="0" xMax="396" yMax="714">
      <component glyphName="e" x="0" y="0" flags="0x204"/>
      <component glyphName="grave" x="32" y="-201" flags="0x4"/>
    </TTGlyph>
    <TTGlyph name="eight" xMin="66" yMin="0" xMax="489" yMax="700">
      <contour>
        <pt x="186" y="0" on="1"/>
        <pt x="127" y="0" on="0"/>
        <pt x="66" y="62" on="0"/>
        <pt x="66" y="120" on="1"/>
        <pt x="66" y="253" on="1"/>
        <pt x="66" y="341" on="0"/>
        <pt x="140" y="365" on="1"/>
        <pt x="152" y="365" on="1"/>
        <pt x="152" y="369" on="1"/>
        <pt x="140" y="369" on="1"/>
        <pt x="89" y="394" on="0"/>
        <pt x="89" y="466" on="1"/>
        <pt x="89" y="580" on="1"/>
        <pt x="89" y="637" on="0"/>
        <pt x="151" y="700" on="0"/>
        <pt x="209" y="700" on="1"/>
        <pt x="346" y="700" on="1"/>
        <pt x="404" y="700" on="0"/>
        <pt x="466" y="637" on="0"/>
        <pt x="466" y="580" on="1"/>
        <pt x="466" y="466" on="1"/>
        <pt x="466" y="394" on="0"/>
        <pt x="415" y="369" on="1"/>
        <pt x="403" y="369" on="1"/>
        <pt x="403" y="365" on="1"/>
        <pt x="415" y="365" on="1"/>
        <pt x="489" y="341" on="0"/>
        <pt x="489" y="253" on="1"/>
        <pt x="489" y="120" on="1"/>
        <pt x="489" y="62" on="0"/>
        <pt x="428" y="0" on="0"/>
        <pt x="369" y="0" on="1"/>
      </contour>
      <contour>
        <pt x="356" y="325" on="1"/>
        <pt x="199" y="325" on="1"/>
        <pt x="170" y="325" on="0"/>
        <pt x="136" y="292" on="0"/>
        <pt x="136" y="261" on="1"/>
        <pt x="136" y="118" on="1"/>
        <pt x="136" y="64" on="0"/>
        <pt x="188" y="64" on="1"/>
        <pt x="367" y="64" on="1"/>
        <pt x="419" y="64" on="0"/>
        <pt x="419" y="118" on="1"/>
        <pt x="419" y="261" on="1"/>
        <pt x="419" y="292" on="0"/>
        <pt x="385" y="325" on="0"/>
      </contour>
      <contour>
        <pt x="344" y="635" on="1"/>
        <pt x="211" y="635" on="1"/>
        <pt x="159" y="635" on="0"/>
        <pt x="159" y="581" on="1"/>
        <pt x="159" y="453" on="1"/>
        <pt x="159" y="423" on="0"/>
        <pt x="193" y="389" on="0"/>
        <pt x="221" y="389" on="1"/>
        <pt x="334" y="389" on="1"/>
        <pt x="362" y="389" on="0"/>
        <pt x="396" y="423" on="0"/>
        <pt x="396" y="453" on="1"/>
        <pt x="396" y="581" on="1"/>
        <pt x="396" y="635" on="0"/>
      </contour>
    </TTGlyph>
    <TTGlyph name="emdash" xMin="-4" yMin="244" xMax="536" yMax="305">
      <contour>
        <pt x="536" y="244" on="1"/>
        <pt x="-4" y="244" on="1"/>
        <pt x="-4" y="305" on="1"/>
        <pt x="536" y="305" on="1"/>
      </contour>
    </TTGlyph>
    <TTGlyph name="endash" xMin="46" yMin="244" xMax="469" yMax="305">
      <contour>
        <pt x="469" y="244" on="1"/>
        <pt x="46" y="244" on="1"/>
        <pt x="46" y="305" on="1"/>
        <pt x="469" y="305" on="1"/>
      </contour>
    </TTGlyph>
    <TTGlyph name="equal" xMin="76" yMin="209" xMax="385" yMax="420">
      <contour>
        <pt x="385" y="359" on="1"/>
        <pt x="76" y="359" on="1"/>
        <pt x="76" y="420" on="1"/>
        <pt x="385" y="420" on="1"/>
      </contour>
      <contour>
        <pt x="385" y="209" on="1"/>
        <pt x="76" y="209" on="1"/>
        <pt x="76" y="270" on="1"/>
        <pt x="385" y="270" on="1"/>
      </contour>
    </TTGlyph>
    <TTGlyph name="eth" xMin="65" yMin="0" xMax="415" yMax="782">
      <contour>
        <pt x="79" y="719" on="1"/>
        <pt x="112" y="770" on="1"/>
        <pt x="203" y="714" on="1"/>
        <pt x="249" y="782" on="1"/>
        <pt x="297" y="752" on="1"/>
        <pt x="252" y="684" on="1"/>
        <pt x="295" y="658" on="1"/>
        <pt x="359" y="619" on="0"/>
        <pt x="415" y="528" on="0"/>
        <pt x="415" y="434" on="1"/>
        <pt x="415" y="143" on="1"/>
        <pt x="415" y="72" on="0"/>
        <pt x="361" y="0" on="0"/>
        <pt x="295" y="0" on="1"/>
        <pt x="185" y="0" on="1"/>
        <pt x="119" y="0" on="0"/>
        <pt x="65" y="72" on="0"/>
        <pt x="65" y="143" on="1"/>
        <pt x="65" y="380" on="1"/>
        <pt x="65" y="437" on="0"/>
        <pt x="126" y="500" on="0"/>
        <pt x="185" y="500" on="1"/>
        <pt x="278" y="500" on="1"/>
        <pt x="324" y="500" on="0"/>
        <pt x="349" y="471" on="1"/>
        <pt x="352" y="472" on="1"/>
        <pt x="349" y="522" on="0"/>
        <pt x="307" y="578" on="0"/>
        <pt x="265" y="603" on="1"/>
        <pt x="218" y="632" on="1"/>
        <pt x="171" y="561" on="1"/>
        <pt x="122" y="592" on="1"/>
        <pt x="169" y="662" on="1"/>
      </contour>
      <contour>
        <pt x="278" y="435" on="1"/>
        <pt x="187" y="435" on="1"/>
        <pt x="158" y="435" on="0"/>
        <pt x="135" y="404" on="0"/>
        <pt x="135" y="366" on="1"/>
        <pt x="135" y="118" on="1"/>
        <pt x="135" y="86" on="0"/>
        <pt x="165" y="64" on="0"/>
        <pt x="200" y="64" on="1"/>
        <pt x="293" y="64" on="1"/>
        <pt x="345" y="64" on="0"/>
        <pt x="345" y="118" on="1"/>
        <pt x="345" y="375" on="1"/>
        <pt x="345" y="407" on="0"/>
        <pt x="314" y="435" on="0"/>
      </contour>
    </TTGlyph>
    <TTGlyph name="exclam" xMin="47" yMin="-8" xMax="141" yMax="750">
      <contour>
        <pt x="68" y="170" on="1"/>
        <pt x="58" y="580" on="1"/>
        <pt x="58" y="750" on="1"/>
        <pt x="128" y="750" on="1"/>
        <pt x="128" y="579" on="1"/>
        <pt x="120" y="170" on="1"/>
      </contour>
      <contour>
        <pt x="103" y="-8" on="1"/>
        <pt x="85" y="-8" on="1"/>
        <pt x="68" y="-8" on="0"/>
        <pt x="47" y="14" on="0"/>
        <pt x="47" y="30" on="1"/>
        <pt x="47" y="48" on="1"/>
        <pt x="47" y="65" on="0"/>
        <pt x="68" y="86" on="0"/>
        <pt x="85" y="86" on="1"/>
        <pt x="103" y="86" on="1"/>
        <pt x="120" y="86" on="0"/>
        <pt x="141" y="65" on="0"/>
        <pt x="141" y="48" on="1"/>
        <pt x="141" y="30" on="1"/>
        <pt x="141" y="13" on="0"/>
        <pt x="120" y="-8" on="0"/>
      </contour>
    </TTGlyph>
    <TTGlyph name="exclamdown" xMin="47" yMin="-243" xMax="141" yMax="515">
      <contour>
        <pt x="120" y="337" on="1"/>
        <pt x="130" y="-73" on="1"/>
        <pt x="130" y="-243" on="1"/>
        <pt x="60" y="-243" on="1"/>
        <pt x="60" y="-72" on="1"/>
        <pt x="68" y="337" on="1"/>
      </contour>
      <contour>
        <pt x="85" y="515" on="1"/>
        <pt x="103" y="515" on="1"/>
        <pt x="120" y="515" on="0"/>
        <pt x="141" y="494" on="0"/>
        <pt x="141" y="477" on="1"/>
        <pt x="141" y="459" on="1"/>
        <pt x="141" y="442" on="0"/>
        <pt x="120" y="421" on="0"/>
        <pt x="103" y="421" on="1"/>
        <pt x="85" y="421" on="1"/>
        <pt x="68" y="421" on="0"/>
        <pt x="47" y="442" on="0"/>
        <pt x="47" y="459" on="1"/>
        <pt x="47" y="477" on="1"/>
        <pt x="47" y="494" on="0"/>
        <pt x="68" y="515" on="0"/>
      </contour>
    </TTGlyph>
    <TTGlyph name="f" xMin="12" yMin="0" xMax="347" yMax="741">
      <contour>
        <pt x="222" y="676" on="1"/>
        <pt x="170" y="676" on="0"/>
        <pt x="170" y="622" on="1"/>
        <pt x="170" y="500" on="1"/>
        <pt x="302" y="500" on="1"/>
        <pt x="302" y="434" on="1"/>
        <pt x="170" y="434" on="1"/>
        <pt x="170" y="0" on="1"/>
        <pt x="100" y="0" on="1"/>
        <pt x="100" y="434" on="1"/>
        <pt x="12" y="434" on="1"/>
        <pt x="12" y="491" on="1"/>
        <pt x="100" y="500" on="1"/>
        <pt x="100" y="621" on="1"/>
        <pt x="100" y="678" on="0"/>
        <pt x="161" y="741" on="0"/>
        <pt x="220" y="741" on="1"/>
        <pt x="260" y="741" on="1"/>
        <pt x="347" y="717" on="1"/>
        <pt x="329" y="656" on="1"/>
        <pt x="260" y="676" on="1"/>
      </contour>
    </TTGlyph>
    <TTGlyph name="five" xMin="51" yMin="0" xMax="453" yMax="700">
      <contour>
        <pt x="77" y="700" on="1"/>
        <pt x="430" y="700" on="1"/>
        <pt x="430" y="635" on="1"/>
        <pt x="147" y="635" on="1"/>
        <pt x="147" y="423" on="1"/>
        <pt x="208" y="441" on="1"/>
        <pt x="333" y="441" on="1"/>
        <pt x="392" y="441" on="0"/>
        <pt x="453" y="378" on="0"/>
        <pt x="453" y="321" on="1"/>
        <pt x="453" y="120" on="1"/>
        <pt x="453" y="63" on="0"/>
        <pt x="392" y="0" on="0"/>
        <pt x="333" y="0" on="1"/>
        <pt x="150" y="0" on="1"/>
        <pt x="51" y="27" on="1"/>
        <pt x="68" y="88" on="1"/>
        <pt x="150" y="64" on="1"/>
        <pt x="326" y="64" on="1"/>
        <pt x="352" y="64" on="0"/>
        <pt x="383" y="89" on="0"/>
        <pt x="383" y="118" on="1"/>
        <pt x="383" y="322" on="1"/>
        <pt x="383" y="351" on="0"/>
        <pt x="357" y="376" on="0"/>
        <pt x="331" y="376" on="1"/>
        <pt x="211" y="376" on="1"/>
        <pt x="145" y="357" on="1"/>
        <pt x="77" y="357" on="1"/>
      </contour>
    </TTGlyph>
    <TTGlyph name="foundryicon" xMin="36" yMin="-182" xMax="1444" yMax="432">
      <contour>
        <pt x="1366" y="-6" on="1"/>
        <pt x="1321" y="-6" on="0"/>
        <pt x="1299" y="31" on="1"/>
        <pt x="1295" y="17" on="0"/>
        <pt x="1274" y="-6" on="0"/>
        <pt x="1258" y="-6" on="1"/>
        <pt x="1241" y="-6" on="0"/>
        <pt x="1214" y="19" on="0"/>
        <pt x="1209" y="32" on="1"/>
        <pt x="1206" y="19" on="0"/>
        <pt x="1179" y="2" on="0"/>
        <pt x="1167" y="0" on="1"/>
        <pt x="1143" y="0" on="0"/>
        <pt x="1116" y="22" on="0"/>
        <pt x="1111" y="39" on="1"/>
        <pt x="1103" y="26" on="0"/>
        <pt x="1076" y="2" on="0"/>
        <pt x="1056" y="0" on="1"/>
        <pt x="1032" y="0" on="0"/>
        <pt x="998" y="20" on="0"/>
        <pt x="979" y="52" on="0"/>
        <pt x="971" y="94" on="0"/>
        <pt x="972" y="117" on="1"/>
        <pt x="973" y="151" on="0"/>
        <pt x="987" y="221" on="0"/>
        <pt x="998" y="241" on="1"/>
        <pt x="1038" y="244" on="0"/>
        <pt x="1089" y="208" on="0"/>
        <pt x="1089" y="162" on="1"/>
        <pt x="1089" y="146" on="0"/>
        <pt x="1082" y="114" on="0"/>
        <pt x="1069" y="87" on="0"/>
        <pt x="1050" y="66" on="0"/>
        <pt x="1037" y="62" on="1"/>
        <pt x="1040" y="49" on="0"/>
        <pt x="1049" y="26" on="0"/>
        <pt x="1058" y="20" on="1"/>
        <pt x="1075" y="28" on="0"/>
        <pt x="1097" y="64" on="0"/>
        <pt x="1103" y="79" on="1"/>
        <pt x="1103" y="112" on="1"/>
        <pt x="1105" y="146" on="0"/>
        <pt x="1122" y="206" on="0"/>
        <pt x="1144" y="229" on="1"/>
        <pt x="1155" y="229" on="0"/>
        <pt x="1178" y="224" on="0"/>
        <pt x="1188" y="221" on="1"/>
        <pt x="1188" y="223" on="0"/>
        <pt x="1191" y="236" on="0"/>
        <pt x="1195" y="251" on="0"/>
        <pt x="1199" y="263" on="0"/>
        <pt x="1201" y="265" on="1"/>
        <pt x="1212" y="267" on="0"/>
        <pt x="1249" y="253" on="0"/>
        <pt x="1256" y="245" on="1"/>
        <pt x="1253" y="221" on="0"/>
        <pt x="1248" y="161" on="0"/>
        <pt x="1247" y="100" on="0"/>
        <pt x="1252" y="41" on="0"/>
        <pt x="1259" y="18" on="1"/>
        <pt x="1263" y="17" on="0"/>
        <pt x="1273" y="25" on="0"/>
        <pt x="1281" y="37" on="0"/>
        <pt x="1288" y="49" on="0"/>
        <pt x="1290" y="53" on="1"/>
        <pt x="1288" y="61" on="1"/>
        <pt x="1279" y="104" on="0"/>
        <pt x="1276" y="202" on="0"/>
        <pt x="1286" y="298" on="0"/>
        <pt x="1310" y="386" on="0"/>
        <pt x="1328" y="419" on="1"/>
        <pt x="1355" y="414" on="0"/>
        <pt x="1391" y="397" on="0"/>
        <pt x="1412" y="369" on="0"/>
        <pt x="1421" y="328" on="0"/>
        <pt x="1421" y="300" on="1"/>
        <pt x="1421" y="273" on="0"/>
        <pt x="1412" y="217" on="0"/>
        <pt x="1394" y="167" on="0"/>
        <pt x="1367" y="130" on="0"/>
        <pt x="1350" y="122" on="1"/>
        <pt x="1350" y="56" on="0"/>
        <pt x="1376" y="18" on="1"/>
        <pt x="1397" y="34" on="0"/>
        <pt x="1428" y="93" on="0"/>
        <pt x="1437" y="140" on="1"/>
        <pt x="1437" y="144" on="0"/>
        <pt x="1439" y="148" on="0"/>
        <pt x="1441" y="140" on="1"/>
        <pt x="1444" y="123" on="0"/>
        <pt x="1442" y="73" on="0"/>
        <pt x="1427" y="27" on="0"/>
        <pt x="1394" y="-6" on="0"/>
      </contour>
      <contour>
        <pt x="772" y="235" on="1"/>
        <pt x="781" y="161" on="0"/>
        <pt x="776" y="12" on="0"/>
        <pt x="744" y="-107" on="0"/>
        <pt x="684" y="-182" on="0"/>
        <pt x="638" y="-182" on="1"/>
        <pt x="605" y="-182" on="0"/>
        <pt x="583" y="-147" on="0"/>
        <pt x="583" y="-113" on="1"/>
        <pt x="583" y="-98" on="0"/>
        <pt x="588" y="-70" on="0"/>
        <pt x="592" y="-58" on="1"/>
        <pt x="607" y="-58" on="0"/>
        <pt x="641" y="-68" on="0"/>
        <pt x="653" y="-81" on="1"/>
        <pt x="651" y="-98" on="0"/>
        <pt x="647" y="-142" on="0"/>
        <pt x="652" y="-160" on="1"/>
        <pt x="671" y="-147" on="0"/>
        <pt x="693" y="-114" on="0"/>
        <pt x="705" y="-71" on="0"/>
        <pt x="711" y="-20" on="0"/>
        <pt x="715" y="11" on="1"/>
        <pt x="713" y="7" on="0"/>
        <pt x="702" y="0" on="0"/>
        <pt x="696" y="0" on="1"/>
        <pt x="674" y="0" on="0"/>
        <pt x="643" y="25" on="0"/>
        <pt x="633" y="45" on="1"/>
        <pt x="626" y="26" on="0"/>
        <pt x="594" y="-10" on="0"/>
        <pt x="563" y="-10" on="1"/>
        <pt x="527" y="-10" on="0"/>
        <pt x="477" y="21" on="0"/>
        <pt x="445" y="72" on="0"/>
        <pt x="430" y="136" on="0"/>
        <pt x="429" y="169" on="1"/>
        <pt x="429" y="207" on="0"/>
        <pt x="438" y="282" on="0"/>
        <pt x="459" y="351" on="0"/>
        <pt x="494" y="410" on="0"/>
        <pt x="520" y="432" on="1"/>
        <pt x="534" y="429" on="0"/>
        <pt x="567" y="419" on="0"/>
        <pt x="596" y="398" on="0"/>
        <pt x="615" y="362" on="0"/>
        <pt x="615" y="333" on="1"/>
        <pt x="615" y="310" on="0"/>
        <pt x="592" y="273" on="0"/>
        <pt x="575" y="258" on="1"/>
        <pt x="570" y="252" on="0"/>
        <pt x="568" y="258" on="0"/>
        <pt x="569" y="260" on="1"/>
        <pt x="571" y="272" on="0"/>
        <pt x="569" y="302" on="0"/>
        <pt x="563" y="331" on="0"/>
        <pt x="555" y="354" on="0"/>
        <pt x="551" y="359" on="1"/>
        <pt x="541" y="349" on="0"/>
        <pt x="523" y="298" on="0"/>
        <pt x="512" y="231" on="0"/>
        <pt x="509" y="154" on="0"/>
        <pt x="518" y="84" on="0"/>
        <pt x="540" y="27" on="0"/>
        <pt x="560" y="13" on="1"/>
        <pt x="584" y="21" on="0"/>
        <pt x="614" y="64" on="0"/>
        <pt x="621" y="80" on="1"/>
        <pt x="615" y="101" on="0"/>
        <pt x="610" y="150" on="0"/>
        <pt x="610" y="175" on="1"/>
        <pt x="610" y="198" on="0"/>
        <pt x="617" y="230" on="0"/>
        <pt x="622" y="241" on="1"/>
        <pt x="631" y="239" on="0"/>
        <pt x="669" y="229" on="0"/>
        <pt x="681" y="218" on="1"/>
        <pt x="678" y="167" on="0"/>
        <pt x="681" y="73" on="0"/>
        <pt x="695" y="30" on="1"/>
        <pt x="702" y="32" on="0"/>
        <pt x="707" y="43" on="0"/>
        <pt x="708" y="47" on="1"/>
        <pt x="714" y="76" on="0"/>
        <pt x="715" y="138" on="0"/>
        <pt x="711" y="196" on="0"/>
        <pt x="703" y="247" on="0"/>
        <pt x="700" y="265" on="1"/>
        <pt x="716" y="267" on="0"/>
        <pt x="760" y="249" on="0"/>
      </contour>
      <contour>
        <pt x="237" y="69" on="1"/>
        <pt x="232" y="69" on="0"/>
        <pt x="225" y="70" on="0"/>
        <pt x="220" y="70" on="1"/>
        <pt x="219" y="68" on="0"/>
        <pt x="215" y="62" on="0"/>
        <pt x="212" y="63" on="1"/>
        <pt x="208" y="61" on="0"/>
        <pt x="208" y="61" on="1"/>
        <pt x="213" y="57" on="0"/>
        <pt x="227" y="48" on="0"/>
        <pt x="233" y="43" on="1"/>
        <pt x="237" y="42" on="0"/>
        <pt x="250" y="40" on="0"/>
        <pt x="255" y="33" on="1"/>
        <pt x="255" y="33" on="0"/>
        <pt x="253" y="31" on="1"/>
        <pt x="249" y="35" on="0"/>
        <pt x="244" y="38" on="0"/>
        <pt x="238" y="39" on="1"/>
        <pt x="244" y="35" on="0"/>
        <pt x="247" y="26" on="1"/>
        <pt x="247" y="25" on="0"/>
        <pt x="244" y="25" on="1"/>
        <pt x="241" y="30" on="0"/>
        <pt x="233" y="38" on="0"/>
        <pt x="228" y="39" on="1"/>
        <pt x="220" y="42" on="0"/>
        <pt x="207" y="38" on="1"/>
        <pt x="206" y="39" on="0"/>
        <pt x="206" y="41" on="1"/>
        <pt x="210" y="43" on="0"/>
        <pt x="219" y="43" on="0"/>
        <pt x="224" y="44" on="1"/>
        <pt x="216" y="51" on="0"/>
        <pt x="201" y="59" on="0"/>
        <pt x="201" y="61" on="1"/>
        <pt x="201" y="62" on="0"/>
        <pt x="205" y="65" on="1"/>
        <pt x="202" y="67" on="0"/>
        <pt x="202" y="74" on="0"/>
        <pt x="202" y="75" on="1"/>
        <pt x="187" y="80" on="0"/>
        <pt x="162" y="98" on="0"/>
        <pt x="141" y="117" on="0"/>
        <pt x="124" y="137" on="0"/>
        <pt x="117" y="144" on="1"/>
        <pt x="112" y="149" on="0"/>
        <pt x="92" y="154" on="0"/>
        <pt x="68" y="159" on="0"/>
        <pt x="46" y="166" on="0"/>
        <pt x="39" y="172" on="1"/>
        <pt x="36" y="174" on="0"/>
        <pt x="38" y="179" on="0"/>
        <pt x="40" y="179" on="1"/>
        <pt x="41" y="179" on="0"/>
        <pt x="68" y="175" on="0"/>
        <pt x="103" y="172" on="0"/>
        <pt x="134" y="169" on="0"/>
        <pt x="139" y="169" on="1"/>
        <pt x="165" y="174" on="0"/>
        <pt x="214" y="183" on="0"/>
        <pt x="255" y="192" on="0"/>
        <pt x="282" y="200" on="0"/>
        <pt x="287" y="204" on="1"/>
        <pt x="292" y="220" on="0"/>
        <pt x="315" y="238" on="0"/>
        <pt x="328" y="238" on="1"/>
        <pt x="339" y="238" on="0"/>
        <pt x="347" y="232" on="1"/>
        <pt x="360" y="238" on="1"/>
        <pt x="361" y="237" on="0"/>
        <pt x="361" y="237" on="1"/>
        <pt x="361" y="236" on="1"/>
        <pt x="357" y="223" on="1"/>
        <pt x="370" y="223" on="1"/>
        <pt x="370" y="222" on="0"/>
        <pt x="370" y="222" on="1"/>
        <pt x="360" y="209" on="1"/>
        <pt x="351" y="195" on="0"/>
        <pt x="336" y="153" on="0"/>
        <pt x="316" y="113" on="0"/>
        <pt x="287" y="79" on="0"/>
        <pt x="263" y="72" on="1"/>
        <pt x="263" y="71" on="0"/>
        <pt x="262" y="65" on="0"/>
        <pt x="258" y="63" on="1"/>
        <pt x="254" y="60" on="1"/>
        <pt x="269" y="55" on="0"/>
        <pt x="283" y="48" on="1"/>
        <pt x="288" y="49" on="0"/>
        <pt x="300" y="47" on="0"/>
        <pt x="308" y="42" on="1"/>
        <pt x="308" y="42" on="0"/>
        <pt x="307" y="41" on="1"/>
        <pt x="302" y="43" on="0"/>
        <pt x="295" y="45" on="0"/>
        <pt x="289" y="45" on="1"/>
        <pt x="292" y="43" on="0"/>
        <pt x="298" y="40" on="0"/>
        <pt x="300" y="36" on="1"/>
        <pt x="299" y="34" on="0"/>
        <pt x="299" y="34" on="1"/>
        <pt x="298" y="34" on="1"/>
        <pt x="288" y="44" on="0"/>
        <pt x="278" y="43" on="1"/>
        <pt x="273" y="43" on="0"/>
        <pt x="268" y="41" on="0"/>
        <pt x="263" y="39" on="1"/>
        <pt x="262" y="40" on="0"/>
        <pt x="261" y="40" on="0"/>
        <pt x="260" y="41" on="1"/>
        <pt x="264" y="44" on="0"/>
        <pt x="269" y="45" on="0"/>
        <pt x="273" y="47" on="1"/>
        <pt x="263" y="52" on="0"/>
        <pt x="248" y="57" on="0"/>
        <pt x="248" y="59" on="1"/>
        <pt x="248" y="61" on="0"/>
        <pt x="251" y="63" on="1"/>
        <pt x="249" y="63" on="0"/>
        <pt x="245" y="68" on="0"/>
        <pt x="245" y="69" on="1"/>
        <pt x="243" y="69" on="1"/>
      </contour>
      <contour>
        <pt x="782" y="247" on="1"/>
        <pt x="807" y="245" on="0"/>
        <pt x="822" y="242" on="1"/>
        <pt x="838" y="239" on="0"/>
        <pt x="849" y="227" on="1"/>
        <pt x="856" y="214" on="0"/>
        <pt x="866" y="179" on="0"/>
        <pt x="868" y="153" on="1"/>
        <pt x="890" y="193" on="0"/>
        <pt x="897" y="215" on="1"/>
        <pt x="897" y="224" on="0"/>
        <pt x="903" y="247" on="0"/>
        <pt x="907" y="255" on="1"/>
        <pt x="927" y="253" on="0"/>
        <pt x="959" y="241" on="0"/>
        <pt x="966" y="230" on="1"/>
        <pt x="962" y="207" on="0"/>
        <pt x="959" y="152" on="0"/>
        <pt x="963" y="129" on="1"/>
        <pt x="912" y="115" on="0"/>
        <pt x="904" y="167" on="1"/>
        <pt x="899" y="154" on="0"/>
        <pt x="879" y="127" on="0"/>
        <pt x="875" y="110" on="1"/>
        <pt x="875" y="94" on="0"/>
        <pt x="873" y="51" on="0"/>
        <pt x="868" y="37" on="1"/>
        <pt x="863" y="17" on="0"/>
        <pt x="837" y="-7" on="0"/>
        <pt x="816" y="-4" on="1"/>
        <pt x="814" y="24" on="0"/>
        <pt x="811" y="91" on="0"/>
        <pt x="804" y="159" on="0"/>
        <pt x="792" y="222" on="0"/>
      </contour>
      <contour>
        <pt x="1166" y="23" on="1"/>
        <pt x="1174" y="29" on="0"/>
        <pt x="1193" y="53" on="0"/>
        <pt x="1195" y="66" on="1"/>
        <pt x="1190" y="83" on="0"/>
        <pt x="1186" y="120" on="0"/>
        <pt x="1184" y="155" on="0"/>
        <pt x="1185" y="183" on="0"/>
        <pt x="1186" y="192" on="1"/>
        <pt x="1179" y="183" on="0"/>
        <pt x="1166" y="143" on="0"/>
        <pt x="1159" y="94" on="0"/>
        <pt x="1160" y="42" on="0"/>
      </contour>
      <contour>
        <pt x="1349" y="151" on="1"/>
        <pt x="1359" y="166" on="0"/>
        <pt x="1373" y="215" on="0"/>
        <pt x="1380" y="269" on="0"/>
        <pt x="1380" y="322" on="0"/>
        <pt x="1377" y="341" on="1"/>
        <pt x="1367" y="303" on="0"/>
        <pt x="1351" y="199" on="0"/>
      </contour>
      <contour>
        <pt x="1052" y="195" on="1"/>
        <pt x="1036" y="146" on="0"/>
        <pt x="1036" y="84" on="1"/>
        <pt x="1043" y="85" on="0"/>
        <pt x="1053" y="99" on="0"/>
        <pt x="1060" y="118" on="0"/>
        <pt x="1063" y="142" on="0"/>
        <pt x="1063" y="153" on="1"/>
        <pt x="1063" y="167" on="0"/>
        <pt x="1056" y="189" on="0"/>
      </contour>
      <contour>
        <pt x="355" y="34" on="1"/>
        <pt x="355" y="37" on="0"/>
        <pt x="360" y="37" on="1"/>
        <pt x="365" y="37" on="0"/>
        <pt x="365" y="34" on="1"/>
        <pt x="365" y="30" on="0"/>
        <pt x="360" y="30" on="1"/>
        <pt x="355" y="30" on="0"/>
      </contour>
      <contour>
        <pt x="406" y="32" on="1"/>
        <pt x="406" y="33" on="1"/>
        <pt x="407" y="33" on="1"/>
        <pt x="407" y="34" on="0"/>
        <pt x="408" y="34" on="1"/>
        <pt x="408" y="34" on="0"/>
        <pt x="410" y="36" on="1"/>
        <pt x="412" y="36" on="0"/>
        <pt x="414" y="32" on="0"/>
        <pt x="414" y="30" on="1"/>
        <pt x="414" y="29" on="1"/>
        <pt x="414" y="28" on="1"/>
        <pt x="412" y="26" on="0"/>
        <pt x="411" y="26" on="1"/>
        <pt x="410" y="26" on="1"/>
        <pt x="409" y="26" on="1"/>
        <pt x="406" y="26" on="0"/>
        <pt x="406" y="30" on="1"/>
      </contour>
      <contour>
        <pt x="376" y="28" on="1"/>
        <pt x="376" y="29" on="0"/>
        <pt x="377" y="29" on="1"/>
        <pt x="377" y="30" on="0"/>
        <pt x="378" y="30" on="1"/>
        <pt x="379" y="30" on="1"/>
        <pt x="380" y="30" on="1"/>
        <pt x="381" y="30" on="1"/>
        <pt x="383" y="30" on="1"/>
        <pt x="384" y="30" on="1"/>
        <pt x="385" y="29" on="1"/>
        <pt x="385" y="28" on="0"/>
        <pt x="386" y="28" on="0"/>
        <pt x="386" y="27" on="1"/>
        <pt x="386" y="26" on="0"/>
        <pt x="385" y="25" on="0"/>
        <pt x="385" y="24" on="1"/>
        <pt x="385" y="24" on="0"/>
        <pt x="384" y="23" on="1"/>
        <pt x="383" y="23" on="1"/>
        <pt x="381" y="23" on="1"/>
        <pt x="380" y="23" on="1"/>
        <pt x="379" y="23" on="1"/>
        <pt x="377" y="24" on="1"/>
        <pt x="377" y="24" on="0"/>
        <pt x="376" y="25" on="1"/>
        <pt x="376" y="26" on="1"/>
        <pt x="376" y="27" on="1"/>
      </contour>
    </TTGlyph>
    <TTGlyph name="four" xMin="21" yMin="0" xMax="490" yMax="700">
      <contour>
        <pt x="336" y="208" on="1"/>
        <pt x="336" y="586" on="1"/>
        <pt x="97" y="208" on="1"/>
      </contour>
      <contour>
        <pt x="21" y="209" on="1"/>
        <pt x="336" y="700" on="1"/>
        <pt x="406" y="700" on="1"/>
        <pt x="406" y="208" on="1"/>
        <pt x="490" y="208" on="1"/>
        <pt x="490" y="145" on="1"/>
        <pt x="406" y="145" on="1"/>
        <pt x="406" y="0" on="1"/>
        <pt x="336" y="0" on="1"/>
        <pt x="336" y="145" on="1"/>
        <pt x="21" y="145" on="1"/>
      </contour>
    </TTGlyph>
    <TTGlyph name="fraction" xMin="23" yMin="-21" xMax="286" yMax="555">
      <contour>
        <pt x="71" y="-21" on="1"/>
        <pt x="23" y="-6" on="1"/>
        <pt x="238" y="555" on="1"/>
        <pt x="286" y="540" on="1"/>
      </contour>
    </TTGlyph>
    <TTGlyph name="g" xMin="61" yMin="-230" xMax="411" yMax="510">
      <contour>
        <pt x="175" y="-166" on="1"/>
        <pt x="280" y="-166" on="1"/>
        <pt x="313" y="-166" on="0"/>
        <pt x="341" y="-132" on="0"/>
        <pt x="341" y="-95" on="1"/>
        <pt x="341" y="62" on="1"/>
        <pt x="231" y="0" on="1"/>
        <pt x="181" y="0" on="1"/>
        <pt x="122" y="0" on="0"/>
        <pt x="61" y="62" on="0"/>
        <pt x="61" y="120" on="1"/>
        <pt x="61" y="390" on="1"/>
        <pt x="61" y="447" on="0"/>
        <pt x="122" y="510" on="0"/>
        <pt x="181" y="510" on="1"/>
        <pt x="411" y="488" on="1"/>
        <pt x="411" y="-95" on="1"/>
        <pt x="411" y="-230" on="0"/>
        <pt x="273" y="-230" on="1"/>
        <pt x="175" y="-230" on="1"/>
        <pt x="75" y="-203" on="1"/>
        <pt x="93" y="-142" on="1"/>
      </contour>
      <contour>
        <pt x="214" y="64" on="1"/>
        <pt x="341" y="136" on="1"/>
        <pt x="341" y="432" on="1"/>
        <pt x="183" y="445" on="1"/>
        <pt x="131" y="445" on="0"/>
        <pt x="131" y="391" on="1"/>
        <pt x="131" y="118" on="1"/>
        <pt x="131" y="64" on="0"/>
        <pt x="183" y="64" on="1"/>
      </contour>
    </TTGlyph>
    <TTGlyph name="germandbls" xMin="66" yMin="-145" xMax="415" yMax="700">
      <contour>
        <pt x="136" y="581" on="1"/>
        <pt x="136" y="-145" on="1"/>
        <pt x="66" y="-145" on="1"/>
        <pt x="66" y="580" on="1"/>
        <pt x="66" y="637" on="0"/>
        <pt x="127" y="700" on="0"/>
        <pt x="186" y="700" on="1"/>
        <pt x="274" y="700" on="1"/>
        <pt x="332" y="700" on="0"/>
        <pt x="394" y="637" on="0"/>
        <pt x="394" y="580" on="1"/>
        <pt x="394" y="468" on="1"/>
        <pt x="394" y="394" on="0"/>
        <pt x="344" y="377" on="1"/>
        <pt x="335" y="377" on="1"/>
        <pt x="335" y="373" on="1"/>
        <pt x="345" y="373" on="1"/>
        <pt x="415" y="353" on="0"/>
        <pt x="415" y="274" on="1"/>
        <pt x="415" y="120" on="1"/>
        <pt x="415" y="62" on="0"/>
        <pt x="354" y="0" on="0"/>
        <pt x="295" y="0" on="1"/>
        <pt x="186" y="0" on="1"/>
        <pt x="186" y="64" on="1"/>
        <pt x="293" y="64" on="1"/>
        <pt x="345" y="64" on="0"/>
        <pt x="345" y="118" on="1"/>
        <pt x="345" y="283" on="1"/>
        <pt x="345" y="337" on="0"/>
        <pt x="288" y="337" on="1"/>
        <pt x="186" y="337" on="1"/>
        <pt x="186" y="402" on="1"/>
        <pt x="267" y="402" on="1"/>
        <pt x="324" y="402" on="0"/>
        <pt x="324" y="456" on="1"/>
        <pt x="324" y="581" on="1"/>
        <pt x="324" y="635" on="0"/>
        <pt x="272" y="635" on="1"/>
        <pt x="188" y="635" on="1"/>
        <pt x="136" y="635" on="0"/>
      </contour>
    </TTGlyph>
    <TTGlyph name="grave" xMin="47" yMin="752" xMax="225" yMax="915">
      <contour>
        <pt x="96" y="915" on="1"/>
        <pt x="225" y="778" on="1"/>
        <pt x="194" y="752" on="1"/>
        <pt x="47" y="863" on="1"/>
        <pt x="53" y="901" on="0"/>
      </contour>
    </TTGlyph>
    <TTGlyph name="grave.case" xMin="44" yMin="782" xMax="242" yMax="896">
      <contour>
        <pt x="242" y="820" on="1"/>
        <pt x="226" y="782" on="1"/>
        <pt x="47" y="827" on="1"/>
        <pt x="44" y="837" on="0"/>
        <pt x="44" y="846" on="1"/>
        <pt x="44" y="875" on="0"/>
        <pt x="70" y="896" on="1"/>
      </contour>
    </TTGlyph>
    <TTGlyph name="greater" xMin="66" yMin="97" xMax="367" yMax="499">
      <contour>
        <pt x="66" y="97" on="1"/>
        <pt x="66" y="168" on="1"/>
        <pt x="286" y="300" on="1"/>
        <pt x="66" y="429" on="1"/>
        <pt x="66" y="499" on="1"/>
        <pt x="367" y="319" on="1"/>
        <pt x="367" y="278" on="1"/>
      </contour>
    </TTGlyph>
    <TTGlyph name="guillemotleft" xMin="53" yMin="70" xMax="570" yMax="511">
      <contour>
        <pt x="145" y="289" on="1"/>
        <pt x="332" y="111" on="1"/>
        <pt x="296" y="70" on="1"/>
        <pt x="53" y="272" on="1"/>
        <pt x="53" y="309" on="1"/>
        <pt x="295" y="511" on="1"/>
        <pt x="331" y="470" on="1"/>
        <pt x="145" y="292" on="1"/>
      </contour>
      <contour>
        <pt x="383" y="289" on="1"/>
        <pt x="570" y="111" on="1"/>
        <pt x="534" y="70" on="1"/>
        <pt x="291" y="272" on="1"/>
        <pt x="291" y="309" on="1"/>
        <pt x="533" y="511" on="1"/>
        <pt x="569" y="470" on="1"/>
        <pt x="383" y="292" on="1"/>
      </contour>
    </TTGlyph>
    <TTGlyph name="guillemotright" xMin="57" yMin="70" xMax="574" yMax="511">
      <contour>
        <pt x="295" y="111" on="1"/>
        <pt x="482" y="289" on="1"/>
        <pt x="482" y="292" on="1"/>
        <pt x="296" y="470" on="1"/>
        <pt x="332" y="511" on="1"/>
        <pt x="574" y="309" on="1"/>
        <pt x="574" y="272" on="1"/>
        <pt x="331" y="70" on="1"/>
      </contour>
      <contour>
        <pt x="57" y="111" on="1"/>
        <pt x="244" y="289" on="1"/>
        <pt x="244" y="292" on="1"/>
        <pt x="58" y="470" on="1"/>
        <pt x="94" y="511" on="1"/>
        <pt x="336" y="309" on="1"/>
        <pt x="336" y="272" on="1"/>
        <pt x="93" y="70" on="1"/>
      </contour>
    </TTGlyph>
    <TTGlyph name="guilsinglleft" xMin="53" yMin="70" xMax="332" yMax="511">
      <contour>
        <pt x="145" y="289" on="1"/>
        <pt x="332" y="111" on="1"/>
        <pt x="296" y="70" on="1"/>
        <pt x="53" y="272" on="1"/>
        <pt x="53" y="309" on="1"/>
        <pt x="295" y="511" on="1"/>
        <pt x="331" y="470" on="1"/>
        <pt x="145" y="292" on="1"/>
      </contour>
    </TTGlyph>
    <TTGlyph name="guilsinglright" xMin="87" yMin="70" xMax="366" yMax="511">
      <contour>
        <pt x="87" y="111" on="1"/>
        <pt x="274" y="289" on="1"/>
        <pt x="274" y="292" on="1"/>
        <pt x="88" y="470" on="1"/>
        <pt x="124" y="511" on="1"/>
        <pt x="366" y="309" on="1"/>
        <pt x="366" y="272" on="1"/>
        <pt x="123" y="70" on="1"/>
      </contour>
    </TTGlyph>
    <TTGlyph name="h" xMin="60" yMin="-8" xMax="431" yMax="750">
      <contour>
        <pt x="421" y="75" on="1"/>
        <pt x="431" y="0" on="1"/>
        <pt x="362" y="-8" on="1"/>
        <pt x="351" y="80" on="1"/>
        <pt x="351" y="369" on="1"/>
        <pt x="351" y="406" on="0"/>
        <pt x="325" y="435" on="0"/>
        <pt x="290" y="435" on="1"/>
        <pt x="267" y="435" on="1"/>
        <pt x="141" y="365" on="1"/>
        <pt x="141" y="0" on="1"/>
        <pt x="71" y="0" on="1"/>
        <pt x="71" y="660" on="1"/>
        <pt x="60" y="741" on="1"/>
        <pt x="129" y="750" on="1"/>
        <pt x="141" y="659" on="1"/>
        <pt x="141" y="438" on="1"/>
        <pt x="251" y="500" on="1"/>
        <pt x="301" y="500" on="1"/>
        <pt x="359" y="500" on="0"/>
        <pt x="421" y="437" on="0"/>
        <pt x="421" y="380" on="1"/>
      </contour>
    </TTGlyph>
    <TTGlyph name="hyphen" xMin="76" yMin="242" xMax="385" yMax="303">
      <contour>
        <pt x="385" y="242" on="1"/>
        <pt x="76" y="242" on="1"/>
        <pt x="76" y="303" on="1"/>
        <pt x="385" y="303" on="1"/>
      </contour>
    </TTGlyph>
    <TTGlyph name="i" xMin="60" yMin="0" xMax="149" yMax="689">
      <contour>
        <pt x="71" y="0" on="1"/>
        <pt x="71" y="420" on="1"/>
        <pt x="60" y="500" on="1"/>
        <pt x="129" y="509" on="1"/>
        <pt x="141" y="419" on="1"/>
        <pt x="141" y="0" on="1"/>
      </contour>
      <contour>
        <pt x="114" y="602" on="1"/>
        <pt x="98" y="602" on="1"/>
        <pt x="82" y="602" on="0"/>
        <pt x="62" y="621" on="0"/>
        <pt x="62" y="637" on="1"/>
        <pt x="62" y="653" on="1"/>
        <pt x="62" y="669" on="0"/>
        <pt x="82" y="689" on="0"/>
        <pt x="98" y="689" on="1"/>
        <pt x="114" y="689" on="1"/>
        <pt x="130" y="689" on="0"/>
        <pt x="149" y="669" on="0"/>
        <pt x="149" y="653" on="1"/>
        <pt x="149" y="637" on="1"/>
        <pt x="149" y="621" on="0"/>
        <pt x="130" y="602" on="0"/>
      </contour>
    </TTGlyph>
    <TTGlyph name="iacute" xMin="60" yMin="0" xMax="241" yMax="714">
      <component glyphName="acute" x="15" y="-201" flags="0x4"/>
      <component glyphName="dotlessi" x="0" y="0" flags="0x4"/>
    </TTGlyph>
    <TTGlyph name="icircumflex" xMin="-34" yMin="0" xMax="248" yMax="724">
      <component glyphName="circumflex" x="-112" y="-201" flags="0x4"/>
      <component glyphName="dotlessi" x="0" y="0" flags="0x4"/>
    </TTGlyph>
    <TTGlyph name="idieresis" xMin="-21" yMin="0" xMax="235" yMax="703">
      <component glyphName="dieresis" x="-96" y="-201" flags="0x4"/>
      <component glyphName="dotlessi" x="0" y="0" flags="0x4"/>
    </TTGlyph>
    <TTGlyph name="igrave" xMin="-40" yMin="0" xMax="141" yMax="714">
      <component glyphName="grave" x="-87" y="-201" flags="0x4"/>
      <component glyphName="dotlessi" x="0" y="0" flags="0x4"/>
    </TTGlyph>
    <TTGlyph name="j" xMin="-86" yMin="-233" xMax="149" yMax="689">
      <contour>
        <pt x="3" y="-233" on="1"/>
        <pt x="-27" y="-226" on="1"/>
        <pt x="-86" y="-209" on="1"/>
        <pt x="-68" y="-148" on="1"/>
        <pt x="-2" y="-168" on="1"/>
        <pt x="10" y="-168" on="1"/>
        <pt x="43" y="-168" on="0"/>
        <pt x="71" y="-134" on="0"/>
        <pt x="71" y="-97" on="1"/>
        <pt x="71" y="420" on="1"/>
        <pt x="60" y="500" on="1"/>
        <pt x="129" y="509" on="1"/>
        <pt x="141" y="419" on="1"/>
        <pt x="141" y="-71" on="1"/>
        <pt x="141" y="-154" on="0"/>
        <pt x="80" y="-233" on="0"/>
      </contour>
      <contour>
        <pt x="113" y="602" on="1"/>
        <pt x="97" y="602" on="1"/>
        <pt x="81" y="602" on="0"/>
        <pt x="62" y="621" on="0"/>
        <pt x="62" y="637" on="1"/>
        <pt x="62" y="653" on="1"/>
        <pt x="62" y="669" on="0"/>
        <pt x="81" y="689" on="0"/>
        <pt x="97" y="689" on="1"/>
        <pt x="113" y="689" on="1"/>
        <pt x="129" y="689" on="0"/>
        <pt x="149" y="669" on="0"/>
        <pt x="149" y="653" on="1"/>
        <pt x="149" y="637" on="1"/>
        <pt x="149" y="621" on="0"/>
        <pt x="129" y="602" on="0"/>
      </contour>
    </TTGlyph>
    <TTGlyph name="k" xMin="60" yMin="0" xMax="437" yMax="750">
      <contour>
        <pt x="71" y="659" on="1"/>
        <pt x="60" y="741" on="1"/>
        <pt x="129" y="750" on="1"/>
        <pt x="141" y="659" on="1"/>
        <pt x="141" y="297" on="1"/>
        <pt x="217" y="317" on="1"/>
        <pt x="300" y="431" on="1"/>
        <pt x="343" y="508" on="1"/>
        <pt x="418" y="498" on="1"/>
        <pt x="370" y="419" on="1"/>
        <pt x="259" y="269" on="1"/>
        <pt x="437" y="0" on="1"/>
        <pt x="356" y="0" on="1"/>
        <pt x="196" y="241" on="1"/>
        <pt x="141" y="226" on="1"/>
        <pt x="141" y="0" on="1"/>
        <pt x="71" y="0" on="1"/>
      </contour>
    </TTGlyph>
    <TTGlyph name="l" xMin="60" yMin="-6" xMax="269" yMax="750">
      <contour>
        <pt x="141" y="659" on="1"/>
        <pt x="141" y="102" on="1"/>
        <pt x="142" y="77" on="0"/>
        <pt x="161" y="58" on="0"/>
        <pt x="183" y="58" on="1"/>
        <pt x="199" y="58" on="1"/>
        <pt x="264" y="76" on="1"/>
        <pt x="269" y="13" on="1"/>
        <pt x="199" y="-6" on="1"/>
        <pt x="181" y="-6" on="1"/>
        <pt x="120" y="-6" on="0"/>
        <pt x="71" y="59" on="0"/>
        <pt x="71" y="126" on="1"/>
        <pt x="71" y="660" on="1"/>
        <pt x="60" y="741" on="1"/>
        <pt x="129" y="750" on="1"/>
      </contour>
    </TTGlyph>
    <TTGlyph name="less" xMin="71" yMin="97" xMax="372" yMax="499">
      <contour>
        <pt x="372" y="168" on="1"/>
        <pt x="372" y="97" on="1"/>
        <pt x="71" y="278" on="1"/>
        <pt x="71" y="319" on="1"/>
        <pt x="372" y="499" on="1"/>
        <pt x="372" y="429" on="1"/>
        <pt x="151" y="300" on="1"/>
      </contour>
    </TTGlyph>
    <TTGlyph name="logicalnot" xMin="76" yMin="114" xMax="386" yMax="290">
      <contour>
        <pt x="321" y="229" on="1"/>
        <pt x="76" y="229" on="1"/>
        <pt x="76" y="290" on="1"/>
        <pt x="386" y="290" on="1"/>
        <pt x="386" y="114" on="1"/>
        <pt x="321" y="114" on="1"/>
      </contour>
    </TTGlyph>
    <TTGlyph name="m" xMin="61" yMin="-8" xMax="670" yMax="507">
      <contour>
        <pt x="590" y="80" on="1"/>
        <pt x="590" y="369" on="1"/>
        <pt x="590" y="406" on="0"/>
        <pt x="564" y="435" on="0"/>
        <pt x="532" y="435" on="1"/>
        <pt x="400" y="365" on="1"/>
        <pt x="400" y="0" on="1"/>
        <pt x="330" y="0" on="1"/>
        <pt x="330" y="369" on="1"/>
        <pt x="330" y="405" on="0"/>
        <pt x="304" y="435" on="0"/>
        <pt x="272" y="435" on="1"/>
        <pt x="141" y="365" on="1"/>
        <pt x="141" y="0" on="1"/>
        <pt x="71" y="0" on="1"/>
        <pt x="71" y="432" on="1"/>
        <pt x="61" y="498" on="1"/>
        <pt x="129" y="507" on="1"/>
        <pt x="138" y="436" on="1"/>
        <pt x="251" y="500" on="1"/>
        <pt x="280" y="500" on="1"/>
        <pt x="366" y="500" on="0"/>
        <pt x="392" y="433" on="1"/>
        <pt x="511" y="500" on="1"/>
        <pt x="540" y="500" on="1"/>
        <pt x="598" y="500" on="0"/>
        <pt x="660" y="437" on="0"/>
        <pt x="660" y="380" on="1"/>
        <pt x="660" y="76" on="1"/>
        <pt x="670" y="0" on="1"/>
        <pt x="601" y="-8" on="1"/>
      </contour>
    </TTGlyph>
    <TTGlyph name="macron" xMin="96" yMin="810" xMax="306" yMax="859">
      <contour>
        <pt x="306" y="810" on="1"/>
        <pt x="96" y="810" on="1"/>
        <pt x="96" y="859" on="1"/>
        <pt x="306" y="859" on="1"/>
      </contour>
    </TTGlyph>
    <TTGlyph name="minus" xMin="76" yMin="254" xMax="385" yMax="315">
      <contour>
        <pt x="76" y="254" on="1"/>
        <pt x="76" y="315" on="1"/>
        <pt x="385" y="315" on="1"/>
        <pt x="385" y="254" on="1"/>
      </contour>
    </TTGlyph>
    <TTGlyph name="mu" xMin="56" yMin="-230" xMax="426" yMax="507">
      <contour>
        <pt x="66" y="419" on="1"/>
        <pt x="56" y="498" on="1"/>
        <pt x="124" y="507" on="1"/>
        <pt x="136" y="415" on="1"/>
        <pt x="136" y="118" on="1"/>
        <pt x="136" y="64" on="0"/>
        <pt x="188" y="64" on="1"/>
        <pt x="217" y="64" on="1"/>
        <pt x="346" y="148" on="1"/>
        <pt x="346" y="500" on="1"/>
        <pt x="416" y="500" on="1"/>
        <pt x="416" y="79" on="1"/>
        <pt x="426" y="0" on="1"/>
        <pt x="358" y="-8" on="1"/>
        <pt x="347" y="71" on="1"/>
        <pt x="235" y="0" on="1"/>
        <pt x="186" y="0" on="1"/>
        <pt x="142" y="0" on="0"/>
        <pt x="124" y="21" on="1"/>
        <pt x="136" y="-83" on="1"/>
        <pt x="136" y="-230" on="1"/>
        <pt x="66" y="-230" on="1"/>
      </contour>
    </TTGlyph>
    <TTGlyph name="multiply" xMin="61" yMin="101" xMax="400" yMax="440">
      <contour>
        <pt x="230" y="231" on="1"/>
        <pt x="101" y="102" on="1"/>
        <pt x="61" y="141" on="1"/>
        <pt x="191" y="271" on="1"/>
        <pt x="61" y="401" on="1"/>
        <pt x="101" y="440" on="1"/>
        <pt x="230" y="310" on="1"/>
        <pt x="361" y="440" on="1"/>
        <pt x="400" y="401" on="1"/>
        <pt x="270" y="271" on="1"/>
        <pt x="400" y="140" on="1"/>
        <pt x="361" y="101" on="1"/>
      </contour>
    </TTGlyph>
    <TTGlyph name="n" xMin="61" yMin="-8" xMax="431" yMax="507">
      <contour>
        <pt x="421" y="76" on="1"/>
        <pt x="431" y="0" on="1"/>
        <pt x="362" y="-8" on="1"/>
        <pt x="351" y="80" on="1"/>
        <pt x="351" y="381" on="1"/>
        <pt x="351" y="435" on="0"/>
        <pt x="299" y="435" on="1"/>
        <pt x="267" y="435" on="1"/>
        <pt x="141" y="365" on="1"/>
        <pt x="141" y="0" on="1"/>
        <pt x="71" y="0" on="1"/>
        <pt x="71" y="417" on="1"/>
        <pt x="61" y="498" on="1"/>
        <pt x="129" y="507" on="1"/>
        <pt x="138" y="436" on="1"/>
        <pt x="251" y="500" on="1"/>
        <pt x="301" y="500" on="1"/>
        <pt x="359" y="500" on="0"/>
        <pt x="421" y="437" on="0"/>
        <pt x="421" y="380" on="1"/>
      </contour>
    </TTGlyph>
    <TTGlyph name="nine" xMin="66" yMin="0" xMax="469" yMax="700">
      <contour>
        <pt x="349" y="0" on="1"/>
        <pt x="183" y="0" on="1"/>
        <pt x="83" y="27" on="1"/>
        <pt x="101" y="88" on="1"/>
        <pt x="183" y="64" on="1"/>
        <pt x="347" y="64" on="1"/>
        <pt x="399" y="64" on="0"/>
        <pt x="399" y="118" on="1"/>
        <pt x="399" y="305" on="1"/>
        <pt x="368" y="280" on="0"/>
        <pt x="324" y="280" on="1"/>
        <pt x="186" y="280" on="1"/>
        <pt x="127" y="280" on="0"/>
        <pt x="66" y="342" on="0"/>
        <pt x="66" y="400" on="1"/>
        <pt x="66" y="580" on="1"/>
        <pt x="66" y="637" on="0"/>
        <pt x="127" y="700" on="0"/>
        <pt x="186" y="700" on="1"/>
        <pt x="349" y="700" on="1"/>
        <pt x="407" y="700" on="0"/>
        <pt x="469" y="637" on="0"/>
        <pt x="469" y="580" on="1"/>
        <pt x="469" y="120" on="1"/>
        <pt x="469" y="63" on="0"/>
        <pt x="407" y="0" on="0"/>
      </contour>
      <contour>
        <pt x="347" y="635" on="1"/>
        <pt x="188" y="635" on="1"/>
        <pt x="136" y="635" on="0"/>
        <pt x="136" y="581" on="1"/>
        <pt x="136" y="398" on="1"/>
        <pt x="136" y="344" on="0"/>
        <pt x="188" y="344" on="1"/>
        <pt x="324" y="344" on="1"/>
        <pt x="393" y="344" on="0"/>
        <pt x="399" y="399" on="1"/>
        <pt x="399" y="581" on="1"/>
        <pt x="399" y="635" on="0"/>
      </contour>
    </TTGlyph>
    <TTGlyph name="nonbreakingspace" xMin="0" yMin="0" xMax="0" yMax="0">
      <component glyphName="space" x="0" y="0" flags="0x204"/>
    </TTGlyph>
    <TTGlyph name="ntilde" xMin="61" yMin="-8" xMax="431" yMax="714">
      <component glyphName="n" x="0" y="0" flags="0x204"/>
      <component glyphName="tilde" x="2" y="-201" flags="0x4"/>
    </TTGlyph>
    <TTGlyph name="numbersign" xMin="81" yMin="-15" xMax="667" yMax="718">
      <contour>
        <pt x="162" y="447" on="1"/>
        <pt x="162" y="505" on="1"/>
        <pt x="267" y="505" on="1"/>
        <pt x="319" y="718" on="1"/>
        <pt x="378" y="700" on="1"/>
        <pt x="330" y="505" on="1"/>
        <pt x="494" y="505" on="1"/>
        <pt x="546" y="718" on="1"/>
        <pt x="605" y="700" on="1"/>
        <pt x="557" y="505" on="1"/>
        <pt x="667" y="505" on="1"/>
        <pt x="667" y="447" on="1"/>
        <pt x="543" y="447" on="1"/>
        <pt x="497" y="255" on="1"/>
        <pt x="586" y="255" on="1"/>
        <pt x="586" y="197" on="1"/>
        <pt x="483" y="197" on="1"/>
        <pt x="431" y="-15" on="1"/>
        <pt x="372" y="0" on="1"/>
        <pt x="419" y="197" on="1"/>
        <pt x="256" y="197" on="1"/>
        <pt x="204" y="-15" on="1"/>
        <pt x="145" y="0" on="1"/>
        <pt x="192" y="197" on="1"/>
        <pt x="81" y="197" on="1"/>
        <pt x="81" y="255" on="1"/>
        <pt x="206" y="255" on="1"/>
        <pt x="253" y="447" on="1"/>
      </contour>
      <contour>
        <pt x="316" y="447" on="1"/>
        <pt x="270" y="255" on="1"/>
        <pt x="433" y="255" on="1"/>
        <pt x="480" y="447" on="1"/>
      </contour>
    </TTGlyph>
    <TTGlyph name="o" xMin="61" yMin="0" xMax="411" yMax="500">
      <contour>
        <pt x="289" y="435" on="1"/>
        <pt x="183" y="435" on="1"/>
        <pt x="131" y="435" on="0"/>
        <pt x="131" y="381" on="1"/>
        <pt x="131" y="118" on="1"/>
        <pt x="131" y="64" on="0"/>
        <pt x="183" y="64" on="1"/>
        <pt x="289" y="64" on="1"/>
        <pt x="341" y="64" on="0"/>
        <pt x="341" y="118" on="1"/>
        <pt x="341" y="381" on="1"/>
        <pt x="341" y="435" on="0"/>
      </contour>
      <contour>
        <pt x="291" y="0" on="1"/>
        <pt x="181" y="0" on="1"/>
        <pt x="122" y="0" on="0"/>
        <pt x="61" y="62" on="0"/>
        <pt x="61" y="120" on="1"/>
        <pt x="61" y="380" on="1"/>
        <pt x="61" y="437" on="0"/>
        <pt x="122" y="500" on="0"/>
        <pt x="181" y="500" on="1"/>
        <pt x="291" y="500" on="1"/>
        <pt x="350" y="500" on="0"/>
        <pt x="411" y="437" on="0"/>
        <pt x="411" y="380" on="1"/>
        <pt x="411" y="120" on="1"/>
        <pt x="411" y="62" on="0"/>
        <pt x="350" y="0" on="0"/>
      </contour>
    </TTGlyph>
    <TTGlyph name="oacute" xMin="61" yMin="0" xMax="411" yMax="714">
      <component glyphName="o" x="0" y="0" flags="0x204"/>
      <component glyphName="acute" x="145" y="-201" flags="0x4"/>
    </TTGlyph>
    <TTGlyph name="ocircumflex" xMin="61" yMin="0" xMax="411" yMax="724">
      <component glyphName="o" x="0" y="0" flags="0x204"/>
      <component glyphName="circumflex" x="17" y="-201" flags="0x4"/>
    </TTGlyph>
    <TTGlyph name="odieresis" xMin="61" yMin="0" xMax="411" yMax="703">
      <component glyphName="o" x="0" y="0" flags="0x204"/>
      <component glyphName="dieresis" x="33" y="-201" flags="0x4"/>
    </TTGlyph>
    <TTGlyph name="oe" xMin="61" yMin="0" xMax="676" yMax="500">
      <contour>
        <pt x="289" y="435" on="1"/>
        <pt x="183" y="435" on="1"/>
        <pt x="131" y="435" on="0"/>
        <pt x="131" y="381" on="1"/>
        <pt x="131" y="118" on="1"/>
        <pt x="131" y="64" on="0"/>
        <pt x="183" y="64" on="1"/>
        <pt x="289" y="64" on="1"/>
        <pt x="341" y="64" on="0"/>
        <pt x="341" y="118" on="1"/>
        <pt x="341" y="381" on="1"/>
        <pt x="341" y="435" on="0"/>
      </contour>
      <contour>
        <pt x="411" y="381" on="1"/>
        <pt x="411" y="291" on="1"/>
        <pt x="592" y="291" on="1"/>
        <pt x="606" y="302" on="1"/>
        <pt x="606" y="381" on="1"/>
        <pt x="606" y="435" on="0"/>
        <pt x="554" y="435" on="1"/>
        <pt x="463" y="435" on="1"/>
        <pt x="411" y="435" on="0"/>
      </contour>
      <contour>
        <pt x="291" y="0" on="1"/>
        <pt x="181" y="0" on="1"/>
        <pt x="122" y="0" on="0"/>
        <pt x="61" y="62" on="0"/>
        <pt x="61" y="120" on="1"/>
        <pt x="61" y="380" on="1"/>
        <pt x="61" y="437" on="0"/>
        <pt x="122" y="500" on="0"/>
        <pt x="181" y="500" on="1"/>
        <pt x="291" y="500" on="1"/>
        <pt x="352" y="500" on="0"/>
        <pt x="374" y="462" on="1"/>
        <pt x="378" y="462" on="1"/>
        <pt x="396" y="500" on="0"/>
        <pt x="461" y="500" on="1"/>
        <pt x="556" y="500" on="1"/>
        <pt x="615" y="500" on="0"/>
        <pt x="676" y="437" on="0"/>
        <pt x="676" y="380" on="1"/>
        <pt x="676" y="276" on="1"/>
        <pt x="621" y="227" on="1"/>
        <pt x="411" y="227" on="1"/>
        <pt x="411" y="118" on="1"/>
        <pt x="411" y="64" on="0"/>
        <pt x="463" y="64" on="1"/>
        <pt x="568" y="64" on="1"/>
        <pt x="649" y="88" on="1"/>
        <pt x="667" y="27" on="1"/>
        <pt x="568" y="0" on="1"/>
        <pt x="461" y="0" on="1"/>
        <pt x="396" y="0" on="0"/>
        <pt x="378" y="38" on="1"/>
        <pt x="374" y="38" on="1"/>
        <pt x="352" y="0" on="0"/>
      </contour>
    </TTGlyph>
    <TTGlyph name="ograve" xMin="61" yMin="0" xMax="411" yMax="714">
      <component glyphName="o" x="0" y="0" flags="0x204"/>
      <component glyphName="grave" x="42" y="-201" flags="0x4"/>
    </TTGlyph>
    <TTGlyph name="one" xMin="16" yMin="0" xMax="366" yMax="700">
      <contour>
        <pt x="366" y="64" on="1"/>
        <pt x="366" y="0" on="1"/>
        <pt x="16" y="0" on="1"/>
        <pt x="16" y="64" on="1"/>
        <pt x="156" y="64" on="1"/>
        <pt x="156" y="635" on="1"/>
        <pt x="41" y="593" on="1"/>
        <pt x="29" y="656" on="1"/>
        <pt x="156" y="700" on="1"/>
        <pt x="226" y="700" on="1"/>
        <pt x="226" y="64" on="1"/>
      </contour>
    </TTGlyph>
    <TTGlyph name="onehalf" xMin="51" yMin="-21" xMax="691" yMax="555">
      <component glyphName="onesuperior" x="45" y="-220" flags="0x4"/>
      <component glyphName="fraction" x="211" y="0" flags="0x4"/>
      <component glyphName="twosuperior" x="439" y="-374" flags="0x4"/>
    </TTGlyph>
    <TTGlyph name="onequarter" xMin="52" yMin="-21" xMax="685" yMax="555">
      <component glyphName="onesuperior" x="46" y="-220" flags="0x4"/>
      <component glyphName="fraction" x="211" y="0" flags="0x4"/>
      <component glyphName="uni2074" x="402" y="-369" flags="0x4"/>
    </TTGlyph>
    <TTGlyph name="onesuperior" xMin="6" yMin="375" xMax="218" yMax="750">
      <contour>
        <pt x="218" y="423" on="1"/>
        <pt x="218" y="375" on="1"/>
        <pt x="6" y="375" on="1"/>
        <pt x="6" y="423" on="1"/>
        <pt x="87" y="423" on="1"/>
        <pt x="87" y="698" on="1"/>
        <pt x="28" y="670" on="1"/>
        <pt x="7" y="709" on="1"/>
        <pt x="87" y="750" on="1"/>
        <pt x="143" y="750" on="1"/>
        <pt x="143" y="423" on="1"/>
      </contour>
    </TTGlyph>
    <TTGlyph name="ordfeminine" xMin="59" yMin="370" xMax="329" yMax="750">
      <contour>
        <pt x="70" y="729" on="1"/>
        <pt x="144" y="750" on="1"/>
        <pt x="231" y="750" on="1"/>
        <pt x="275" y="750" on="0"/>
        <pt x="321" y="703" on="0"/>
        <pt x="321" y="660" on="1"/>
        <pt x="321" y="440" on="1"/>
        <pt x="329" y="376" on="1"/>
        <pt x="277" y="370" on="1"/>
        <pt x="271" y="440" on="1"/>
        <pt x="185" y="376" on="1"/>
        <pt x="149" y="376" on="1"/>
        <pt x="105" y="376" on="0"/>
        <pt x="59" y="423" on="0"/>
        <pt x="59" y="466" on="1"/>
        <pt x="59" y="511" on="1"/>
        <pt x="59" y="554" on="0"/>
        <pt x="105" y="601" on="0"/>
        <pt x="149" y="601" on="1"/>
        <pt x="264" y="601" on="1"/>
        <pt x="264" y="661" on="1"/>
        <pt x="264" y="697" on="0"/>
        <pt x="230" y="697" on="1"/>
        <pt x="144" y="697" on="1"/>
        <pt x="83" y="679" on="1"/>
      </contour>
      <contour>
        <pt x="150" y="428" on="1"/>
        <pt x="172" y="428" on="1"/>
        <pt x="264" y="494" on="1"/>
        <pt x="264" y="551" on="1"/>
        <pt x="150" y="551" on="1"/>
        <pt x="115" y="551" on="0"/>
        <pt x="115" y="514" on="1"/>
        <pt x="115" y="464" on="1"/>
        <pt x="115" y="428" on="0"/>
      </contour>
    </TTGlyph>
    <TTGlyph name="ordmasculine" xMin="78" yMin="375" xMax="340" yMax="750">
      <contour>
        <pt x="249" y="697" on="1"/>
        <pt x="170" y="697" on="1"/>
        <pt x="134" y="697" on="0"/>
        <pt x="134" y="661" on="1"/>
        <pt x="134" y="463" on="1"/>
        <pt x="134" y="427" on="0"/>
        <pt x="170" y="427" on="1"/>
        <pt x="249" y="427" on="1"/>
        <pt x="284" y="427" on="0"/>
        <pt x="284" y="463" on="1"/>
        <pt x="284" y="661" on="1"/>
        <pt x="284" y="697" on="0"/>
      </contour>
      <contour>
        <pt x="251" y="375" on="1"/>
        <pt x="168" y="375" on="1"/>
        <pt x="124" y="375" on="0"/>
        <pt x="78" y="422" on="0"/>
        <pt x="78" y="465" on="1"/>
        <pt x="78" y="660" on="1"/>
        <pt x="78" y="703" on="0"/>
        <pt x="124" y="750" on="0"/>
        <pt x="168" y="750" on="1"/>
        <pt x="251" y="750" on="1"/>
        <pt x="294" y="750" on="0"/>
        <pt x="340" y="702" on="0"/>
        <pt x="340" y="660" on="1"/>
        <pt x="340" y="465" on="1"/>
        <pt x="340" y="422" on="0"/>
        <pt x="294" y="375" on="0"/>
      </contour>
    </TTGlyph>
    <TTGlyph name="oslash" xMin="61" yMin="-61" xMax="411" yMax="551">
      <contour>
        <pt x="407" y="528" on="1"/>
        <pt x="379" y="469" on="1"/>
        <pt x="411" y="437" on="0"/>
        <pt x="411" y="380" on="1"/>
        <pt x="411" y="120" on="1"/>
        <pt x="411" y="62" on="0"/>
        <pt x="350" y="0" on="0"/>
        <pt x="291" y="0" on="1"/>
        <pt x="181" y="0" on="1"/>
        <pt x="157" y="0" on="0"/>
        <pt x="142" y="4" on="1"/>
        <pt x="112" y="-61" on="1"/>
        <pt x="67" y="-37" on="1"/>
        <pt x="97" y="26" on="1"/>
        <pt x="61" y="56" on="0"/>
        <pt x="61" y="120" on="1"/>
        <pt x="61" y="380" on="1"/>
        <pt x="61" y="437" on="0"/>
        <pt x="122" y="500" on="0"/>
        <pt x="181" y="500" on="1"/>
        <pt x="291" y="500" on="1"/>
        <pt x="316" y="500" on="0"/>
        <pt x="335" y="494" on="1"/>
        <pt x="362" y="551" on="1"/>
      </contour>
      <contour>
        <pt x="289" y="435" on="1"/>
        <pt x="183" y="435" on="1"/>
        <pt x="131" y="435" on="0"/>
        <pt x="131" y="381" on="1"/>
        <pt x="131" y="118" on="1"/>
        <pt x="131" y="100" on="0"/>
        <pt x="136" y="87" on="1"/>
        <pt x="297" y="435" on="1"/>
      </contour>
      <contour>
        <pt x="341" y="381" on="1"/>
        <pt x="341" y="394" on="0"/>
        <pt x="338" y="403" on="1"/>
        <pt x="179" y="64" on="1"/>
        <pt x="183" y="64" on="1"/>
        <pt x="289" y="64" on="1"/>
        <pt x="341" y="64" on="0"/>
        <pt x="341" y="118" on="1"/>
      </contour>
    </TTGlyph>
    <TTGlyph name="otilde" xMin="61" yMin="0" xMax="411" yMax="714">
      <component glyphName="o" x="0" y="0" flags="0x204"/>
      <component glyphName="tilde" x="-7" y="-201" flags="0x4"/>
    </TTGlyph>
    <TTGlyph name="p" xMin="61" yMin="-230" xMax="421" yMax="507">
      <contour>
        <pt x="71" y="418" on="1"/>
        <pt x="61" y="498" on="1"/>
        <pt x="129" y="507" on="1"/>
        <pt x="138" y="436" on="1"/>
        <pt x="251" y="500" on="1"/>
        <pt x="301" y="500" on="1"/>
        <pt x="359" y="500" on="0"/>
        <pt x="421" y="437" on="0"/>
        <pt x="421" y="380" on="1"/>
        <pt x="421" y="120" on="1"/>
        <pt x="421" y="63" on="0"/>
        <pt x="359" y="0" on="0"/>
        <pt x="301" y="0" on="1"/>
        <pt x="253" y="0" on="1"/>
        <pt x="141" y="22" on="1"/>
        <pt x="141" y="-230" on="1"/>
        <pt x="71" y="-230" on="1"/>
      </contour>
      <contour>
        <pt x="267" y="435" on="1"/>
        <pt x="141" y="365" on="1"/>
        <pt x="141" y="86" on="1"/>
        <pt x="255" y="64" on="1"/>
        <pt x="299" y="64" on="1"/>
        <pt x="351" y="64" on="0"/>
        <pt x="351" y="118" on="1"/>
        <pt x="351" y="381" on="1"/>
        <pt x="351" y="435" on="0"/>
        <pt x="299" y="435" on="1"/>
      </contour>
    </TTGlyph>
    <TTGlyph name="paragraph" xMin="6" yMin="-230" xMax="415" yMax="700">
      <contour>
        <pt x="415" y="700" on="1"/>
        <pt x="415" y="-230" on="1"/>
        <pt x="345" y="-230" on="1"/>
        <pt x="345" y="635" on="1"/>
        <pt x="246" y="635" on="1"/>
        <pt x="246" y="-230" on="1"/>
        <pt x="176" y="-230" on="1"/>
        <pt x="176" y="405" on="1"/>
        <pt x="116" y="405" on="1"/>
        <pt x="63" y="405" on="0"/>
        <pt x="6" y="463" on="0"/>
        <pt x="6" y="515" on="1"/>
        <pt x="6" y="590" on="1"/>
        <pt x="6" y="642" on="0"/>
        <pt x="63" y="700" on="0"/>
        <pt x="116" y="700" on="1"/>
      </contour>
    </TTGlyph>
    <TTGlyph name="parenleft" xMin="76" yMin="-230" xMax="261" yMax="786">
      <contour>
        <pt x="141" y="300" on="1"/>
        <pt x="165" y="-80" on="1"/>
        <pt x="169" y="-134" on="0"/>
        <pt x="212" y="-169" on="0"/>
        <pt x="261" y="-169" on="1"/>
        <pt x="261" y="-230" on="1"/>
        <pt x="251" y="-230" on="1"/>
        <pt x="111" y="-230" on="0"/>
        <pt x="101" y="-80" on="1"/>
        <pt x="76" y="300" on="1"/>
        <pt x="101" y="636" on="1"/>
        <pt x="112" y="786" on="0"/>
        <pt x="251" y="786" on="1"/>
        <pt x="261" y="786" on="1"/>
        <pt x="261" y="725" on="1"/>
        <pt x="213" y="725" on="0"/>
        <pt x="169" y="690" on="0"/>
        <pt x="165" y="636" on="1"/>
      </contour>
    </TTGlyph>
    <TTGlyph name="parenright" xMin="41" yMin="-230" xMax="226" yMax="786">
      <contour>
        <pt x="137" y="-80" on="1"/>
        <pt x="161" y="300" on="1"/>
        <pt x="137" y="636" on="1"/>
        <pt x="133" y="690" on="0"/>
        <pt x="89" y="725" on="0"/>
        <pt x="41" y="725" on="1"/>
        <pt x="41" y="786" on="1"/>
        <pt x="189" y="786" on="0"/>
        <pt x="201" y="636" on="1"/>
        <pt x="226" y="300" on="1"/>
        <pt x="201" y="-80" on="1"/>
        <pt x="191" y="-230" on="0"/>
        <pt x="41" y="-230" on="1"/>
        <pt x="41" y="-169" on="1"/>
        <pt x="89" y="-169" on="0"/>
        <pt x="133" y="-134" on="0"/>
      </contour>
    </TTGlyph>
    <TTGlyph name="percent" xMin="56" yMin="-18" xMax="703" yMax="716">
      <contour>
        <pt x="242" y="-18" on="1"/>
        <pt x="185" y="5" on="1"/>
        <pt x="512" y="716" on="1"/>
        <pt x="569" y="695" on="1"/>
      </contour>
      <contour>
        <pt x="198" y="393" on="1"/>
        <pt x="174" y="393" on="1"/>
        <pt x="117" y="393" on="0"/>
        <pt x="56" y="455" on="0"/>
        <pt x="56" y="511" on="1"/>
        <pt x="56" y="582" on="1"/>
        <pt x="56" y="638" on="0"/>
        <pt x="117" y="700" on="0"/>
        <pt x="174" y="700" on="1"/>
        <pt x="198" y="700" on="1"/>
        <pt x="255" y="700" on="0"/>
        <pt x="316" y="638" on="0"/>
        <pt x="316" y="582" on="1"/>
        <pt x="316" y="511" on="1"/>
        <pt x="316" y="455" on="0"/>
        <pt x="255" y="393" on="0"/>
      </contour>
      <contour>
        <pt x="256" y="511" on="1"/>
        <pt x="256" y="582" on="1"/>
        <pt x="256" y="644" on="0"/>
        <pt x="198" y="644" on="1"/>
        <pt x="174" y="644" on="1"/>
        <pt x="116" y="644" on="0"/>
        <pt x="116" y="582" on="1"/>
        <pt x="116" y="511" on="1"/>
        <pt x="116" y="449" on="0"/>
        <pt x="174" y="449" on="1"/>
        <pt x="198" y="449" on="1"/>
        <pt x="256" y="449" on="0"/>
      </contour>
      <contour>
        <pt x="585" y="0" on="1"/>
        <pt x="561" y="0" on="1"/>
        <pt x="504" y="0" on="0"/>
        <pt x="443" y="63" on="0"/>
        <pt x="443" y="118" on="1"/>
        <pt x="443" y="189" on="1"/>
        <pt x="443" y="246" on="0"/>
        <pt x="504" y="307" on="0"/>
        <pt x="561" y="307" on="1"/>
        <pt x="585" y="307" on="1"/>
        <pt x="642" y="307" on="0"/>
        <pt x="703" y="246" on="0"/>
        <pt x="703" y="189" on="1"/>
        <pt x="703" y="118" on="1"/>
        <pt x="703" y="63" on="0"/>
        <pt x="642" y="0" on="0"/>
      </contour>
      <contour>
        <pt x="643" y="118" on="1"/>
        <pt x="643" y="189" on="1"/>
        <pt x="643" y="251" on="0"/>
        <pt x="585" y="251" on="1"/>
        <pt x="561" y="251" on="1"/>
        <pt x="503" y="251" on="0"/>
        <pt x="503" y="189" on="1"/>
        <pt x="503" y="118" on="1"/>
        <pt x="503" y="56" on="0"/>
        <pt x="561" y="56" on="1"/>
        <pt x="585" y="56" on="1"/>
        <pt x="643" y="56" on="0"/>
      </contour>
    </TTGlyph>
    <TTGlyph name="period" xMin="76" yMin="-3" xMax="170" yMax="91">
      <contour>
        <pt x="132" y="-3" on="1"/>
        <pt x="114" y="-3" on="1"/>
        <pt x="98" y="-3" on="0"/>
        <pt x="76" y="18" on="0"/>
        <pt x="76" y="35" on="1"/>
        <pt x="76" y="53" on="1"/>
        <pt x="76" y="70" on="0"/>
        <pt x="97" y="91" on="0"/>
        <pt x="114" y="91" on="1"/>
        <pt x="132" y="91" on="1"/>
        <pt x="149" y="91" on="0"/>
        <pt x="170" y="70" on="0"/>
        <pt x="170" y="53" on="1"/>
        <pt x="170" y="35" on="1"/>
        <pt x="170" y="18" on="0"/>
        <pt x="149" y="-3" on="0"/>
      </contour>
    </TTGlyph>
    <TTGlyph name="periodcentered" xMin="92" yMin="310" xMax="186" yMax="404">
      <contour>
        <pt x="148" y="310" on="1"/>
        <pt x="130" y="310" on="1"/>
        <pt x="114" y="310" on="0"/>
        <pt x="92" y="332" on="0"/>
        <pt x="92" y="348" on="1"/>
        <pt x="92" y="366" on="1"/>
        <pt x="92" y="383" on="0"/>
        <pt x="113" y="404" on="0"/>
        <pt x="130" y="404" on="1"/>
        <pt x="148" y="404" on="1"/>
        <pt x="165" y="404" on="0"/>
        <pt x="186" y="383" on="0"/>
        <pt x="186" y="366" on="1"/>
        <pt x="186" y="348" on="1"/>
        <pt x="186" y="331" on="0"/>
        <pt x="165" y="310" on="0"/>
      </contour>
    </TTGlyph>
    <TTGlyph name="plus" xMin="76" yMin="130" xMax="385" yMax="439">
      <contour>
        <pt x="76" y="254" on="1"/>
        <pt x="76" y="315" on="1"/>
        <pt x="200" y="315" on="1"/>
        <pt x="200" y="439" on="1"/>
        <pt x="261" y="439" on="1"/>
        <pt x="261" y="315" on="1"/>
        <pt x="385" y="315" on="1"/>
        <pt x="385" y="254" on="1"/>
        <pt x="261" y="254" on="1"/>
        <pt x="261" y="130" on="1"/>
        <pt x="200" y="130" on="1"/>
        <pt x="200" y="254" on="1"/>
      </contour>
    </TTGlyph>
    <TTGlyph name="plusminus" xMin="76" yMin="35" xMax="385" yMax="469">
      <contour>
        <pt x="76" y="284" on="1"/>
        <pt x="76" y="345" on="1"/>
        <pt x="200" y="345" on="1"/>
        <pt x="200" y="469" on="1"/>
        <pt x="261" y="469" on="1"/>
        <pt x="261" y="345" on="1"/>
        <pt x="385" y="345" on="1"/>
        <pt x="385" y="284" on="1"/>
        <pt x="261" y="284" on="1"/>
        <pt x="261" y="160" on="1"/>
        <pt x="200" y="160" on="1"/>
        <pt x="200" y="284" on="1"/>
      </contour>
      <contour>
        <pt x="385" y="35" on="1"/>
        <pt x="76" y="35" on="1"/>
        <pt x="76" y="96" on="1"/>
        <pt x="385" y="96" on="1"/>
      </contour>
    </TTGlyph>
    <TTGlyph name="q" xMin="61" yMin="-230" xMax="411" yMax="510">
      <contour>
        <pt x="214" y="64" on="1"/>
        <pt x="341" y="136" on="1"/>
        <pt x="341" y="432" on="1"/>
        <pt x="183" y="445" on="1"/>
        <pt x="131" y="445" on="0"/>
        <pt x="131" y="391" on="1"/>
        <pt x="131" y="118" on="1"/>
        <pt x="131" y="64" on="0"/>
        <pt x="183" y="64" on="1"/>
      </contour>
      <contour>
        <pt x="181" y="510" on="1"/>
        <pt x="411" y="488" on="1"/>
        <pt x="411" y="-230" on="1"/>
        <pt x="341" y="-230" on="1"/>
        <pt x="341" y="62" on="1"/>
        <pt x="231" y="0" on="1"/>
        <pt x="181" y="0" on="1"/>
        <pt x="122" y="0" on="0"/>
        <pt x="61" y="62" on="0"/>
        <pt x="61" y="120" on="1"/>
        <pt x="61" y="390" on="1"/>
        <pt x="61" y="447" on="0"/>
        <pt x="122" y="510" on="0"/>
      </contour>
    </TTGlyph>
    <TTGlyph name="question" xMin="38" yMin="-10" xMax="407" yMax="696">
      <contour>
        <pt x="337" y="493" on="1"/>
        <pt x="337" y="577" on="1"/>
        <pt x="337" y="631" on="0"/>
        <pt x="285" y="631" on="1"/>
        <pt x="125" y="631" on="1"/>
        <pt x="56" y="610" on="1"/>
        <pt x="38" y="672" on="1"/>
        <pt x="125" y="696" on="1"/>
        <pt x="287" y="696" on="1"/>
        <pt x="345" y="696" on="0"/>
        <pt x="407" y="633" on="0"/>
        <pt x="407" y="576" on="1"/>
        <pt x="407" y="490" on="1"/>
        <pt x="407" y="444" on="0"/>
        <pt x="387" y="389" on="0"/>
        <pt x="360" y="367" on="1"/>
        <pt x="279" y="304" on="1"/>
        <pt x="257" y="287" on="0"/>
        <pt x="244" y="258" on="0"/>
        <pt x="244" y="230" on="1"/>
        <pt x="244" y="161" on="1"/>
        <pt x="174" y="161" on="1"/>
        <pt x="174" y="230" on="1"/>
        <pt x="174" y="305" on="0"/>
        <pt x="228" y="345" on="1"/>
        <pt x="308" y="404" on="1"/>
        <pt x="328" y="419" on="0"/>
        <pt x="337" y="452" on="0"/>
      </contour>
      <contour>
        <pt x="220" y="-10" on="1"/>
        <pt x="202" y="-10" on="1"/>
        <pt x="185" y="-10" on="0"/>
        <pt x="164" y="11" on="0"/>
        <pt x="164" y="28" on="1"/>
        <pt x="164" y="46" on="1"/>
        <pt x="164" y="63" on="0"/>
        <pt x="185" y="84" on="0"/>
        <pt x="202" y="84" on="1"/>
        <pt x="220" y="84" on="1"/>
        <pt x="237" y="84" on="0"/>
        <pt x="258" y="63" on="0"/>
        <pt x="258" y="46" on="1"/>
        <pt x="258" y="28" on="1"/>
        <pt x="258" y="12" on="0"/>
        <pt x="236" y="-10" on="0"/>
      </contour>
    </TTGlyph>
    <TTGlyph name="questiondown" xMin="38" yMin="-250" xMax="407" yMax="456">
      <contour>
        <pt x="108" y="-47" on="1"/>
        <pt x="108" y="-131" on="1"/>
        <pt x="108" y="-185" on="0"/>
        <pt x="160" y="-185" on="1"/>
        <pt x="320" y="-185" on="1"/>
        <pt x="389" y="-164" on="1"/>
        <pt x="407" y="-226" on="1"/>
        <pt x="320" y="-250" on="1"/>
        <pt x="158" y="-250" on="1"/>
        <pt x="100" y="-250" on="0"/>
        <pt x="38" y="-187" on="0"/>
        <pt x="38" y="-130" on="1"/>
        <pt x="38" y="-44" on="1"/>
        <pt x="38" y="2" on="0"/>
        <pt x="58" y="57" on="0"/>
        <pt x="85" y="79" on="1"/>
        <pt x="166" y="142" on="1"/>
        <pt x="188" y="159" on="0"/>
        <pt x="201" y="188" on="0"/>
        <pt x="201" y="216" on="1"/>
        <pt x="201" y="285" on="1"/>
        <pt x="271" y="285" on="1"/>
        <pt x="271" y="216" on="1"/>
        <pt x="271" y="141" on="0"/>
        <pt x="217" y="101" on="1"/>
        <pt x="137" y="42" on="1"/>
        <pt x="117" y="27" on="0"/>
        <pt x="108" y="-6" on="0"/>
      </contour>
      <contour>
        <pt x="225" y="456" on="1"/>
        <pt x="243" y="456" on="1"/>
        <pt x="260" y="456" on="0"/>
        <pt x="281" y="435" on="0"/>
        <pt x="281" y="418" on="1"/>
        <pt x="281" y="400" on="1"/>
        <pt x="281" y="383" on="0"/>
        <pt x="260" y="362" on="0"/>
        <pt x="243" y="362" on="1"/>
        <pt x="225" y="362" on="1"/>
        <pt x="208" y="362" on="0"/>
        <pt x="187" y="383" on="0"/>
        <pt x="187" y="400" on="1"/>
        <pt x="187" y="418" on="1"/>
        <pt x="187" y="434" on="0"/>
        <pt x="208" y="456" on="0"/>
      </contour>
    </TTGlyph>
    <TTGlyph name="quotedbl" xMin="76" yMin="519" xMax="254" yMax="700">
      <contour>
        <pt x="81" y="519" on="1"/>
        <pt x="76" y="700" on="1"/>
        <pt x="133" y="700" on="1"/>
        <pt x="127" y="519" on="1"/>
      </contour>
      <contour>
        <pt x="202" y="519" on="1"/>
        <pt x="197" y="700" on="1"/>
        <pt x="254" y="700" on="1"/>
        <pt x="248" y="519" on="1"/>
      </contour>
    </TTGlyph>
    <TTGlyph name="quotedblbase" xMin="73" yMin="-110" xMax="302" yMax="81">
      <contour>
        <pt x="224" y="-96" on="1"/>
        <pt x="257" y="-6" on="1"/>
        <pt x="216" y="-6" on="0"/>
        <pt x="216" y="29" on="1"/>
        <pt x="216" y="46" on="1"/>
        <pt x="216" y="62" on="0"/>
        <pt x="235" y="81" on="0"/>
        <pt x="250" y="81" on="1"/>
        <pt x="268" y="81" on="1"/>
        <pt x="283" y="81" on="0"/>
        <pt x="302" y="62" on="0"/>
        <pt x="302" y="46" on="1"/>
        <pt x="302" y="-2" on="1"/>
        <pt x="263" y="-110" on="1"/>
      </contour>
      <contour>
        <pt x="82" y="-96" on="1"/>
        <pt x="114" y="-6" on="1"/>
        <pt x="73" y="-6" on="0"/>
        <pt x="73" y="29" on="1"/>
        <pt x="73" y="46" on="1"/>
        <pt x="73" y="62" on="0"/>
        <pt x="92" y="81" on="0"/>
        <pt x="108" y="81" on="1"/>
        <pt x="125" y="81" on="1"/>
        <pt x="141" y="81" on="0"/>
        <pt x="159" y="62" on="0"/>
        <pt x="159" y="46" on="1"/>
        <pt x="159" y="-2" on="1"/>
        <pt x="120" y="-110" on="1"/>
      </contour>
    </TTGlyph>
    <TTGlyph name="quotedblleft" xMin="57" yMin="580" xMax="285" yMax="771">
      <contour>
        <pt x="277" y="757" on="1"/>
        <pt x="244" y="667" on="1"/>
        <pt x="285" y="664" on="0"/>
        <pt x="285" y="632" on="1"/>
        <pt x="285" y="615" on="1"/>
        <pt x="285" y="599" on="0"/>
        <pt x="266" y="580" on="0"/>
        <pt x="251" y="580" on="1"/>
        <pt x="233" y="580" on="1"/>
        <pt x="218" y="580" on="0"/>
        <pt x="199" y="600" on="0"/>
        <pt x="199" y="615" on="1"/>
        <pt x="199" y="663" on="1"/>
        <pt x="238" y="771" on="1"/>
      </contour>
      <contour>
        <pt x="134" y="757" on="1"/>
        <pt x="102" y="667" on="1"/>
        <pt x="143" y="664" on="0"/>
        <pt x="143" y="632" on="1"/>
        <pt x="143" y="615" on="1"/>
        <pt x="143" y="599" on="0"/>
        <pt x="123" y="580" on="0"/>
        <pt x="108" y="580" on="1"/>
        <pt x="91" y="580" on="1"/>
        <pt x="76" y="580" on="0"/>
        <pt x="57" y="600" on="0"/>
        <pt x="57" y="615" on="1"/>
        <pt x="57" y="663" on="1"/>
        <pt x="96" y="771" on="1"/>
      </contour>
    </TTGlyph>
    <TTGlyph name="quotedblright" xMin="57" yMin="513" xMax="285" yMax="704">
      <contour>
        <pt x="65" y="527" on="1"/>
        <pt x="98" y="617" on="1"/>
        <pt x="57" y="617" on="0"/>
        <pt x="57" y="652" on="1"/>
        <pt x="57" y="669" on="1"/>
        <pt x="57" y="684" on="0"/>
        <pt x="76" y="704" on="0"/>
        <pt x="91" y="704" on="1"/>
        <pt x="109" y="704" on="1"/>
        <pt x="124" y="704" on="0"/>
        <pt x="143" y="684" on="0"/>
        <pt x="143" y="669" on="1"/>
        <pt x="143" y="621" on="1"/>
        <pt x="104" y="513" on="1"/>
      </contour>
      <contour>
        <pt x="208" y="527" on="1"/>
        <pt x="240" y="617" on="1"/>
        <pt x="199" y="617" on="0"/>
        <pt x="199" y="652" on="1"/>
        <pt x="199" y="669" on="1"/>
        <pt x="199" y="684" on="0"/>
        <pt x="219" y="704" on="0"/>
        <pt x="234" y="704" on="1"/>
        <pt x="251" y="704" on="1"/>
        <pt x="266" y="704" on="0"/>
        <pt x="285" y="684" on="0"/>
        <pt x="285" y="669" on="1"/>
        <pt x="285" y="621" on="1"/>
        <pt x="246" y="513" on="1"/>
      </contour>
    </TTGlyph>
    <TTGlyph name="quoteleft" xMin="67" yMin="580" xMax="153" yMax="770">
      <contour>
        <pt x="145" y="757" on="1"/>
        <pt x="112" y="666" on="1"/>
        <pt x="153" y="663" on="0"/>
        <pt x="153" y="632" on="1"/>
        <pt x="153" y="614" on="1"/>
        <pt x="153" y="599" on="0"/>
        <pt x="134" y="580" on="0"/>
        <pt x="119" y="580" on="1"/>
        <pt x="101" y="580" on="1"/>
        <pt x="86" y="580" on="0"/>
        <pt x="67" y="599" on="0"/>
        <pt x="67" y="614" on="1"/>
        <pt x="67" y="663" on="1"/>
        <pt x="106" y="770" on="1"/>
      </contour>
    </TTGlyph>
    <TTGlyph name="quoteright" xMin="67" yMin="528" xMax="153" yMax="719">
      <contour>
        <pt x="76" y="542" on="1"/>
        <pt x="108" y="632" on="1"/>
        <pt x="67" y="632" on="0"/>
        <pt x="67" y="667" on="1"/>
        <pt x="67" y="684" on="1"/>
        <pt x="67" y="699" on="0"/>
        <pt x="87" y="719" on="0"/>
        <pt x="102" y="719" on="1"/>
        <pt x="119" y="719" on="1"/>
        <pt x="134" y="719" on="0"/>
        <pt x="153" y="699" on="0"/>
        <pt x="153" y="684" on="1"/>
        <pt x="153" y="636" on="1"/>
        <pt x="114" y="528" on="1"/>
      </contour>
    </TTGlyph>
    <TTGlyph name="quotesinglbase" xMin="73" yMin="-110" xMax="159" yMax="81">
      <contour>
        <pt x="82" y="-96" on="1"/>
        <pt x="114" y="-6" on="1"/>
        <pt x="73" y="-6" on="0"/>
        <pt x="73" y="29" on="1"/>
        <pt x="73" y="46" on="1"/>
        <pt x="73" y="62" on="0"/>
        <pt x="92" y="81" on="0"/>
        <pt x="108" y="81" on="1"/>
        <pt x="125" y="81" on="1"/>
        <pt x="141" y="81" on="0"/>
        <pt x="159" y="62" on="0"/>
        <pt x="159" y="46" on="1"/>
        <pt x="159" y="-2" on="1"/>
        <pt x="120" y="-110" on="1"/>
      </contour>
    </TTGlyph>
    <TTGlyph name="quotesingle" xMin="76" yMin="519" xMax="133" yMax="700">
      <contour>
        <pt x="81" y="519" on="1"/>
        <pt x="76" y="700" on="1"/>
        <pt x="133" y="700" on="1"/>
        <pt x="127" y="519" on="1"/>
      </contour>
    </TTGlyph>
    <TTGlyph name="r" xMin="61" yMin="0" xMax="301" yMax="507">
      <contour>
        <pt x="301" y="500" on="1"/>
        <pt x="301" y="426" on="1"/>
        <pt x="267" y="428" on="1"/>
        <pt x="141" y="373" on="1"/>
        <pt x="141" y="0" on="1"/>
        <pt x="71" y="0" on="1"/>
        <pt x="71" y="417" on="1"/>
        <pt x="61" y="498" on="1"/>
        <pt x="126" y="507" on="1"/>
        <pt x="137" y="435" on="1"/>
        <pt x="251" y="500" on="1"/>
      </contour>
    </TTGlyph>
    <TTGlyph name="registered" xMin="51" yMin="0" xMax="604" yMax="700">
      <contour>
        <pt x="484" y="0" on="1"/>
        <pt x="171" y="0" on="1"/>
        <pt x="112" y="0" on="0"/>
        <pt x="51" y="62" on="0"/>
        <pt x="51" y="120" on="1"/>
        <pt x="51" y="580" on="1"/>
        <pt x="51" y="637" on="0"/>
        <pt x="112" y="700" on="0"/>
        <pt x="171" y="700" on="1"/>
        <pt x="484" y="700" on="1"/>
        <pt x="542" y="700" on="0"/>
        <pt x="604" y="637" on="0"/>
        <pt x="604" y="580" on="1"/>
        <pt x="604" y="120" on="1"/>
        <pt x="604" y="63" on="0"/>
        <pt x="542" y="0" on="0"/>
      </contour>
      <contour>
        <pt x="482" y="635" on="1"/>
        <pt x="173" y="635" on="1"/>
        <pt x="121" y="635" on="0"/>
        <pt x="121" y="581" on="1"/>
        <pt x="121" y="118" on="1"/>
        <pt x="121" y="85" on="0"/>
        <pt x="162" y="64" on="0"/>
        <pt x="201" y="64" on="1"/>
        <pt x="482" y="64" on="1"/>
        <pt x="534" y="64" on="0"/>
        <pt x="534" y="118" on="1"/>
        <pt x="534" y="581" on="1"/>
        <pt x="534" y="635" on="0"/>
      </contour>
      <contour>
        <pt x="181" y="584" on="1"/>
        <pt x="372" y="584" on="1"/>
        <pt x="482" y="584" on="0"/>
        <pt x="482" y="474" on="1"/>
        <pt x="482" y="410" on="1"/>
        <pt x="482" y="300" on="0"/>
        <pt x="364" y="300" on="1"/>
        <pt x="476" y="114" on="1"/>
        <pt x="402" y="114" on="1"/>
        <pt x="296" y="300" on="1"/>
        <pt x="246" y="300" on="1"/>
        <pt x="246" y="115" on="1"/>
        <pt x="181" y="115" on="1"/>
      </contour>
      <contour>
        <pt x="246" y="525" on="1"/>
        <pt x="246" y="359" on="1"/>
        <pt x="365" y="359" on="1"/>
        <pt x="394" y="359" on="0"/>
        <pt x="417" y="384" on="0"/>
        <pt x="417" y="413" on="1"/>
        <pt x="417" y="466" on="1"/>
        <pt x="417" y="500" on="0"/>
        <pt x="391" y="525" on="0"/>
        <pt x="355" y="525" on="1"/>
      </contour>
    </TTGlyph>
    <TTGlyph name="ring" xMin="98" yMin="775" xMax="300" yMax="944">
      <contour>
        <pt x="188" y="816" on="1"/>
        <pt x="210" y="816" on="1"/>
        <pt x="251" y="816" on="0"/>
        <pt x="251" y="856" on="1"/>
        <pt x="251" y="862" on="1"/>
        <pt x="251" y="882" on="0"/>
        <pt x="233" y="901" on="0"/>
        <pt x="210" y="901" on="1"/>
        <pt x="188" y="901" on="1"/>
        <pt x="165" y="901" on="0"/>
        <pt x="147" y="882" on="0"/>
        <pt x="147" y="862" on="1"/>
        <pt x="147" y="856" on="1"/>
        <pt x="147" y="816" on="0"/>
      </contour>
      <contour>
        <pt x="221" y="775" on="1"/>
        <pt x="177" y="775" on="1"/>
        <pt x="140" y="775" on="0"/>
        <pt x="98" y="818" on="0"/>
        <pt x="98" y="854" on="1"/>
        <pt x="98" y="865" on="1"/>
        <pt x="98" y="902" on="0"/>
        <pt x="140" y="944" on="0"/>
        <pt x="177" y="944" on="1"/>
        <pt x="221" y="944" on="1"/>
        <pt x="258" y="944" on="0"/>
        <pt x="300" y="902" on="0"/>
        <pt x="300" y="865" on="1"/>
        <pt x="300" y="854" on="1"/>
        <pt x="300" y="818" on="0"/>
        <pt x="257" y="775" on="0"/>
      </contour>
    </TTGlyph>
    <TTGlyph name="s" xMin="37" yMin="0" xMax="354" yMax="500">
      <contour>
        <pt x="250" y="435" on="1"/>
        <pt x="168" y="435" on="1"/>
        <pt x="140" y="435" on="0"/>
        <pt x="114" y="408" on="0"/>
        <pt x="114" y="374" on="1"/>
        <pt x="114" y="365" on="0"/>
        <pt x="119" y="350" on="0"/>
        <pt x="134" y="335" on="0"/>
        <pt x="141" y="329" on="0"/>
        <pt x="304" y="224" on="1"/>
        <pt x="354" y="192" on="0"/>
        <pt x="354" y="123" on="1"/>
        <pt x="354" y="0" on="0"/>
        <pt x="230" y="0" on="1"/>
        <pt x="137" y="0" on="1"/>
        <pt x="37" y="27" on="1"/>
        <pt x="55" y="88" on="1"/>
        <pt x="137" y="64" on="1"/>
        <pt x="232" y="64" on="1"/>
        <pt x="284" y="64" on="0"/>
        <pt x="284" y="118" on="1"/>
        <pt x="284" y="149" on="0"/>
        <pt x="274" y="166" on="0"/>
        <pt x="257" y="177" on="1"/>
        <pt x="112" y="272" on="1"/>
        <pt x="74" y="297" on="0"/>
        <pt x="44" y="341" on="0"/>
        <pt x="44" y="377" on="1"/>
        <pt x="44" y="436" on="0"/>
        <pt x="105" y="500" on="0"/>
        <pt x="164" y="500" on="1"/>
        <pt x="250" y="500" on="1"/>
        <pt x="349" y="472" on="1"/>
        <pt x="332" y="411" on="1"/>
      </contour>
    </TTGlyph>
    <TTGlyph name="section" xMin="35" yMin="-145" xMax="374" yMax="712">
      <contour>
        <pt x="374" y="272" on="1"/>
        <pt x="374" y="223" on="1"/>
        <pt x="374" y="151" on="0"/>
        <pt x="317" y="124" on="1"/>
        <pt x="352" y="97" on="0"/>
        <pt x="374" y="38" on="0"/>
        <pt x="374" y="-78" on="0"/>
        <pt x="308" y="-145" on="0"/>
        <pt x="249" y="-145" on="1"/>
        <pt x="143" y="-145" on="1"/>
        <pt x="43" y="-118" on="1"/>
        <pt x="61" y="-57" on="1"/>
        <pt x="143" y="-81" on="1"/>
        <pt x="247" y="-81" on="1"/>
        <pt x="273" y="-81" on="0"/>
        <pt x="304" y="-50" on="0"/>
        <pt x="304" y="-22" on="1"/>
        <pt x="304" y="9" on="1"/>
        <pt x="304" y="56" on="0"/>
        <pt x="280" y="70" on="1"/>
        <pt x="123" y="161" on="1"/>
        <pt x="70" y="192" on="0"/>
        <pt x="38" y="247" on="0"/>
        <pt x="38" y="304" on="1"/>
        <pt x="38" y="331" on="1"/>
        <pt x="38" y="408" on="0"/>
        <pt x="101" y="432" on="1"/>
        <pt x="35" y="472" on="0"/>
        <pt x="38" y="587" on="1"/>
        <pt x="40" y="644" on="0"/>
        <pt x="105" y="712" on="0"/>
        <pt x="163" y="712" on="1"/>
        <pt x="269" y="712" on="1"/>
        <pt x="369" y="684" on="1"/>
        <pt x="351" y="623" on="1"/>
        <pt x="269" y="647" on="1"/>
        <pt x="165" y="647" on="1"/>
        <pt x="139" y="647" on="0"/>
        <pt x="108" y="617" on="0"/>
        <pt x="108" y="588" on="1"/>
        <pt x="108" y="550" on="1"/>
        <pt x="108" y="509" on="0"/>
        <pt x="141" y="490" on="1"/>
        <pt x="289" y="405" on="1"/>
        <pt x="339" y="376" on="0"/>
        <pt x="374" y="324" on="0"/>
      </contour>
      <contour>
        <pt x="137" y="232" on="1"/>
        <pt x="260" y="161" on="1"/>
        <pt x="304" y="172" on="0"/>
        <pt x="304" y="222" on="1"/>
        <pt x="304" y="279" on="0"/>
        <pt x="288" y="330" on="0"/>
        <pt x="261" y="344" on="1"/>
        <pt x="168" y="395" on="1"/>
        <pt x="108" y="388" on="0"/>
        <pt x="108" y="332" on="1"/>
        <pt x="108" y="310" on="1"/>
        <pt x="108" y="248" on="0"/>
      </contour>
    </TTGlyph>
    <TTGlyph name="semicolon" xMin="78" yMin="-114" xMax="175" yMax="456">
      <contour>
        <pt x="128" y="-5" on="1"/>
        <pt x="116" y="-5" on="1"/>
        <pt x="99" y="-5" on="0"/>
        <pt x="78" y="16" on="0"/>
        <pt x="78" y="33" on="1"/>
        <pt x="78" y="51" on="1"/>
        <pt x="78" y="68" on="0"/>
        <pt x="99" y="89" on="0"/>
        <pt x="116" y="89" on="1"/>
        <pt x="134" y="89" on="1"/>
        <pt x="150" y="89" on="0"/>
        <pt x="172" y="68" on="0"/>
        <pt x="172" y="51" on="1"/>
        <pt x="172" y="0" on="1"/>
        <pt x="131" y="-114" on="1"/>
        <pt x="94" y="-101" on="1"/>
      </contour>
      <contour>
        <pt x="137" y="362" on="1"/>
        <pt x="119" y="362" on="1"/>
        <pt x="102" y="362" on="0"/>
        <pt x="81" y="383" on="0"/>
        <pt x="81" y="400" on="1"/>
        <pt x="81" y="418" on="1"/>
        <pt x="81" y="434" on="0"/>
        <pt x="102" y="456" on="0"/>
        <pt x="119" y="456" on="1"/>
        <pt x="137" y="456" on="1"/>
        <pt x="154" y="456" on="0"/>
        <pt x="175" y="435" on="0"/>
        <pt x="175" y="418" on="1"/>
        <pt x="175" y="400" on="1"/>
        <pt x="175" y="383" on="0"/>
        <pt x="154" y="362" on="0"/>
      </contour>
    </TTGlyph>
    <TTGlyph name="seven" xMin="13" yMin="0" xMax="398" yMax="700">
      <contour>
        <pt x="398" y="700" on="1"/>
        <pt x="398" y="635" on="1"/>
        <pt x="183" y="0" on="1"/>
        <pt x="113" y="0" on="1"/>
        <pt x="327" y="635" on="1"/>
        <pt x="13" y="635" on="1"/>
        <pt x="13" y="700" on="1"/>
      </contour>
    </TTGlyph>
    <TTGlyph name="six" xMin="71" yMin="0" xMax="474" yMax="700">
      <contour>
        <pt x="191" y="700" on="1"/>
        <pt x="357" y="700" on="1"/>
        <pt x="456" y="672" on="1"/>
        <pt x="439" y="611" on="1"/>
        <pt x="357" y="635" on="1"/>
        <pt x="193" y="635" on="1"/>
        <pt x="141" y="635" on="0"/>
        <pt x="141" y="581" on="1"/>
        <pt x="141" y="395" on="1"/>
        <pt x="171" y="420" on="0"/>
        <pt x="216" y="420" on="1"/>
        <pt x="354" y="420" on="1"/>
        <pt x="412" y="420" on="0"/>
        <pt x="474" y="357" on="0"/>
        <pt x="474" y="300" on="1"/>
        <pt x="474" y="120" on="1"/>
        <pt x="474" y="63" on="0"/>
        <pt x="412" y="0" on="0"/>
        <pt x="354" y="0" on="1"/>
        <pt x="191" y="0" on="1"/>
        <pt x="132" y="0" on="0"/>
        <pt x="71" y="62" on="0"/>
        <pt x="71" y="120" on="1"/>
        <pt x="71" y="580" on="1"/>
        <pt x="71" y="637" on="0"/>
        <pt x="132" y="700" on="0"/>
      </contour>
      <contour>
        <pt x="193" y="64" on="1"/>
        <pt x="352" y="64" on="1"/>
        <pt x="404" y="64" on="0"/>
        <pt x="404" y="118" on="1"/>
        <pt x="404" y="301" on="1"/>
        <pt x="404" y="355" on="0"/>
        <pt x="352" y="355" on="1"/>
        <pt x="216" y="355" on="1"/>
        <pt x="146" y="355" on="0"/>
        <pt x="141" y="300" on="1"/>
        <pt x="141" y="118" on="1"/>
        <pt x="141" y="64" on="0"/>
      </contour>
    </TTGlyph>
    <TTGlyph name="slash" xMin="-7" yMin="-249" xMax="415" yMax="719">
      <contour>
        <pt x="415" y="695" on="1"/>
        <pt x="53" y="-249" on="1"/>
        <pt x="-7" y="-225" on="1"/>
        <pt x="355" y="719" on="1"/>
      </contour>
    </TTGlyph>
    <TTGlyph name="sterling" xMin="19" yMin="0" xMax="499" yMax="700">
      <contour>
        <pt x="399" y="0" on="1"/>
        <pt x="86" y="0" on="1"/>
        <pt x="86" y="308" on="1"/>
        <pt x="19" y="308" on="1"/>
        <pt x="19" y="369" on="1"/>
        <pt x="86" y="369" on="1"/>
        <pt x="86" y="580" on="1"/>
        <pt x="86" y="637" on="0"/>
        <pt x="147" y="700" on="0"/>
        <pt x="206" y="700" on="1"/>
        <pt x="327" y="700" on="1"/>
        <pt x="426" y="672" on="1"/>
        <pt x="409" y="611" on="1"/>
        <pt x="327" y="635" on="1"/>
        <pt x="208" y="635" on="1"/>
        <pt x="156" y="635" on="0"/>
        <pt x="156" y="581" on="1"/>
        <pt x="156" y="369" on="1"/>
        <pt x="338" y="369" on="1"/>
        <pt x="338" y="308" on="1"/>
        <pt x="156" y="308" on="1"/>
        <pt x="156" y="64" on="1"/>
        <pt x="399" y="64" on="1"/>
        <pt x="481" y="88" on="1"/>
        <pt x="499" y="27" on="1"/>
      </contour>
    </TTGlyph>
    <TTGlyph name="t" xMin="12" yMin="-3" xMax="312" yMax="623">
      <contour>
        <pt x="226" y="-3" on="1"/>
        <pt x="149" y="0" on="0"/>
        <pt x="100" y="62" on="0"/>
        <pt x="100" y="152" on="1"/>
        <pt x="100" y="434" on="1"/>
        <pt x="12" y="434" on="1"/>
        <pt x="12" y="490" on="1"/>
        <pt x="100" y="500" on="1"/>
        <pt x="100" y="546" on="1"/>
        <pt x="93" y="602" on="1"/>
        <pt x="160" y="623" on="1"/>
        <pt x="170" y="543" on="1"/>
        <pt x="170" y="500" on="1"/>
        <pt x="304" y="500" on="1"/>
        <pt x="304" y="434" on="1"/>
        <pt x="170" y="434" on="1"/>
        <pt x="170" y="118" on="1"/>
        <pt x="170" y="81" on="0"/>
        <pt x="189" y="62" on="0"/>
        <pt x="220" y="62" on="1"/>
        <pt x="295" y="82" on="1"/>
        <pt x="312" y="21" on="1"/>
      </contour>
    </TTGlyph>
    <TTGlyph name="thorn" xMin="61" yMin="-230" xMax="422" yMax="750">
      <contour>
        <pt x="268" y="435" on="1"/>
        <pt x="142" y="365" on="1"/>
        <pt x="142" y="86" on="1"/>
        <pt x="256" y="64" on="1"/>
        <pt x="300" y="64" on="1"/>
        <pt x="352" y="64" on="0"/>
        <pt x="352" y="118" on="1"/>
        <pt x="352" y="381" on="1"/>
        <pt x="352" y="435" on="0"/>
        <pt x="300" y="435" on="1"/>
      </contour>
      <contour>
        <pt x="142" y="516" on="1"/>
        <pt x="139" y="436" on="1"/>
        <pt x="252" y="500" on="1"/>
        <pt x="302" y="500" on="1"/>
        <pt x="360" y="500" on="0"/>
        <pt x="422" y="437" on="0"/>
        <pt x="422" y="380" on="1"/>
        <pt x="422" y="120" on="1"/>
        <pt x="422" y="63" on="0"/>
        <pt x="360" y="0" on="0"/>
        <pt x="302" y="0" on="1"/>
        <pt x="254" y="0" on="1"/>
        <pt x="142" y="22" on="1"/>
        <pt x="142" y="-230" on="1"/>
        <pt x="72" y="-230" on="1"/>
        <pt x="72" y="660" on="1"/>
        <pt x="61" y="741" on="1"/>
        <pt x="130" y="750" on="1"/>
        <pt x="142" y="659" on="1"/>
      </contour>
    </TTGlyph>
    <TTGlyph name="three" xMin="36" yMin="0" xMax="440" yMax="700">
      <contour>
        <pt x="228" y="410" on="1"/>
        <pt x="320" y="410" on="1"/>
        <pt x="379" y="410" on="0"/>
        <pt x="440" y="347" on="0"/>
        <pt x="440" y="290" on="1"/>
        <pt x="440" y="120" on="1"/>
        <pt x="440" y="62" on="0"/>
        <pt x="379" y="0" on="0"/>
        <pt x="320" y="0" on="1"/>
        <pt x="135" y="0" on="1"/>
        <pt x="36" y="27" on="1"/>
        <pt x="53" y="88" on="1"/>
        <pt x="135" y="64" on="1"/>
        <pt x="318" y="64" on="1"/>
        <pt x="370" y="64" on="0"/>
        <pt x="370" y="118" on="1"/>
        <pt x="370" y="291" on="1"/>
        <pt x="370" y="345" on="0"/>
        <pt x="318" y="345" on="1"/>
        <pt x="143" y="345" on="1"/>
        <pt x="143" y="410" on="1"/>
        <pt x="338" y="635" on="1"/>
        <pt x="42" y="635" on="1"/>
        <pt x="42" y="700" on="1"/>
        <pt x="422" y="700" on="1"/>
        <pt x="422" y="634" on="1"/>
      </contour>
    </TTGlyph>
    <TTGlyph name="threequarters" xMin="47" yMin="-21" xMax="684" yMax="555">
      <component glyphName="threesuperior" x="21" y="-217" flags="0x4"/>
      <component glyphName="fraction" x="215" y="0" flags="0x4"/>
      <component glyphName="uni2074" x="401" y="-374" flags="0x4"/>
    </TTGlyph>
    <TTGlyph name="threesuperior" xMin="26" yMin="375" xMax="250" yMax="750">
      <contour>
        <pt x="139" y="600" on="1"/>
        <pt x="177" y="600" on="1"/>
        <pt x="212" y="600" on="0"/>
        <pt x="250" y="564" on="0"/>
        <pt x="250" y="531" on="1"/>
        <pt x="250" y="444" on="1"/>
        <pt x="250" y="412" on="0"/>
        <pt x="214" y="375" on="0"/>
        <pt x="181" y="375" on="1"/>
        <pt x="80" y="375" on="1"/>
        <pt x="26" y="389" on="1"/>
        <pt x="36" y="437" on="1"/>
        <pt x="80" y="426" on="1"/>
        <pt x="166" y="426" on="1"/>
        <pt x="194" y="426" on="0"/>
        <pt x="194" y="455" on="1"/>
        <pt x="194" y="520" on="1"/>
        <pt x="194" y="548" on="0"/>
        <pt x="166" y="548" on="1"/>
        <pt x="72" y="548" on="1"/>
        <pt x="72" y="600" on="1"/>
        <pt x="170" y="700" on="1"/>
        <pt x="170" y="704" on="1"/>
        <pt x="116" y="698" on="1"/>
        <pt x="27" y="698" on="1"/>
        <pt x="27" y="750" on="1"/>
        <pt x="240" y="750" on="1"/>
        <pt x="240" y="698" on="1"/>
      </contour>
    </TTGlyph>
    <TTGlyph name="tilde" xMin="91" yMin="786" xMax="391" yMax="915">
      <contour>
        <pt x="314" y="794" on="1"/>
        <pt x="295" y="794" on="1"/>
        <pt x="271" y="794" on="0"/>
        <pt x="248" y="810" on="1"/>
        <pt x="206" y="841" on="1"/>
        <pt x="196" y="849" on="0"/>
        <pt x="181" y="849" on="1"/>
        <pt x="172" y="849" on="1"/>
        <pt x="158" y="849" on="0"/>
        <pt x="147" y="842" on="0"/>
        <pt x="147" y="830" on="1"/>
        <pt x="147" y="819" on="1"/>
        <pt x="137" y="786" on="1"/>
        <pt x="91" y="808" on="1"/>
        <pt x="97" y="833" on="1"/>
        <pt x="97" y="849" on="1"/>
        <pt x="97" y="882" on="0"/>
        <pt x="131" y="907" on="0"/>
        <pt x="165" y="907" on="1"/>
        <pt x="187" y="907" on="1"/>
        <pt x="210" y="907" on="0"/>
        <pt x="231" y="893" on="1"/>
        <pt x="235" y="890" on="0"/>
        <pt x="252" y="877" on="0"/>
        <pt x="259" y="872" on="0"/>
        <pt x="272" y="863" on="0"/>
        <pt x="278" y="859" on="0"/>
        <pt x="287" y="854" on="0"/>
        <pt x="294" y="852" on="0"/>
        <pt x="297" y="852" on="1"/>
        <pt x="307" y="852" on="1"/>
        <pt x="321" y="852" on="0"/>
        <pt x="332" y="859" on="0"/>
        <pt x="332" y="871" on="1"/>
        <pt x="332" y="882" on="1"/>
        <pt x="342" y="915" on="1"/>
        <pt x="391" y="901" on="1"/>
        <pt x="382" y="868" on="1"/>
        <pt x="382" y="852" on="1"/>
        <pt x="382" y="819" on="0"/>
        <pt x="348" y="794" on="0"/>
      </contour>
    </TTGlyph>
    <TTGlyph name="trademark" xMin="66" yMin="379" xMax="564" yMax="700">
      <contour>
        <pt x="518" y="604" on="1"/>
        <pt x="492" y="537" on="1"/>
        <pt x="449" y="447" on="1"/>
        <pt x="411" y="447" on="1"/>
        <pt x="368" y="537" on="1"/>
        <pt x="342" y="604" on="1"/>
        <pt x="339" y="604" on="1"/>
        <pt x="344" y="511" on="1"/>
        <pt x="344" y="379" on="1"/>
        <pt x="296" y="379" on="1"/>
        <pt x="296" y="700" on="1"/>
        <pt x="344" y="700" on="1"/>
        <pt x="430" y="506" on="1"/>
        <pt x="516" y="700" on="1"/>
        <pt x="564" y="700" on="1"/>
        <pt x="564" y="379" on="1"/>
        <pt x="516" y="379" on="1"/>
        <pt x="516" y="511" on="1"/>
        <pt x="521" y="604" on="1"/>
      </contour>
      <contour>
        <pt x="66" y="700" on="1"/>
        <pt x="258" y="700" on="1"/>
        <pt x="258" y="657" on="1"/>
        <pt x="186" y="657" on="1"/>
        <pt x="186" y="379" on="1"/>
        <pt x="138" y="379" on="1"/>
        <pt x="138" y="657" on="1"/>
        <pt x="66" y="657" on="1"/>
      </contour>
    </TTGlyph>
    <TTGlyph name="two" xMin="59" yMin="0" xMax="438" yMax="700">
      <contour>
        <pt x="159" y="700" on="1"/>
        <pt x="311" y="700" on="1"/>
        <pt x="369" y="700" on="0"/>
        <pt x="431" y="637" on="0"/>
        <pt x="431" y="580" on="1"/>
        <pt x="431" y="455" on="1"/>
        <pt x="431" y="421" on="0"/>
        <pt x="409" y="377" on="0"/>
        <pt x="381" y="354" on="1"/>
        <pt x="171" y="171" on="1"/>
        <pt x="150" y="154" on="0"/>
        <pt x="138" y="129" on="0"/>
        <pt x="138" y="107" on="1"/>
        <pt x="138" y="64" on="1"/>
        <pt x="438" y="64" on="1"/>
        <pt x="438" y="0" on="1"/>
        <pt x="68" y="0" on="1"/>
        <pt x="68" y="107" on="1"/>
        <pt x="68" y="175" on="0"/>
        <pt x="123" y="219" on="1"/>
        <pt x="330" y="394" on="1"/>
        <pt x="350" y="410" on="0"/>
        <pt x="361" y="430" on="0"/>
        <pt x="361" y="455" on="1"/>
        <pt x="361" y="581" on="1"/>
        <pt x="361" y="635" on="0"/>
        <pt x="309" y="635" on="1"/>
        <pt x="159" y="635" on="1"/>
        <pt x="77" y="611" on="1"/>
        <pt x="59" y="672" on="1"/>
      </contour>
    </TTGlyph>
    <TTGlyph name="twosuperior" xMin="29" yMin="375" xMax="252" yMax="750">
      <contour>
        <pt x="95" y="750" on="1"/>
        <pt x="179" y="750" on="1"/>
        <pt x="212" y="750" on="0"/>
        <pt x="248" y="713" on="0"/>
        <pt x="248" y="680" on="1"/>
        <pt x="248" y="619" on="1"/>
        <pt x="248" y="585" on="0"/>
        <pt x="220" y="561" on="1"/>
        <pt x="104" y="464" on="1"/>
        <pt x="88" y="451" on="0"/>
        <pt x="88" y="426" on="1"/>
        <pt x="252" y="426" on="1"/>
        <pt x="252" y="375" on="1"/>
        <pt x="29" y="375" on="1"/>
        <pt x="29" y="433" on="1"/>
        <pt x="29" y="453" on="0"/>
        <pt x="42" y="478" on="0"/>
        <pt x="60" y="493" on="1"/>
        <pt x="175" y="591" on="1"/>
        <pt x="186" y="600" on="0"/>
        <pt x="192" y="612" on="0"/>
        <pt x="192" y="624" on="1"/>
        <pt x="192" y="670" on="1"/>
        <pt x="192" y="699" on="0"/>
        <pt x="163" y="699" on="1"/>
        <pt x="95" y="699" on="1"/>
        <pt x="45" y="686" on="1"/>
        <pt x="31" y="735" on="1"/>
      </contour>
    </TTGlyph>
    <TTGlyph name="u" xMin="61" yMin="-8" xMax="431" yMax="507">
      <contour>
        <pt x="71" y="419" on="1"/>
        <pt x="61" y="498" on="1"/>
        <pt x="129" y="507" on="1"/>
        <pt x="141" y="415" on="1"/>
        <pt x="141" y="118" on="1"/>
        <pt x="141" y="64" on="0"/>
        <pt x="193" y="64" on="1"/>
        <pt x="222" y="64" on="1"/>
        <pt x="351" y="148" on="1"/>
        <pt x="351" y="500" on="1"/>
        <pt x="421" y="500" on="1"/>
        <pt x="421" y="79" on="1"/>
        <pt x="431" y="0" on="1"/>
        <pt x="363" y="-8" on="1"/>
        <pt x="352" y="71" on="1"/>
        <pt x="240" y="0" on="1"/>
        <pt x="191" y="0" on="1"/>
        <pt x="132" y="0" on="0"/>
        <pt x="71" y="62" on="0"/>
        <pt x="71" y="120" on="1"/>
      </contour>
    </TTGlyph>
    <TTGlyph name="uacute" xMin="61" yMin="-8" xMax="431" yMax="714">
      <component glyphName="u" x="0" y="0" flags="0x204"/>
      <component glyphName="acute" x="155" y="-201" flags="0x4"/>
    </TTGlyph>
    <TTGlyph name="ucircumflex" xMin="61" yMin="-8" xMax="431" yMax="724">
      <component glyphName="u" x="0" y="0" flags="0x204"/>
      <component glyphName="circumflex" x="27" y="-201" flags="0x4"/>
    </TTGlyph>
    <TTGlyph name="udieresis" xMin="61" yMin="-8" xMax="431" yMax="703">
      <component glyphName="u" x="0" y="0" flags="0x204"/>
      <component glyphName="dieresis" x="43" y="-201" flags="0x4"/>
    </TTGlyph>
    <TTGlyph name="ugrave" xMin="61" yMin="-8" xMax="431" yMax="714">
      <component glyphName="u" x="0" y="0" flags="0x204"/>
      <component glyphName="grave" x="52" y="-201" flags="0x4"/>
    </TTGlyph>
    <TTGlyph name="underscore" xMin="6" yMin="-61" xMax="566" yMax="0">
      <contour>
        <pt x="566" y="-61" on="1"/>
        <pt x="6" y="-61" on="1"/>
        <pt x="6" y="0" on="1"/>
        <pt x="566" y="0" on="1"/>
      </contour>
    </TTGlyph>
    <TTGlyph name="uni00AD" xMin="76" yMin="244" xMax="386" yMax="305">
      <contour>
        <pt x="386" y="244" on="1"/>
        <pt x="76" y="244" on="1"/>
        <pt x="76" y="305" on="1"/>
        <pt x="386" y="305" on="1"/>
      </contour>
    </TTGlyph>
    <TTGlyph name="uni0401" xMin="81" yMin="0" xMax="450" yMax="885">
      <component glyphName="E" x="0" y="0" flags="0x204"/>
      <component glyphName="dieresis" x="53" y="-19" flags="0x4"/>
    </TTGlyph>
    <TTGlyph name="uni0402" xMin="21" yMin="-181" xMax="536" yMax="700">
      <contour>
        <pt x="21" y="700" on="1"/>
        <pt x="421" y="700" on="1"/>
        <pt x="421" y="635" on="1"/>
        <pt x="256" y="635" on="1"/>
        <pt x="256" y="438" on="1"/>
        <pt x="366" y="500" on="1"/>
        <pt x="416" y="500" on="1"/>
        <pt x="474" y="500" on="0"/>
        <pt x="536" y="437" on="0"/>
        <pt x="536" y="380" on="1"/>
        <pt x="536" y="-12" on="1"/>
        <pt x="536" y="-45" on="0"/>
        <pt x="533" y="-75" on="1"/>
        <pt x="520" y="-181" on="0"/>
        <pt x="393" y="-181" on="1"/>
        <pt x="309" y="-157" on="1"/>
        <pt x="327" y="-96" on="1"/>
        <pt x="393" y="-116" on="1"/>
        <pt x="405" y="-116" on="1"/>
        <pt x="438" y="-116" on="0"/>
        <pt x="466" y="-82" on="0"/>
        <pt x="466" y="-45" on="1"/>
        <pt x="466" y="369" on="1"/>
        <pt x="466" y="406" on="0"/>
        <pt x="440" y="435" on="0"/>
        <pt x="405" y="435" on="1"/>
        <pt x="382" y="435" on="1"/>
        <pt x="256" y="366" on="1"/>
        <pt x="256" y="0" on="1"/>
        <pt x="186" y="0" on="1"/>
        <pt x="186" y="635" on="1"/>
        <pt x="21" y="635" on="1"/>
      </contour>
    </TTGlyph>
    <TTGlyph name="uni0403" xMin="81" yMin="0" xMax="416" yMax="877">
      <component glyphName="uni0413" x="0" y="0" flags="0x204"/>
      <component glyphName="acute.case" x="147" y="-19" flags="0x4"/>
    </TTGlyph>
    <TTGlyph name="uni0404" xMin="71" yMin="0" xMax="469" yMax="700">
      <contour>
        <pt x="191" y="700" on="1"/>
        <pt x="358" y="700" on="1"/>
        <pt x="458" y="672" on="1"/>
        <pt x="440" y="611" on="1"/>
        <pt x="358" y="635" on="1"/>
        <pt x="193" y="635" on="1"/>
        <pt x="141" y="635" on="0"/>
        <pt x="141" y="581" on="1"/>
        <pt x="141" y="390" on="1"/>
        <pt x="370" y="390" on="1"/>
        <pt x="370" y="326" on="1"/>
        <pt x="141" y="326" on="1"/>
        <pt x="141" y="118" on="1"/>
        <pt x="141" y="64" on="0"/>
        <pt x="193" y="64" on="1"/>
        <pt x="370" y="64" on="1"/>
        <pt x="452" y="88" on="1"/>
        <pt x="469" y="27" on="1"/>
        <pt x="370" y="0" on="1"/>
        <pt x="191" y="0" on="1"/>
        <pt x="132" y="0" on="0"/>
        <pt x="71" y="62" on="0"/>
        <pt x="71" y="120" on="1"/>
        <pt x="71" y="580" on="1"/>
        <pt x="71" y="637" on="0"/>
        <pt x="132" y="700" on="0"/>
      </contour>
    </TTGlyph>
    <TTGlyph name="uni0405" xMin="39" yMin="0" xMax="447" yMax="700">
      <component glyphName="S" x="0" y="0" flags="0x204"/>
    </TTGlyph>
    <TTGlyph name="uni0406" xMin="81" yMin="0" xMax="151" yMax="700">
      <component glyphName="I" x="0" y="0" flags="0x204"/>
    </TTGlyph>
    <TTGlyph name="uni0407" xMin="-9" yMin="0" xMax="247" yMax="885">
      <component glyphName="I" x="0" y="0" flags="0x200"/>
      <component glyphName="dieresis" x="-84" y="-19" flags="0x0"/>
    </TTGlyph>
    <TTGlyph name="uni0408" xMin="21" yMin="0" xMax="286" yMax="700">
      <component glyphName="J" x="0" y="0" flags="0x204"/>
    </TTGlyph>
    <TTGlyph name="uni0409" xMin="41" yMin="-5" xMax="838" yMax="700">
      <contour>
        <pt x="716" y="339" on="1"/>
        <pt x="505" y="339" on="1"/>
        <pt x="505" y="64" on="1"/>
        <pt x="716" y="64" on="1"/>
        <pt x="768" y="64" on="0"/>
        <pt x="768" y="118" on="1"/>
        <pt x="768" y="283" on="1"/>
        <pt x="768" y="339" on="0"/>
      </contour>
      <contour>
        <pt x="435" y="635" on="1"/>
        <pt x="217" y="635" on="1"/>
        <pt x="181" y="118" on="1"/>
        <pt x="178" y="52" on="0"/>
        <pt x="133" y="-5" on="0"/>
        <pt x="75" y="-5" on="1"/>
        <pt x="41" y="-5" on="1"/>
        <pt x="41" y="59" on="1"/>
        <pt x="73" y="59" on="1"/>
        <pt x="95" y="59" on="0"/>
        <pt x="110" y="82" on="0"/>
        <pt x="115" y="120" on="1"/>
        <pt x="159" y="700" on="1"/>
        <pt x="505" y="700" on="1"/>
        <pt x="505" y="404" on="1"/>
        <pt x="718" y="404" on="1"/>
        <pt x="776" y="404" on="0"/>
        <pt x="838" y="339" on="0"/>
        <pt x="838" y="282" on="1"/>
        <pt x="838" y="120" on="1"/>
        <pt x="838" y="63" on="0"/>
        <pt x="776" y="0" on="0"/>
        <pt x="718" y="0" on="1"/>
        <pt x="435" y="0" on="1"/>
      </contour>
    </TTGlyph>
    <TTGlyph name="uni040A" xMin="81" yMin="0" xMax="827" yMax="700">
      <contour>
        <pt x="705" y="325" on="1"/>
        <pt x="494" y="325" on="1"/>
        <pt x="494" y="64" on="1"/>
        <pt x="705" y="64" on="1"/>
        <pt x="757" y="64" on="0"/>
        <pt x="757" y="118" on="1"/>
        <pt x="757" y="269" on="1"/>
        <pt x="757" y="325" on="0"/>
      </contour>
      <contour>
        <pt x="424" y="0" on="1"/>
        <pt x="424" y="326" on="1"/>
        <pt x="151" y="326" on="1"/>
        <pt x="151" y="0" on="1"/>
        <pt x="81" y="0" on="1"/>
        <pt x="81" y="700" on="1"/>
        <pt x="151" y="700" on="1"/>
        <pt x="151" y="390" on="1"/>
        <pt x="424" y="390" on="1"/>
        <pt x="424" y="700" on="1"/>
        <pt x="494" y="700" on="1"/>
        <pt x="494" y="390" on="1"/>
        <pt x="707" y="390" on="1"/>
        <pt x="765" y="390" on="0"/>
        <pt x="827" y="325" on="0"/>
        <pt x="827" y="268" on="1"/>
        <pt x="827" y="120" on="1"/>
        <pt x="827" y="63" on="0"/>
        <pt x="765" y="0" on="0"/>
        <pt x="707" y="0" on="1"/>
      </contour>
    </TTGlyph>
    <TTGlyph name="uni040B" xMin="21" yMin="-8" xMax="506" yMax="700">
      <contour>
        <pt x="496" y="380" on="1"/>
        <pt x="496" y="75" on="1"/>
        <pt x="506" y="0" on="1"/>
        <pt x="437" y="-8" on="1"/>
        <pt x="426" y="80" on="1"/>
        <pt x="426" y="369" on="1"/>
        <pt x="426" y="406" on="0"/>
        <pt x="400" y="435" on="0"/>
        <pt x="365" y="435" on="1"/>
        <pt x="342" y="435" on="1"/>
        <pt x="216" y="365" on="1"/>
        <pt x="216" y="0" on="1"/>
        <pt x="146" y="0" on="1"/>
        <pt x="146" y="635" on="1"/>
        <pt x="21" y="635" on="1"/>
        <pt x="21" y="700" on="1"/>
        <pt x="381" y="700" on="1"/>
        <pt x="381" y="635" on="1"/>
        <pt x="216" y="635" on="1"/>
        <pt x="216" y="438" on="1"/>
        <pt x="326" y="500" on="1"/>
        <pt x="376" y="500" on="1"/>
        <pt x="434" y="500" on="0"/>
        <pt x="496" y="437" on="0"/>
      </contour>
    </TTGlyph>
    <TTGlyph name="uni040C" xMin="76" yMin="0" xMax="506" yMax="877">
      <component glyphName="uni041A" x="0" y="0" flags="0x204"/>
      <component glyphName="acute.case" x="147" y="-19" flags="0x4"/>
    </TTGlyph>
    <TTGlyph name="uni040E" xMin="37" yMin="-7" xMax="483" yMax="854">
      <component glyphName="uniF6D4.case" x="70" y="0" flags="0x4"/>
      <component glyphName="uni0423" x="0" y="0" flags="0x4"/>
    </TTGlyph>
    <TTGlyph name="uni040F" xMin="81" yMin="-170" xMax="494" yMax="700">
      <contour>
        <pt x="323" y="-170" on="1"/>
        <pt x="253" y="-170" on="1"/>
        <pt x="253" y="0" on="1"/>
        <pt x="81" y="0" on="1"/>
        <pt x="81" y="700" on="1"/>
        <pt x="151" y="700" on="1"/>
        <pt x="151" y="64" on="1"/>
        <pt x="424" y="64" on="1"/>
        <pt x="424" y="700" on="1"/>
        <pt x="494" y="700" on="1"/>
        <pt x="494" y="0" on="1"/>
        <pt x="323" y="0" on="1"/>
      </contour>
    </TTGlyph>
    <TTGlyph name="uni0410" xMin="26" yMin="0" xMax="527" yMax="700">
      <component glyphName="A" x="0" y="0" flags="0x200"/>
    </TTGlyph>
    <TTGlyph name="uni0411" xMin="81" yMin="0" xMax="495" yMax="700">
      <contour>
        <pt x="151" y="635" on="1"/>
        <pt x="151" y="405" on="1"/>
        <pt x="370" y="405" on="1"/>
        <pt x="428" y="405" on="0"/>
        <pt x="495" y="337" on="0"/>
        <pt x="495" y="280" on="1"/>
        <pt x="495" y="125" on="1"/>
        <pt x="495" y="68" on="0"/>
        <pt x="428" y="0" on="0"/>
        <pt x="370" y="0" on="1"/>
        <pt x="81" y="0" on="1"/>
        <pt x="81" y="700" on="1"/>
        <pt x="471" y="700" on="1"/>
        <pt x="471" y="635" on="1"/>
      </contour>
      <contour>
        <pt x="368" y="341" on="1"/>
        <pt x="151" y="341" on="1"/>
        <pt x="151" y="64" on="1"/>
        <pt x="368" y="64" on="1"/>
        <pt x="394" y="64" on="0"/>
        <pt x="425" y="95" on="0"/>
        <pt x="425" y="123" on="1"/>
        <pt x="425" y="282" on="1"/>
        <pt x="425" y="310" on="0"/>
        <pt x="394" y="341" on="0"/>
      </contour>
    </TTGlyph>
    <TTGlyph name="uni0412" xMin="81" yMin="0" xMax="494" yMax="700">
      <component glyphName="B" x="0" y="0" flags="0x200"/>
    </TTGlyph>
    <TTGlyph name="uni0413" xMin="81" yMin="0" xMax="416" yMax="700">
      <contour>
        <pt x="81" y="700" on="1"/>
        <pt x="416" y="700" on="1"/>
        <pt x="416" y="635" on="1"/>
        <pt x="151" y="635" on="1"/>
        <pt x="151" y="0" on="1"/>
        <pt x="81" y="0" on="1"/>
      </contour>
    </TTGlyph>
    <TTGlyph name="uni0414" xMin="11" yMin="-137" xMax="600" yMax="700">
      <contour>
        <pt x="11" y="66" on="1"/>
        <pt x="91" y="66" on="1"/>
        <pt x="114" y="155" on="1"/>
        <pt x="169" y="700" on="1"/>
        <pt x="525" y="700" on="1"/>
        <pt x="525" y="66" on="1"/>
        <pt x="600" y="66" on="1"/>
        <pt x="600" y="-49" on="1"/>
        <pt x="589" y="-137" on="1"/>
        <pt x="520" y="-129" on="1"/>
        <pt x="530" y="-54" on="1"/>
        <pt x="530" y="0" on="1"/>
        <pt x="81" y="0" on="1"/>
        <pt x="81" y="-54" on="1"/>
        <pt x="91" y="-129" on="1"/>
        <pt x="22" y="-137" on="1"/>
        <pt x="11" y="-49" on="1"/>
      </contour>
      <contour>
        <pt x="167" y="66" on="1"/>
        <pt x="455" y="66" on="1"/>
        <pt x="455" y="635" on="1"/>
        <pt x="228" y="635" on="1"/>
        <pt x="179" y="124" on="1"/>
      </contour>
    </TTGlyph>
    <TTGlyph name="uni0415" xMin="81" yMin="0" xMax="450" yMax="700">
      <component glyphName="E" x="0" y="0" flags="0x200"/>
    </TTGlyph>
    <TTGlyph name="uni0416" xMin="-3" yMin="0" xMax="787" yMax="708">
      <contour>
        <pt x="110" y="708" on="1"/>
        <pt x="143" y="631" on="1"/>
        <pt x="295" y="402" on="1"/>
        <pt x="357" y="402" on="1"/>
        <pt x="357" y="700" on="1"/>
        <pt x="427" y="700" on="1"/>
        <pt x="427" y="402" on="1"/>
        <pt x="489" y="402" on="1"/>
        <pt x="641" y="631" on="1"/>
        <pt x="674" y="708" on="1"/>
        <pt x="751" y="698" on="1"/>
        <pt x="713" y="619" on="1"/>
        <pt x="545" y="369" on="1"/>
        <pt x="787" y="0" on="1"/>
        <pt x="706" y="0" on="1"/>
        <pt x="485" y="336" on="1"/>
        <pt x="427" y="336" on="1"/>
        <pt x="427" y="0" on="1"/>
        <pt x="357" y="0" on="1"/>
        <pt x="357" y="336" on="1"/>
        <pt x="299" y="336" on="1"/>
        <pt x="78" y="0" on="1"/>
        <pt x="-3" y="0" on="1"/>
        <pt x="239" y="369" on="1"/>
        <pt x="71" y="619" on="1"/>
        <pt x="33" y="698" on="1"/>
      </contour>
    </TTGlyph>
    <TTGlyph name="uni0417" xMin="35" yMin="0" xMax="424" yMax="700">
      <contour>
        <pt x="134" y="0" on="1"/>
        <pt x="35" y="27" on="1"/>
        <pt x="52" y="88" on="1"/>
        <pt x="134" y="64" on="1"/>
        <pt x="302" y="64" on="1"/>
        <pt x="354" y="64" on="0"/>
        <pt x="354" y="118" on="1"/>
        <pt x="354" y="261" on="1"/>
        <pt x="354" y="292" on="0"/>
        <pt x="319" y="325" on="0"/>
        <pt x="290" y="325" on="1"/>
        <pt x="131" y="325" on="1"/>
        <pt x="131" y="389" on="1"/>
        <pt x="268" y="389" on="1"/>
        <pt x="296" y="389" on="0"/>
        <pt x="330" y="423" on="0"/>
        <pt x="330" y="453" on="1"/>
        <pt x="330" y="581" on="1"/>
        <pt x="330" y="635" on="0"/>
        <pt x="278" y="635" on="1"/>
        <pt x="144" y="635" on="1"/>
        <pt x="62" y="611" on="1"/>
        <pt x="45" y="672" on="1"/>
        <pt x="144" y="700" on="1"/>
        <pt x="280" y="700" on="1"/>
        <pt x="339" y="700" on="0"/>
        <pt x="400" y="637" on="0"/>
        <pt x="400" y="580" on="1"/>
        <pt x="400" y="466" on="1"/>
        <pt x="400" y="393" on="0"/>
        <pt x="349" y="369" on="1"/>
        <pt x="338" y="369" on="1"/>
        <pt x="338" y="365" on="1"/>
        <pt x="349" y="365" on="1"/>
        <pt x="424" y="341" on="0"/>
        <pt x="424" y="253" on="1"/>
        <pt x="424" y="120" on="1"/>
        <pt x="424" y="63" on="0"/>
        <pt x="362" y="0" on="0"/>
        <pt x="304" y="0" on="1"/>
      </contour>
    </TTGlyph>
    <TTGlyph name="uni0418" xMin="81" yMin="0" xMax="506" yMax="700">
      <contour>
        <pt x="185" y="212" on="1"/>
        <pt x="436" y="700" on="1"/>
        <pt x="506" y="700" on="1"/>
        <pt x="506" y="0" on="1"/>
        <pt x="436" y="0" on="1"/>
        <pt x="436" y="402" on="1"/>
        <pt x="447" y="589" on="1"/>
        <pt x="443" y="589" on="1"/>
        <pt x="401" y="489" on="1"/>
        <pt x="151" y="0" on="1"/>
        <pt x="81" y="0" on="1"/>
        <pt x="81" y="700" on="1"/>
        <pt x="151" y="700" on="1"/>
        <pt x="151" y="299" on="1"/>
        <pt x="139" y="112" on="1"/>
        <pt x="143" y="112" on="1"/>
      </contour>
    </TTGlyph>
    <TTGlyph name="uni0419" xMin="81" yMin="0" xMax="506" yMax="854">
      <component glyphName="uniF6D4.case" x="115" y="0" flags="0x0"/>
      <component glyphName="uni0418" x="0" y="0" flags="0x0"/>
    </TTGlyph>
    <TTGlyph name="uni041A" xMin="76" yMin="0" xMax="506" yMax="708">
      <contour>
        <pt x="360" y="631" on="1"/>
        <pt x="393" y="708" on="1"/>
        <pt x="470" y="698" on="1"/>
        <pt x="432" y="619" on="1"/>
        <pt x="264" y="369" on="1"/>
        <pt x="506" y="0" on="1"/>
        <pt x="425" y="0" on="1"/>
        <pt x="204" y="336" on="1"/>
        <pt x="146" y="336" on="1"/>
        <pt x="146" y="0" on="1"/>
        <pt x="76" y="0" on="1"/>
        <pt x="76" y="700" on="1"/>
        <pt x="146" y="700" on="1"/>
        <pt x="146" y="402" on="1"/>
        <pt x="208" y="402" on="1"/>
      </contour>
    </TTGlyph>
    <TTGlyph name="uni041B" xMin="41" yMin="-5" xMax="505" yMax="700">
      <contour>
        <pt x="115" y="120" on="1"/>
        <pt x="159" y="700" on="1"/>
        <pt x="505" y="700" on="1"/>
        <pt x="505" y="0" on="1"/>
        <pt x="435" y="0" on="1"/>
        <pt x="435" y="635" on="1"/>
        <pt x="217" y="635" on="1"/>
        <pt x="181" y="118" on="1"/>
        <pt x="178" y="52" on="0"/>
        <pt x="133" y="-5" on="0"/>
        <pt x="75" y="-5" on="1"/>
        <pt x="41" y="-5" on="1"/>
        <pt x="41" y="59" on="1"/>
        <pt x="73" y="59" on="1"/>
        <pt x="95" y="59" on="0"/>
        <pt x="110" y="82" on="0"/>
      </contour>
    </TTGlyph>
    <TTGlyph name="uni041C" xMin="81" yMin="0" xMax="621" yMax="700">
      <component glyphName="M" x="0" y="0" flags="0x200"/>
    </TTGlyph>
    <TTGlyph name="uni041D" xMin="81" yMin="0" xMax="499" yMax="700">
      <component glyphName="H" x="0" y="0" flags="0x200"/>
    </TTGlyph>
    <TTGlyph name="uni041E" xMin="71" yMin="0" xMax="489" yMax="700">
      <component glyphName="O" x="0" y="0" flags="0x200"/>
    </TTGlyph>
    <TTGlyph name="uni041F" xMin="81" yMin="0" xMax="494" yMax="700">
      <contour>
        <pt x="494" y="700" on="1"/>
        <pt x="494" y="0" on="1"/>
        <pt x="424" y="0" on="1"/>
        <pt x="424" y="635" on="1"/>
        <pt x="151" y="635" on="1"/>
        <pt x="151" y="0" on="1"/>
        <pt x="81" y="0" on="1"/>
        <pt x="81" y="700" on="1"/>
      </contour>
    </TTGlyph>
    <TTGlyph name="uni0420" xMin="81" yMin="0" xMax="489" yMax="700">
      <component glyphName="P" x="0" y="0" flags="0x200"/>
    </TTGlyph>
    <TTGlyph name="uni0421" xMin="71" yMin="0" xMax="469" yMax="700">
      <component glyphName="C" x="0" y="0" flags="0x200"/>
    </TTGlyph>
    <TTGlyph name="uni0422" xMin="21" yMin="0" xMax="421" yMax="700">
      <component glyphName="T" x="0" y="0" flags="0x200"/>
    </TTGlyph>
    <TTGlyph name="uni0423" xMin="37" yMin="-7" xMax="483" yMax="708">
      <contour>
        <pt x="267" y="111" on="1"/>
        <pt x="285" y="185" on="1"/>
        <pt x="178" y="185" on="1"/>
        <pt x="49" y="620" on="1"/>
        <pt x="37" y="700" on="1"/>
        <pt x="106" y="708" on="1"/>
        <pt x="116" y="630" on="1"/>
        <pt x="229" y="249" on="1"/>
        <pt x="301" y="249" on="1"/>
        <pt x="412" y="700" on="1"/>
        <pt x="483" y="700" on="1"/>
        <pt x="340" y="125" on="1"/>
        <pt x="322" y="52" on="0"/>
        <pt x="269" y="-7" on="0"/>
        <pt x="218" y="-7" on="1"/>
        <pt x="194" y="-7" on="1"/>
        <pt x="124" y="9" on="1"/>
        <pt x="129" y="73" on="1"/>
        <pt x="195" y="57" on="1"/>
        <pt x="212" y="57" on="1"/>
        <pt x="254" y="57" on="0"/>
      </contour>
    </TTGlyph>
    <TTGlyph name="uni0424" xMin="51" yMin="0" xMax="637" yMax="790">
      <contour>
        <pt x="379" y="119" on="1"/>
        <pt x="379" y="0" on="1"/>
        <pt x="309" y="0" on="1"/>
        <pt x="309" y="119" on="1"/>
        <pt x="171" y="119" on="1"/>
        <pt x="112" y="119" on="0"/>
        <pt x="51" y="181" on="0"/>
        <pt x="51" y="239" on="1"/>
        <pt x="51" y="570" on="1"/>
        <pt x="51" y="627" on="0"/>
        <pt x="112" y="690" on="0"/>
        <pt x="171" y="690" on="1"/>
        <pt x="309" y="690" on="1"/>
        <pt x="309" y="790" on="1"/>
        <pt x="379" y="790" on="1"/>
        <pt x="379" y="690" on="1"/>
        <pt x="517" y="690" on="1"/>
        <pt x="575" y="690" on="0"/>
        <pt x="637" y="627" on="0"/>
        <pt x="637" y="570" on="1"/>
        <pt x="637" y="239" on="1"/>
        <pt x="637" y="182" on="0"/>
        <pt x="575" y="119" on="0"/>
        <pt x="517" y="119" on="1"/>
      </contour>
      <contour>
        <pt x="379" y="625" on="1"/>
        <pt x="379" y="183" on="1"/>
        <pt x="515" y="183" on="1"/>
        <pt x="567" y="183" on="0"/>
        <pt x="567" y="237" on="1"/>
        <pt x="567" y="571" on="1"/>
        <pt x="567" y="625" on="0"/>
        <pt x="515" y="625" on="1"/>
      </contour>
      <contour>
        <pt x="309" y="625" on="1"/>
        <pt x="173" y="625" on="1"/>
        <pt x="121" y="625" on="0"/>
        <pt x="121" y="571" on="1"/>
        <pt x="121" y="237" on="1"/>
        <pt x="121" y="183" on="0"/>
        <pt x="173" y="183" on="1"/>
        <pt x="309" y="183" on="1"/>
      </contour>
    </TTGlyph>
    <TTGlyph name="uni0425" xMin="21" yMin="0" xMax="486" yMax="707">
      <component glyphName="X" x="0" y="0" flags="0x200"/>
    </TTGlyph>
    <TTGlyph name="uni0426" xMin="81" yMin="-137" xMax="574" yMax="700">
      <contour>
        <pt x="424" y="700" on="1"/>
        <pt x="494" y="700" on="1"/>
        <pt x="494" y="64" on="1"/>
        <pt x="574" y="64" on="1"/>
        <pt x="574" y="-49" on="1"/>
        <pt x="563" y="-137" on="1"/>
        <pt x="494" y="-129" on="1"/>
        <pt x="504" y="-54" on="1"/>
        <pt x="504" y="0" on="1"/>
        <pt x="81" y="0" on="1"/>
        <pt x="81" y="700" on="1"/>
        <pt x="151" y="700" on="1"/>
        <pt x="151" y="64" on="1"/>
        <pt x="424" y="64" on="1"/>
      </contour>
    </TTGlyph>
    <TTGlyph name="uni0427" xMin="48" yMin="0" xMax="456" yMax="700">
      <contour>
        <pt x="386" y="700" on="1"/>
        <pt x="456" y="700" on="1"/>
        <pt x="456" y="0" on="1"/>
        <pt x="386" y="0" on="1"/>
        <pt x="386" y="305" on="1"/>
        <pt x="314" y="285" on="1"/>
        <pt x="168" y="285" on="1"/>
        <pt x="110" y="285" on="0"/>
        <pt x="48" y="348" on="0"/>
        <pt x="48" y="405" on="1"/>
        <pt x="48" y="700" on="1"/>
        <pt x="118" y="700" on="1"/>
        <pt x="118" y="403" on="1"/>
        <pt x="118" y="349" on="0"/>
        <pt x="170" y="349" on="1"/>
        <pt x="313" y="349" on="1"/>
        <pt x="386" y="369" on="1"/>
      </contour>
    </TTGlyph>
    <TTGlyph name="uni0428" xMin="81" yMin="0" xMax="727" yMax="700">
      <contour>
        <pt x="81" y="700" on="1"/>
        <pt x="151" y="700" on="1"/>
        <pt x="151" y="64" on="1"/>
        <pt x="369" y="64" on="1"/>
        <pt x="369" y="700" on="1"/>
        <pt x="439" y="700" on="1"/>
        <pt x="439" y="64" on="1"/>
        <pt x="657" y="64" on="1"/>
        <pt x="657" y="700" on="1"/>
        <pt x="727" y="700" on="1"/>
        <pt x="727" y="0" on="1"/>
        <pt x="81" y="0" on="1"/>
      </contour>
    </TTGlyph>
    <TTGlyph name="uni0429" xMin="81" yMin="-137" xMax="807" yMax="700">
      <contour>
        <pt x="81" y="700" on="1"/>
        <pt x="151" y="700" on="1"/>
        <pt x="151" y="64" on="1"/>
        <pt x="369" y="64" on="1"/>
        <pt x="369" y="700" on="1"/>
        <pt x="439" y="700" on="1"/>
        <pt x="439" y="64" on="1"/>
        <pt x="657" y="64" on="1"/>
        <pt x="657" y="700" on="1"/>
        <pt x="727" y="700" on="1"/>
        <pt x="727" y="64" on="1"/>
        <pt x="807" y="64" on="1"/>
        <pt x="807" y="-49" on="1"/>
        <pt x="796" y="-137" on="1"/>
        <pt x="727" y="-129" on="1"/>
        <pt x="737" y="-54" on="1"/>
        <pt x="737" y="0" on="1"/>
        <pt x="81" y="0" on="1"/>
      </contour>
    </TTGlyph>
    <TTGlyph name="uni042A" xMin="8" yMin="0" xMax="564" yMax="700">
      <contour>
        <pt x="231" y="339" on="1"/>
        <pt x="231" y="64" on="1"/>
        <pt x="442" y="64" on="1"/>
        <pt x="494" y="64" on="0"/>
        <pt x="494" y="118" on="1"/>
        <pt x="494" y="283" on="1"/>
        <pt x="494" y="339" on="0"/>
        <pt x="442" y="339" on="1"/>
      </contour>
      <contour>
        <pt x="96" y="635" on="1"/>
        <pt x="16" y="624" on="1"/>
        <pt x="8" y="690" on="1"/>
        <pt x="96" y="700" on="1"/>
        <pt x="231" y="700" on="1"/>
        <pt x="231" y="404" on="1"/>
        <pt x="444" y="404" on="1"/>
        <pt x="502" y="404" on="0"/>
        <pt x="564" y="339" on="0"/>
        <pt x="564" y="282" on="1"/>
        <pt x="564" y="120" on="1"/>
        <pt x="564" y="63" on="0"/>
        <pt x="502" y="0" on="0"/>
        <pt x="444" y="0" on="1"/>
        <pt x="161" y="0" on="1"/>
        <pt x="161" y="635" on="1"/>
      </contour>
    </TTGlyph>
    <TTGlyph name="uni042B" xMin="81" yMin="0" xMax="667" yMax="700">
      <contour>
        <pt x="597" y="0" on="1"/>
        <pt x="597" y="700" on="1"/>
        <pt x="667" y="700" on="1"/>
        <pt x="667" y="0" on="1"/>
      </contour>
      <contour>
        <pt x="81" y="0" on="1"/>
        <pt x="81" y="700" on="1"/>
        <pt x="151" y="700" on="1"/>
        <pt x="151" y="404" on="1"/>
        <pt x="364" y="404" on="1"/>
        <pt x="422" y="404" on="0"/>
        <pt x="484" y="339" on="0"/>
        <pt x="484" y="282" on="1"/>
        <pt x="484" y="120" on="1"/>
        <pt x="484" y="63" on="0"/>
        <pt x="422" y="0" on="0"/>
        <pt x="364" y="0" on="1"/>
      </contour>
      <contour>
        <pt x="151" y="339" on="1"/>
        <pt x="151" y="64" on="1"/>
        <pt x="362" y="64" on="1"/>
        <pt x="414" y="64" on="0"/>
        <pt x="414" y="118" on="1"/>
        <pt x="414" y="283" on="1"/>
        <pt x="414" y="339" on="0"/>
        <pt x="362" y="339" on="1"/>
      </contour>
    </TTGlyph>
    <TTGlyph name="uni042C" xMin="81" yMin="0" xMax="484" yMax="700">
      <contour>
        <pt x="81" y="0" on="1"/>
        <pt x="81" y="700" on="1"/>
        <pt x="151" y="700" on="1"/>
        <pt x="151" y="404" on="1"/>
        <pt x="364" y="404" on="1"/>
        <pt x="422" y="404" on="0"/>
        <pt x="484" y="339" on="0"/>
        <pt x="484" y="282" on="1"/>
        <pt x="484" y="120" on="1"/>
        <pt x="484" y="63" on="0"/>
        <pt x="422" y="0" on="0"/>
        <pt x="364" y="0" on="1"/>
      </contour>
      <contour>
        <pt x="151" y="339" on="1"/>
        <pt x="151" y="64" on="1"/>
        <pt x="362" y="64" on="1"/>
        <pt x="414" y="64" on="0"/>
        <pt x="414" y="118" on="1"/>
        <pt x="414" y="283" on="1"/>
        <pt x="414" y="339" on="0"/>
        <pt x="362" y="339" on="1"/>
      </contour>
    </TTGlyph>
</ttFont>
